M48
METRIC,LZ,000.000
;FILE_FORMAT=3:3
;TYPE=PLATED
;Layer: PTH_Through
;EasyEDA v6.5.46, 2025-01-28 17:14:02
;10
;Gerber Generator version 0.2
;Holesize 1 = 0.200 mm
T01C0.200
;Holesize 2 = 0.310 mm
T02C0.310
;Holesize 3 = 0.701 mm
T03C0.701
;Holesize 4 = 0.901 mm
T04C0.901
;Holesize 5 = 1.101 mm
T05C1.101
%
G05
G90
T01
X023853Y042204
X027942Y043427
X028906Y043820
X033680Y052045
X033707Y057194
X033278Y049341
X021118Y053026
X018186Y056677
X022383Y044801
X022276Y047333
X021730Y041220
X026551Y053612
X033526Y040485
X026508Y039919
X030858Y043360
X032293Y047332
X025929Y051416
X032822Y052256
X028468Y054049
X024234Y046655
X023578Y048626
X024767Y050259
X028270Y039985
X020038Y038144
X026400Y050265
X032704Y046230
X032302Y044537
X022272Y041796
X016744Y044550
X028013Y044731
X037129Y042984
X027644Y052275
X021940Y058219
X012963Y067167
X012447Y057438
X021491Y049953
X022034Y048122
X023423Y045811
X031231Y045688
X029718Y046482
X033927Y043057
X018042Y058277
X012978Y053213
X018031Y057446
X017324Y053891
X024895Y047467
X024293Y049336
X023199Y058420
X029679Y042331
X027633Y041656
X015785Y062665
T02
X037846Y055499
X041021Y052959
X038709Y046082
X063119Y052197
X039497Y048016
X062103Y052197
X042291Y041783
X052197Y040513
X061722Y045847
X011811Y056642
T03
X007618Y032777G85X007618Y033277
X016258Y032777G85X016258Y033277
X007618Y036577G85X007618Y037077
X016258Y036577G85X016258Y037077
T04
X009271Y050054
X009271Y052054
T05
X032258Y062738
X032258Y065278
X029718Y062738
X029718Y065278
X027178Y062738
X027178Y065278
X024638Y062738
X024638Y065278
X062865Y049022
M30
