G04 Layer: TopPasteMaskLayer*
G04 EasyEDA v6.5.46, 2025-01-28 17:14:02*
G04 Gerber Generator version 0.2*
G04 Scale: 100 percent, Rotated: No, Reflected: No *
G04 Dimensions in millimeters *
G04 leading zeros omitted , absolute positions ,4 integer and 5 decimal *
%FSLAX45Y45*%
%MOMM*%

%AMMACRO1*4,1,12,1,0.975,1,1.65,1.225,1.65,1.225,-1.65,1,-1.65,1,-0.975,-1,-0.975,-1,-1.65,-1.225,-1.65,-1.225,1.65,-1,1.65,-1,0.975,1,0.975,0*%
%ADD10O,0.7489952X0.1999996*%
%ADD11MACRO1*%
%ADD12O,0.945007X0.5599938*%
%ADD13R,1.5000X2.4000*%
%ADD14R,3.3000X1.1999*%
%ADD15R,0.0166X1.1999*%

%LPD*%
G36*
X5095595Y3957116D02*
G01*
X5090617Y3950106D01*
X5090617Y3902100D01*
X5095595Y3897122D01*
X5140604Y3897122D01*
X5145582Y3902100D01*
X5145582Y3950106D01*
X5140604Y3957116D01*
G37*
G36*
X5095595Y4053078D02*
G01*
X5090617Y4048099D01*
X5090617Y4000093D01*
X5095595Y3993083D01*
X5140604Y3993083D01*
X5145582Y4000093D01*
X5145582Y4048099D01*
X5140604Y4053078D01*
G37*
G36*
X1548993Y6567982D02*
G01*
X1541983Y6563004D01*
X1541983Y6517995D01*
X1548993Y6513017D01*
X1596999Y6513017D01*
X1601978Y6517995D01*
X1601978Y6563004D01*
X1596999Y6567982D01*
G37*
G36*
X1451000Y6567982D02*
G01*
X1446022Y6563004D01*
X1446022Y6517995D01*
X1451000Y6513017D01*
X1499006Y6513017D01*
X1506016Y6517995D01*
X1506016Y6563004D01*
X1499006Y6567982D01*
G37*
G36*
X2564993Y4193082D02*
G01*
X2557983Y4188104D01*
X2557983Y4143095D01*
X2564993Y4138117D01*
X2612999Y4138117D01*
X2617978Y4143095D01*
X2617978Y4188104D01*
X2612999Y4193082D01*
G37*
G36*
X2467000Y4193082D02*
G01*
X2462022Y4188104D01*
X2462022Y4143095D01*
X2467000Y4138117D01*
X2515006Y4138117D01*
X2522016Y4143095D01*
X2522016Y4188104D01*
X2515006Y4193082D01*
G37*
G36*
X2860700Y4193082D02*
G01*
X2855722Y4188104D01*
X2855722Y4143095D01*
X2860700Y4138117D01*
X2908706Y4138117D01*
X2915716Y4143095D01*
X2915716Y4188104D01*
X2908706Y4193082D01*
G37*
G36*
X2958693Y4193082D02*
G01*
X2951683Y4188104D01*
X2951683Y4143095D01*
X2958693Y4138117D01*
X3006699Y4138117D01*
X3011678Y4143095D01*
X3011678Y4188104D01*
X3006699Y4193082D01*
G37*
G36*
X3241700Y4193082D02*
G01*
X3236722Y4188104D01*
X3236722Y4143095D01*
X3241700Y4138117D01*
X3289706Y4138117D01*
X3296716Y4143095D01*
X3296716Y4188104D01*
X3289706Y4193082D01*
G37*
G36*
X3339693Y4193082D02*
G01*
X3332683Y4188104D01*
X3332683Y4143095D01*
X3339693Y4138117D01*
X3387699Y4138117D01*
X3392678Y4143095D01*
X3392678Y4188104D01*
X3387699Y4193082D01*
G37*
G36*
X1451000Y6225082D02*
G01*
X1446022Y6220104D01*
X1446022Y6175095D01*
X1451000Y6170117D01*
X1499006Y6170117D01*
X1506016Y6175095D01*
X1506016Y6220104D01*
X1499006Y6225082D01*
G37*
G36*
X1548993Y6225082D02*
G01*
X1541983Y6220104D01*
X1541983Y6175095D01*
X1548993Y6170117D01*
X1596999Y6170117D01*
X1601978Y6175095D01*
X1601978Y6220104D01*
X1596999Y6225082D01*
G37*
G36*
X2082241Y5781446D02*
G01*
X2077262Y5776468D01*
X2077262Y5731459D01*
X2082241Y5726480D01*
X2130247Y5726480D01*
X2137257Y5731459D01*
X2137257Y5776468D01*
X2130247Y5781446D01*
G37*
G36*
X2180234Y5781446D02*
G01*
X2173224Y5776468D01*
X2173224Y5731459D01*
X2180234Y5726480D01*
X2228240Y5726480D01*
X2233218Y5731459D01*
X2233218Y5776468D01*
X2228240Y5781446D01*
G37*
G36*
X2857195Y5118404D02*
G01*
X2857195Y4838395D01*
X3137204Y4838395D01*
X3137204Y5118404D01*
G37*
G36*
X3158185Y4768392D02*
G01*
X3158185Y4688382D01*
X3186176Y4688382D01*
X3186176Y4768392D01*
G37*
G36*
X3108198Y4768392D02*
G01*
X3108198Y4688382D01*
X3136188Y4688382D01*
X3136188Y4768392D01*
G37*
G36*
X3058210Y4768392D02*
G01*
X3058210Y4688382D01*
X3086201Y4688382D01*
X3086201Y4768392D01*
G37*
G36*
X3008223Y4768392D02*
G01*
X3008223Y4688382D01*
X3036214Y4688382D01*
X3036214Y4768392D01*
G37*
G36*
X2958185Y4768392D02*
G01*
X2958185Y4688382D01*
X2986176Y4688382D01*
X2986176Y4768392D01*
G37*
G36*
X2908198Y4768392D02*
G01*
X2908198Y4688382D01*
X2936240Y4688382D01*
X2936240Y4768392D01*
G37*
G36*
X2858211Y4768392D02*
G01*
X2858211Y4688382D01*
X2886202Y4688382D01*
X2886202Y4768392D01*
G37*
G36*
X2808224Y4768392D02*
G01*
X2808224Y4688382D01*
X2836214Y4688382D01*
X2836214Y4768392D01*
G37*
G36*
X2707182Y4817414D02*
G01*
X2707182Y4789424D01*
X2787192Y4789424D01*
X2787192Y4817414D01*
G37*
G36*
X2707182Y4867402D02*
G01*
X2707182Y4839411D01*
X2787192Y4839411D01*
X2787192Y4867402D01*
G37*
G36*
X2707182Y4917389D02*
G01*
X2707182Y4889398D01*
X2787192Y4889398D01*
X2787192Y4917389D01*
G37*
G36*
X2707182Y4967376D02*
G01*
X2707182Y4939385D01*
X2787192Y4939385D01*
X2787192Y4967376D01*
G37*
G36*
X2707182Y5017414D02*
G01*
X2707182Y4989423D01*
X2787192Y4989423D01*
X2787192Y5017414D01*
G37*
G36*
X2707182Y5067401D02*
G01*
X2707182Y5039410D01*
X2787192Y5039410D01*
X2787192Y5067401D01*
G37*
G36*
X2707182Y5117388D02*
G01*
X2707182Y5089398D01*
X2787192Y5089398D01*
X2787192Y5117388D01*
G37*
G36*
X2707182Y5167376D02*
G01*
X2707182Y5139385D01*
X2787192Y5139385D01*
X2787192Y5167376D01*
G37*
G36*
X2808224Y5268417D02*
G01*
X2808224Y5188407D01*
X2836214Y5188407D01*
X2836214Y5268417D01*
G37*
G36*
X2858211Y5268417D02*
G01*
X2858211Y5188407D01*
X2886202Y5188407D01*
X2886202Y5268417D01*
G37*
G36*
X2908198Y5268417D02*
G01*
X2908198Y5188407D01*
X2936240Y5188407D01*
X2936240Y5268417D01*
G37*
G36*
X2958236Y5268417D02*
G01*
X2958236Y5188407D01*
X2986227Y5188407D01*
X2986227Y5268417D01*
G37*
G36*
X3008223Y5268417D02*
G01*
X3008223Y5188407D01*
X3036214Y5188407D01*
X3036214Y5268417D01*
G37*
G36*
X3058210Y5268417D02*
G01*
X3058210Y5188407D01*
X3086201Y5188407D01*
X3086201Y5268417D01*
G37*
G36*
X3108198Y5268417D02*
G01*
X3108198Y5188407D01*
X3136188Y5188407D01*
X3136188Y5268417D01*
G37*
G36*
X3158236Y5268417D02*
G01*
X3158236Y5188407D01*
X3186226Y5188407D01*
X3186226Y5268417D01*
G37*
G36*
X3207207Y5167376D02*
G01*
X3207207Y5139385D01*
X3287217Y5139385D01*
X3287217Y5167376D01*
G37*
G36*
X3207207Y5117388D02*
G01*
X3207207Y5089398D01*
X3287217Y5089398D01*
X3287217Y5117388D01*
G37*
G36*
X3207207Y5067401D02*
G01*
X3207207Y5039410D01*
X3287217Y5039410D01*
X3287217Y5067401D01*
G37*
G36*
X3207207Y5017363D02*
G01*
X3207207Y4989372D01*
X3287217Y4989372D01*
X3287217Y5017363D01*
G37*
G36*
X3207207Y4967376D02*
G01*
X3207207Y4939385D01*
X3287217Y4939385D01*
X3287217Y4967376D01*
G37*
G36*
X3207207Y4917389D02*
G01*
X3207207Y4889398D01*
X3287217Y4889398D01*
X3287217Y4917389D01*
G37*
G36*
X3207207Y4867402D02*
G01*
X3207207Y4839411D01*
X3287217Y4839411D01*
X3287217Y4867402D01*
G37*
G36*
X3207207Y4817364D02*
G01*
X3207207Y4789373D01*
X3287217Y4789373D01*
X3287217Y4817364D01*
G37*
G36*
X2110130Y4687925D02*
G01*
X2106117Y4683912D01*
X2106117Y4637887D01*
X2110130Y4633874D01*
X2160168Y4633874D01*
X2164181Y4637887D01*
X2164181Y4683912D01*
X2160168Y4687925D01*
G37*
G36*
X2195169Y4687925D02*
G01*
X2191207Y4683912D01*
X2191207Y4637887D01*
X2195169Y4633874D01*
X2245258Y4633874D01*
X2249271Y4637887D01*
X2249271Y4683912D01*
X2245258Y4687925D01*
G37*
G36*
X2110130Y4954625D02*
G01*
X2106117Y4950612D01*
X2106117Y4904587D01*
X2110130Y4900574D01*
X2160168Y4900574D01*
X2164181Y4904587D01*
X2164181Y4950612D01*
X2160168Y4954625D01*
G37*
G36*
X2195169Y4954625D02*
G01*
X2191207Y4950612D01*
X2191207Y4904587D01*
X2195169Y4900574D01*
X2245258Y4900574D01*
X2249271Y4904587D01*
X2249271Y4950612D01*
X2245258Y4954625D01*
G37*
G36*
X1427175Y5348325D02*
G01*
X1423212Y5344312D01*
X1423212Y5298287D01*
X1427175Y5294274D01*
X1477264Y5294274D01*
X1481277Y5298287D01*
X1481277Y5344312D01*
X1477264Y5348325D01*
G37*
G36*
X1342136Y5348325D02*
G01*
X1338122Y5344312D01*
X1338122Y5298287D01*
X1342136Y5294274D01*
X1392224Y5294274D01*
X1396187Y5298287D01*
X1396187Y5344312D01*
X1392224Y5348325D01*
G37*
G36*
X1621536Y5348325D02*
G01*
X1617522Y5344312D01*
X1617522Y5298287D01*
X1621536Y5294274D01*
X1671624Y5294274D01*
X1675587Y5298287D01*
X1675587Y5344312D01*
X1671624Y5348325D01*
G37*
G36*
X1706575Y5348325D02*
G01*
X1702612Y5344312D01*
X1702612Y5298287D01*
X1706575Y5294274D01*
X1756664Y5294274D01*
X1760677Y5298287D01*
X1760677Y5344312D01*
X1756664Y5348325D01*
G37*
G36*
X3344926Y5678525D02*
G01*
X3340912Y5674512D01*
X3340912Y5628487D01*
X3344926Y5624474D01*
X3394964Y5624474D01*
X3398977Y5628487D01*
X3398977Y5674512D01*
X3394964Y5678525D01*
G37*
G36*
X3259836Y5678525D02*
G01*
X3255822Y5674512D01*
X3255822Y5628487D01*
X3259836Y5624474D01*
X3309874Y5624474D01*
X3313887Y5628487D01*
X3313887Y5674512D01*
X3309874Y5678525D01*
G37*
G36*
X2976626Y5678525D02*
G01*
X2972612Y5674512D01*
X2972612Y5628487D01*
X2976626Y5624474D01*
X3026664Y5624474D01*
X3030677Y5628487D01*
X3030677Y5674512D01*
X3026664Y5678525D01*
G37*
G36*
X2891536Y5678525D02*
G01*
X2887522Y5674512D01*
X2887522Y5628487D01*
X2891536Y5624474D01*
X2941574Y5624474D01*
X2945587Y5628487D01*
X2945587Y5674512D01*
X2941574Y5678525D01*
G37*
G36*
X2014118Y5594908D02*
G01*
X2009089Y5589879D01*
X2009089Y5509920D01*
X2014118Y5504891D01*
X2094077Y5504891D01*
X2099106Y5509920D01*
X2099106Y5532678D01*
X2062124Y5532678D01*
X2062124Y5565698D01*
X2099106Y5565698D01*
X2099106Y5589879D01*
X2094077Y5594908D01*
G37*
G36*
X2173122Y5594908D02*
G01*
X2168093Y5589879D01*
X2168093Y5567121D01*
X2205075Y5567121D01*
X2205075Y5534101D01*
X2168093Y5534101D01*
X2168093Y5509920D01*
X2173122Y5504891D01*
X2253081Y5504891D01*
X2258110Y5509920D01*
X2258110Y5589879D01*
X2253081Y5594908D01*
G37*
D10*
G01*
X1724964Y5827674D03*
G01*
X1724964Y5787669D03*
G01*
X1724964Y5747664D03*
G01*
X1724964Y5707684D03*
G01*
X1724964Y5667679D03*
G01*
X1724964Y5627674D03*
G01*
X1323035Y5627674D03*
G01*
X1323035Y5667679D03*
G01*
X1323035Y5707684D03*
G01*
X1323035Y5747664D03*
G01*
X1323035Y5787669D03*
G01*
X1323035Y5827674D03*
D11*
G01*
X1523992Y5727711D03*
D12*
G01*
X810463Y6716674D03*
G01*
X810463Y6616674D03*
G01*
X810463Y6516674D03*
G01*
X1119962Y6716674D03*
G01*
X1119962Y6616674D03*
G01*
X1119962Y6516674D03*
D13*
G01*
X965200Y6616700D03*
D14*
G01*
X5968898Y5691098D03*
G01*
X5968898Y5491098D03*
G01*
X5968898Y5291099D03*
G01*
X5968898Y5091099D03*
G01*
X5968898Y4891100D03*
G01*
X5968898Y4691100D03*
G01*
X5968898Y4491101D03*
G01*
X5968898Y4291101D03*
G01*
X4368901Y4291101D03*
G01*
X4368901Y4491101D03*
G01*
X4368901Y4691100D03*
G01*
X4368901Y4891100D03*
G01*
X4368901Y5091099D03*
G01*
X4368901Y5291099D03*
G01*
X4368901Y5491098D03*
G01*
X4368901Y5691098D03*
M02*
