G04 Layer: BottomLayer*
G04 EasyEDA v6.5.46, 2025-01-28 17:14:02*
G04 Gerber Generator version 0.2*
G04 Scale: 100 percent, Rotated: No, Reflected: No *
G04 Dimensions in millimeters *
G04 leading zeros omitted , absolute positions ,4 integer and 5 decimal *
%FSLAX45Y45*%
%MOMM*%

%AMMACRO1*21,1,$1,$2,0,0,$3*%
%ADD10C,0.1500*%
%ADD11C,0.3000*%
%ADD12C,0.2500*%
%ADD13MACRO1,0.8X0.8X90.0000*%
%ADD14R,0.6650X0.2800*%
%ADD15MACRO1,0.28X0.665X0.0000*%
%ADD16MACRO1,0.665X0.28X0.0000*%
%ADD17R,1.6800X1.6800*%
%ADD18MACRO1,0.54X0.5656X90.0000*%
%ADD19MACRO1,0.8X1.2X0.0000*%
%ADD20MACRO1,0.7X1.2X0.0000*%
%ADD21MACRO1,0.6X1X-0.0024*%
%ADD22MACRO1,0.5999X1.0001X-0.0024*%
%ADD23MACRO1,0.6X1X0.0000*%
%ADD24MACRO1,0.6X1X0.0024*%
%ADD25MACRO1,0.54X0.7901X-90.0000*%
%ADD26MACRO1,0.54X0.7901X90.0000*%
%ADD27MACRO1,0.54X0.5656X-90.0000*%
%ADD28MACRO1,0.864X0.8065X90.0000*%
%ADD29O,1.0999978000000001X1.6999966*%
%ADD30C,1.6000*%
%ADD31MACRO1,1.6998X1.6998X0.0000*%
%ADD32C,1.7000*%
%ADD33C,0.5000*%
%ADD34C,0.6200*%
%ADD35C,0.0178*%

%LPD*%
G36*
X3375101Y4736033D02*
G01*
X3371240Y4736795D01*
X3367938Y4738979D01*
X2722524Y5384393D01*
X2716682Y5389118D01*
X2710484Y5392267D01*
X2703677Y5394096D01*
X2696819Y5394604D01*
X2693416Y5395417D01*
X2690469Y5397398D01*
X2686761Y5400903D01*
X2679192Y5405932D01*
X2670759Y5409539D01*
X2661869Y5411571D01*
X2652776Y5411978D01*
X2643733Y5410758D01*
X2635046Y5407914D01*
X2627020Y5403596D01*
X2619908Y5397906D01*
X2613914Y5391048D01*
X2609240Y5383225D01*
X2606040Y5374690D01*
X2604414Y5365699D01*
X2604414Y5356606D01*
X2606040Y5347614D01*
X2609240Y5339080D01*
X2613914Y5331256D01*
X2619908Y5324398D01*
X2627020Y5318709D01*
X2635046Y5314391D01*
X2643733Y5311546D01*
X2652776Y5310327D01*
X2661869Y5310733D01*
X2670759Y5312765D01*
X2679192Y5316372D01*
X2682443Y5318506D01*
X2685592Y5319877D01*
X2689047Y5320131D01*
X2692400Y5319217D01*
X2695194Y5317236D01*
X2820009Y5192420D01*
X2822244Y5189118D01*
X2823006Y5185206D01*
X2822244Y5181346D01*
X2820009Y5178044D01*
X2816758Y5175808D01*
X2812846Y5175046D01*
X2635300Y5175046D01*
X2631541Y5175808D01*
X2628290Y5177891D01*
X2624582Y5181396D01*
X2616962Y5186426D01*
X2608580Y5190032D01*
X2599690Y5192064D01*
X2590596Y5192471D01*
X2581554Y5191252D01*
X2572867Y5188407D01*
X2564841Y5184089D01*
X2557729Y5178399D01*
X2551684Y5171541D01*
X2547010Y5163718D01*
X2543810Y5155184D01*
X2542184Y5146192D01*
X2542184Y5137099D01*
X2543810Y5128107D01*
X2547010Y5119573D01*
X2551684Y5111750D01*
X2557729Y5104892D01*
X2564841Y5099202D01*
X2572867Y5094884D01*
X2581554Y5092039D01*
X2590596Y5090820D01*
X2599690Y5091226D01*
X2608580Y5093258D01*
X2616962Y5096865D01*
X2624582Y5101894D01*
X2628290Y5105400D01*
X2631541Y5107533D01*
X2635300Y5108244D01*
X2802788Y5108244D01*
X2806649Y5107482D01*
X2809951Y5105247D01*
X2837942Y5077256D01*
X2840177Y5073954D01*
X2840939Y5070094D01*
X2840177Y5066182D01*
X2837942Y5062880D01*
X2834690Y5060696D01*
X2830779Y5059934D01*
X2682392Y5059934D01*
X2678633Y5060645D01*
X2675382Y5062728D01*
X2671673Y5066284D01*
X2664104Y5071313D01*
X2655671Y5074869D01*
X2646781Y5076901D01*
X2637688Y5077307D01*
X2628646Y5076088D01*
X2619959Y5073294D01*
X2611932Y5068976D01*
X2604820Y5063286D01*
X2598826Y5056428D01*
X2594152Y5048554D01*
X2590952Y5040020D01*
X2589326Y5031079D01*
X2589326Y5021630D01*
X2588514Y5017770D01*
X2586329Y5014468D01*
X2583027Y5012232D01*
X2579166Y5011470D01*
X2537409Y5011470D01*
X2533294Y5012334D01*
X2529890Y5014772D01*
X2527757Y5018379D01*
X2527249Y5022545D01*
X2527554Y5025898D01*
X2526741Y5034991D01*
X2524302Y5043779D01*
X2520391Y5052009D01*
X2515006Y5059375D01*
X2513228Y5061051D01*
X2510942Y5064404D01*
X2510129Y5068417D01*
X2510129Y5265013D01*
X2509316Y5272481D01*
X2507183Y5279085D01*
X2503627Y5285232D01*
X2500071Y5289448D01*
X2171293Y5618175D01*
X2169109Y5621477D01*
X2168347Y5625338D01*
X2168347Y6340246D01*
X2169109Y6344158D01*
X2171293Y6347460D01*
X2337562Y6513677D01*
X2341321Y6516065D01*
X2345791Y6516624D01*
X2350058Y6515150D01*
X2353259Y6512001D01*
X2354935Y6506616D01*
X2358542Y6492849D01*
X2363876Y6479692D01*
X2370886Y6467297D01*
X2379370Y6455918D01*
X2389225Y6445707D01*
X2400554Y6436715D01*
X2403246Y6433413D01*
X2404364Y6429349D01*
X2403703Y6425133D01*
X2401366Y6421577D01*
X2296668Y6316827D01*
X2291943Y6311036D01*
X2288794Y6304788D01*
X2286914Y6297930D01*
X2286508Y6292443D01*
X2286508Y5884570D01*
X2285847Y5880963D01*
X2284018Y5877864D01*
X2278735Y5871870D01*
X2274062Y5864047D01*
X2270861Y5855512D01*
X2269236Y5846521D01*
X2269236Y5837428D01*
X2270861Y5828436D01*
X2274062Y5819902D01*
X2278735Y5812078D01*
X2284780Y5805220D01*
X2291892Y5799531D01*
X2299919Y5795213D01*
X2308606Y5792368D01*
X2317648Y5791149D01*
X2326741Y5791555D01*
X2335631Y5793587D01*
X2344013Y5797194D01*
X2351633Y5802223D01*
X2358237Y5808522D01*
X2363571Y5815888D01*
X2367534Y5824118D01*
X2369972Y5832906D01*
X2370785Y5841949D01*
X2369972Y5851042D01*
X2367534Y5859830D01*
X2363571Y5868060D01*
X2358237Y5875426D01*
X2356459Y5877102D01*
X2354122Y5880455D01*
X2353310Y5884468D01*
X2353310Y6206236D01*
X2354173Y6210350D01*
X2356662Y6213754D01*
X2360269Y6215837D01*
X2364435Y6216345D01*
X2368448Y6215075D01*
X2371598Y6212281D01*
X2379370Y6201918D01*
X2389225Y6191707D01*
X2400350Y6182868D01*
X2412492Y6175502D01*
X2425496Y6169710D01*
X2439111Y6165697D01*
X2453132Y6163411D01*
X2467356Y6162954D01*
X2481478Y6164326D01*
X2495346Y6167475D01*
X2508707Y6172403D01*
X2521305Y6178956D01*
X2532938Y6187084D01*
X2543454Y6196634D01*
X2552649Y6207455D01*
X2560421Y6219393D01*
X2566568Y6232194D01*
X2571038Y6245656D01*
X2573782Y6259626D01*
X2574696Y6273800D01*
X2573782Y6287973D01*
X2571038Y6301943D01*
X2566568Y6315405D01*
X2565196Y6318300D01*
X2564180Y6322364D01*
X2564892Y6326428D01*
X2567178Y6329883D01*
X2582519Y6345275D01*
X2585821Y6347510D01*
X2589733Y6348272D01*
X2615336Y6348272D01*
X2619451Y6347409D01*
X2622854Y6344920D01*
X2624988Y6341313D01*
X2625445Y6337147D01*
X2624226Y6333134D01*
X2618333Y6322669D01*
X2668930Y6322669D01*
X2668930Y6338112D01*
X2669743Y6341973D01*
X2671927Y6345275D01*
X2675229Y6347510D01*
X2679090Y6348272D01*
X2756509Y6348272D01*
X2760370Y6347510D01*
X2763672Y6345275D01*
X2765856Y6341973D01*
X2766669Y6338112D01*
X2766669Y6322669D01*
X2786837Y6322669D01*
X2790698Y6321856D01*
X2794000Y6319672D01*
X2797708Y6315964D01*
X2799943Y6312662D01*
X2800705Y6308750D01*
X2800705Y6235090D01*
X2799943Y6231229D01*
X2797708Y6227927D01*
X2794406Y6225743D01*
X2790545Y6224930D01*
X2766669Y6224930D01*
X2766669Y6174486D01*
X2775305Y6178956D01*
X2784703Y6185560D01*
X2788767Y6187236D01*
X2793187Y6187033D01*
X2797098Y6185001D01*
X2799740Y6181496D01*
X2800705Y6177229D01*
X2800705Y5487162D01*
X2801467Y5479694D01*
X2803652Y5473039D01*
X2807208Y5466892D01*
X2810764Y5462676D01*
X2814828Y5458663D01*
X2817114Y5455056D01*
X2817774Y5450890D01*
X2816656Y5446776D01*
X2813964Y5443524D01*
X2811678Y5441645D01*
X2805633Y5434787D01*
X2800959Y5426964D01*
X2797759Y5418429D01*
X2796133Y5409438D01*
X2796133Y5400344D01*
X2797759Y5391353D01*
X2800959Y5382818D01*
X2805633Y5374995D01*
X2810916Y5369001D01*
X2812745Y5365902D01*
X2813405Y5362295D01*
X2813405Y5342382D01*
X2814167Y5334914D01*
X2816352Y5328259D01*
X2819908Y5322112D01*
X2823464Y5317896D01*
X3279495Y4861915D01*
X3285286Y4857191D01*
X3291535Y4854041D01*
X3298393Y4852162D01*
X3303879Y4851755D01*
X3363722Y4851755D01*
X3371189Y4852517D01*
X3375761Y4853279D01*
X3379470Y4852314D01*
X3382518Y4850079D01*
X3384550Y4846878D01*
X3385261Y4843119D01*
X3385261Y4746193D01*
X3384499Y4742281D01*
X3382314Y4738979D01*
X3379012Y4736795D01*
G37*

%LPC*%
G36*
X2668930Y6174384D02*
G01*
X2668930Y6224930D01*
X2618333Y6224930D01*
X2624886Y6213297D01*
X2633370Y6201918D01*
X2643225Y6191707D01*
X2654350Y6182868D01*
X2666492Y6175502D01*
G37*

%LPD*%
G36*
X2547467Y4721352D02*
G01*
X2543251Y4722723D01*
X2540000Y4725720D01*
X2538323Y4729784D01*
X2538577Y4734204D01*
X2539492Y4737608D01*
X2540304Y4746701D01*
X2539492Y4755794D01*
X2537053Y4764582D01*
X2533142Y4772812D01*
X2527757Y4780178D01*
X2521153Y4786477D01*
X2513584Y4791506D01*
X2505151Y4795062D01*
X2496261Y4797094D01*
X2489758Y4797399D01*
X2486152Y4798263D01*
X2483053Y4800346D01*
X2465730Y4817668D01*
X2463495Y4820970D01*
X2462733Y4824882D01*
X2462733Y4891074D01*
X2463546Y4895088D01*
X2465882Y4898440D01*
X2467660Y4900117D01*
X2472994Y4907483D01*
X2476957Y4915712D01*
X2479395Y4924501D01*
X2480665Y4937760D01*
X2482799Y4941366D01*
X2486202Y4943805D01*
X2490317Y4944668D01*
X2524201Y4944668D01*
X2528062Y4943906D01*
X2531313Y4941773D01*
X2533548Y4938572D01*
X2534361Y4934762D01*
X2573680Y4934762D01*
X2574544Y4938572D01*
X2576779Y4941773D01*
X2580030Y4943906D01*
X2583840Y4944668D01*
X2615742Y4944668D01*
X2619552Y4943906D01*
X2622854Y4941773D01*
X2625039Y4938572D01*
X2625902Y4934762D01*
X2633218Y4934762D01*
X2637129Y4934000D01*
X2640431Y4931765D01*
X2642616Y4928463D01*
X2643378Y4924602D01*
X2643378Y4905197D01*
X2642616Y4901336D01*
X2640431Y4898034D01*
X2637129Y4895799D01*
X2633218Y4895037D01*
X2625902Y4895037D01*
X2625902Y4861966D01*
X2638704Y4861966D01*
X2645054Y4862728D01*
X2650947Y4864760D01*
X2654300Y4865319D01*
X2657652Y4864760D01*
X2661107Y4863541D01*
X2664663Y4861407D01*
X2667050Y4858054D01*
X2667914Y4853990D01*
X2667914Y4840884D01*
X2667152Y4836972D01*
X2664917Y4833721D01*
X2555544Y4724298D01*
X2551836Y4721961D01*
G37*

%LPC*%
G36*
X2560878Y4861966D02*
G01*
X2573680Y4861966D01*
X2573680Y4895037D01*
X2534361Y4895037D01*
X2534361Y4888484D01*
X2535072Y4882134D01*
X2537002Y4876698D01*
X2540101Y4871770D01*
X2544165Y4867706D01*
X2549093Y4864608D01*
X2554528Y4862728D01*
G37*

%LPD*%
G36*
X2484577Y4657242D02*
G01*
X2480818Y4657852D01*
X2477516Y4659782D01*
X2475179Y4662830D01*
X2474163Y4666488D01*
X2473401Y4674616D01*
X2470861Y4683810D01*
X2470607Y4687773D01*
X2471877Y4691583D01*
X2474468Y4694580D01*
X2478074Y4696307D01*
X2482037Y4696561D01*
X2487168Y4695901D01*
X2496261Y4696307D01*
X2502357Y4697679D01*
X2506726Y4697730D01*
X2510688Y4695952D01*
X2513533Y4692700D01*
X2514752Y4688535D01*
X2514142Y4684268D01*
X2511806Y4680610D01*
X2491435Y4660239D01*
X2488285Y4658055D01*
G37*

%LPD*%
G36*
X2403246Y4575911D02*
G01*
X2399487Y4576521D01*
X2396185Y4578451D01*
X2393848Y4581499D01*
X2392832Y4585157D01*
X2392375Y4590186D01*
X2389936Y4598974D01*
X2385923Y4607255D01*
X2384958Y4611370D01*
X2385720Y4615535D01*
X2388057Y4619040D01*
X2391664Y4621276D01*
X2395880Y4621834D01*
X2399893Y4620615D01*
X2403348Y4618786D01*
X2412034Y4615942D01*
X2425039Y4614062D01*
X2428443Y4611928D01*
X2430780Y4608626D01*
X2431592Y4604715D01*
X2430830Y4600752D01*
X2428646Y4597400D01*
X2410104Y4578908D01*
X2406954Y4576724D01*
G37*

%LPD*%
G36*
X2551023Y4520742D02*
G01*
X2547162Y4522470D01*
X2544318Y4525568D01*
X2542997Y4529582D01*
X2541524Y4540148D01*
X2542387Y4543856D01*
X2544521Y4546955D01*
X2548839Y4551324D01*
X2552090Y4553458D01*
X2555849Y4554270D01*
X2559710Y4553610D01*
X2562961Y4551527D01*
X2565247Y4548378D01*
X2566162Y4544618D01*
X2565603Y4540758D01*
X2563926Y4535830D01*
X2563215Y4529582D01*
X2561894Y4525568D01*
X2559050Y4522470D01*
X2555189Y4520742D01*
G37*

%LPD*%
G36*
X2299512Y4472178D02*
G01*
X2295753Y4472787D01*
X2292451Y4474718D01*
X2290114Y4477766D01*
X2289098Y4481423D01*
X2288387Y4489196D01*
X2285949Y4497984D01*
X2281986Y4506214D01*
X2276652Y4513580D01*
X2269185Y4520641D01*
X2266797Y4524044D01*
X2265984Y4528058D01*
X2265984Y4691684D01*
X2266746Y4695545D01*
X2268982Y4698847D01*
X2272284Y4701032D01*
X2276144Y4701844D01*
X2280056Y4701032D01*
X2283358Y4698847D01*
X2305913Y4676241D01*
X2308148Y4672939D01*
X2308910Y4669078D01*
X2308910Y4623714D01*
X2308250Y4620107D01*
X2306421Y4617008D01*
X2301138Y4611014D01*
X2296464Y4603191D01*
X2293264Y4594656D01*
X2291638Y4585665D01*
X2291638Y4576572D01*
X2293264Y4567580D01*
X2296464Y4559046D01*
X2301138Y4551222D01*
X2307183Y4544364D01*
X2314295Y4538675D01*
X2322322Y4534357D01*
X2331008Y4531512D01*
X2338628Y4530496D01*
X2342845Y4528921D01*
X2345944Y4525721D01*
X2347366Y4521454D01*
X2346858Y4517034D01*
X2344470Y4513224D01*
X2306370Y4475124D01*
X2303221Y4472990D01*
G37*

%LPD*%
G36*
X2388006Y4417822D02*
G01*
X2383790Y4419346D01*
X2380589Y4422546D01*
X2379116Y4426813D01*
X2379624Y4431284D01*
X2382012Y4435094D01*
X2388412Y4441494D01*
X2391714Y4443679D01*
X2395575Y4444441D01*
X2414371Y4444441D01*
X2414371Y4463237D01*
X2415133Y4467098D01*
X2417368Y4470400D01*
X2445867Y4498898D01*
X2449118Y4501134D01*
X2453030Y4501896D01*
X2456942Y4501134D01*
X2460193Y4498898D01*
X2462428Y4495596D01*
X2463190Y4491736D01*
X2463190Y4481169D01*
X2462428Y4477359D01*
X2460345Y4474108D01*
X2460345Y4444441D01*
X2468372Y4444441D01*
X2471166Y4444034D01*
X2473756Y4442917D01*
X2478836Y4439716D01*
X2481935Y4436668D01*
X2483510Y4432604D01*
X2483205Y4428286D01*
X2481122Y4424476D01*
X2477668Y4421835D01*
X2473401Y4420920D01*
X2404668Y4421022D01*
X2398318Y4420311D01*
X2392527Y4418279D01*
G37*

%LPD*%
G36*
X2844952Y4411726D02*
G01*
X2840888Y4412437D01*
X2837434Y4414723D01*
X2803194Y4448911D01*
X2799537Y4453534D01*
X2794406Y4458106D01*
X2788361Y4461611D01*
X2781757Y4463796D01*
X2778404Y4464304D01*
X2772054Y4464507D01*
X2769412Y4464964D01*
X2766974Y4466082D01*
X2763316Y4468368D01*
X2757830Y4470298D01*
X2751531Y4471009D01*
X2703169Y4471009D01*
X2699359Y4471771D01*
X2696108Y4473854D01*
X2666441Y4473854D01*
X2666441Y4465828D01*
X2666034Y4463034D01*
X2664917Y4460443D01*
X2661716Y4455363D01*
X2658668Y4452264D01*
X2654604Y4450689D01*
X2650286Y4450994D01*
X2646476Y4453077D01*
X2643835Y4456531D01*
X2642920Y4460798D01*
X2643022Y4529531D01*
X2643479Y4533696D01*
X2645613Y4537354D01*
X2649016Y4539792D01*
X2653131Y4540656D01*
X2656281Y4540656D01*
X2660192Y4539894D01*
X2663494Y4537710D01*
X2665679Y4534408D01*
X2666441Y4530496D01*
X2666441Y4519828D01*
X2693009Y4519828D01*
X2692958Y4530496D01*
X2693720Y4534408D01*
X2695905Y4537710D01*
X2699207Y4539894D01*
X2703118Y4540656D01*
X3032099Y4540656D01*
X3036011Y4539894D01*
X3039313Y4537710D01*
X3079292Y4497679D01*
X3085134Y4492955D01*
X3091332Y4489805D01*
X3098190Y4487976D01*
X3103676Y4487519D01*
X3135172Y4487519D01*
X3138525Y4486960D01*
X3141522Y4485335D01*
X3143758Y4482795D01*
X3146755Y4478070D01*
X3150819Y4474006D01*
X3155746Y4470908D01*
X3161182Y4469028D01*
X3167481Y4468266D01*
X3169361Y4468266D01*
X3173272Y4467504D01*
X3176574Y4465320D01*
X3178759Y4462018D01*
X3179521Y4458106D01*
X3179521Y4449165D01*
X3180435Y4444288D01*
X3180232Y4439920D01*
X3178200Y4436008D01*
X3174746Y4433316D01*
X3170428Y4432350D01*
X2907893Y4432350D01*
X2902051Y4431842D01*
X2897378Y4432452D01*
X2888284Y4432858D01*
X2879242Y4431639D01*
X2870555Y4428794D01*
X2862529Y4424476D01*
X2855417Y4418787D01*
X2852267Y4415180D01*
X2848965Y4412691D01*
G37*

%LPD*%
G36*
X2016861Y4388916D02*
G01*
X2012899Y4389729D01*
X2009597Y4392015D01*
X2007412Y4395419D01*
X2006701Y4399432D01*
X2007666Y4403344D01*
X2010054Y4406595D01*
X2013508Y4408678D01*
X2020722Y4411573D01*
X2024481Y4411573D01*
X2031695Y4408678D01*
X2035149Y4406595D01*
X2037588Y4403344D01*
X2038502Y4399432D01*
X2037842Y4395419D01*
X2035657Y4392015D01*
X2032304Y4389729D01*
X2028342Y4388916D01*
G37*

%LPD*%
G36*
X2058924Y4388916D02*
G01*
X2055012Y4389729D01*
X2051710Y4391914D01*
X2049525Y4395216D01*
X2048764Y4399076D01*
X2048764Y4451604D01*
X2041194Y4451604D01*
X2037283Y4452366D01*
X2033981Y4454601D01*
X2031796Y4457852D01*
X2031034Y4461764D01*
X2031034Y4504131D01*
X2031796Y4508042D01*
X2033981Y4511344D01*
X2037283Y4513529D01*
X2041194Y4514291D01*
X2048764Y4514291D01*
X2048764Y4558842D01*
X2040686Y4558842D01*
X2034336Y4558131D01*
X2028901Y4556252D01*
X2024888Y4554372D01*
X2021484Y4554169D01*
X2018182Y4555134D01*
X2014270Y4557014D01*
X2011222Y4559249D01*
X2009241Y4562449D01*
X2008530Y4566158D01*
X2008530Y4783836D01*
X2009292Y4787696D01*
X2011476Y4790998D01*
X2061667Y4841189D01*
X2066493Y4847132D01*
X2068880Y4851552D01*
X2070150Y4855260D01*
X2071979Y4858613D01*
X2074976Y4861001D01*
X2078634Y4862118D01*
X2083663Y4862728D01*
X2089556Y4864760D01*
X2092909Y4865319D01*
X2096312Y4864760D01*
X2102205Y4862728D01*
X2107234Y4862118D01*
X2110994Y4860950D01*
X2114042Y4858410D01*
X2115870Y4854905D01*
X2116683Y4852162D01*
X2117039Y4848352D01*
X2115972Y4844694D01*
X2112670Y4838192D01*
X2110841Y4831334D01*
X2110384Y4825847D01*
X2110384Y4577486D01*
X2111197Y4569968D01*
X2110638Y4565497D01*
X2108250Y4561687D01*
X2104440Y4559300D01*
X2099513Y4558842D01*
X2091436Y4558842D01*
X2091436Y4514291D01*
X2099005Y4514291D01*
X2102916Y4513529D01*
X2106218Y4511344D01*
X2108403Y4508042D01*
X2109165Y4504131D01*
X2109165Y4461764D01*
X2108403Y4457852D01*
X2106218Y4454601D01*
X2102916Y4452366D01*
X2099005Y4451604D01*
X2091436Y4451604D01*
X2091436Y4399076D01*
X2090674Y4395216D01*
X2088489Y4391914D01*
X2085187Y4389729D01*
X2081275Y4388916D01*
G37*

%LPD*%
G36*
X2206853Y4388916D02*
G01*
X2202891Y4389729D01*
X2199538Y4392015D01*
X2197354Y4395419D01*
X2196693Y4399432D01*
X2197608Y4403344D01*
X2199995Y4406595D01*
X2203500Y4408678D01*
X2206294Y4409643D01*
X2211222Y4412742D01*
X2215286Y4416856D01*
X2218385Y4421733D01*
X2220620Y4426407D01*
X2223211Y4428693D01*
X2226411Y4430014D01*
X2229815Y4430166D01*
X2237282Y4429201D01*
X2241499Y4427677D01*
X2244648Y4424476D01*
X2246122Y4420209D01*
X2245563Y4415739D01*
X2243175Y4411980D01*
X2223160Y4391914D01*
X2219858Y4389729D01*
X2215946Y4388916D01*
G37*

%LPD*%
G36*
X2111857Y4388916D02*
G01*
X2107895Y4389729D01*
X2104542Y4392015D01*
X2102358Y4395419D01*
X2101697Y4399432D01*
X2102612Y4403344D01*
X2105050Y4406595D01*
X2108504Y4408678D01*
X2115718Y4411573D01*
X2119477Y4411573D01*
X2126691Y4408678D01*
X2130145Y4406595D01*
X2132533Y4403344D01*
X2133498Y4399432D01*
X2132787Y4395419D01*
X2130653Y4392015D01*
X2127300Y4389729D01*
X2123338Y4388916D01*
G37*

%LPD*%
G36*
X2578100Y4272584D02*
G01*
X2572867Y4273804D01*
X2566517Y4274515D01*
X2539898Y4274515D01*
X2536037Y4275277D01*
X2532735Y4277461D01*
X2530500Y4280763D01*
X2529738Y4284675D01*
X2529738Y4307738D01*
X2506675Y4307738D01*
X2502763Y4308500D01*
X2499461Y4310735D01*
X2497277Y4314037D01*
X2496515Y4317898D01*
X2496515Y4344517D01*
X2495804Y4350867D01*
X2494584Y4356100D01*
X2495804Y4361332D01*
X2496515Y4367682D01*
X2496515Y4394301D01*
X2497277Y4398162D01*
X2499461Y4401464D01*
X2502763Y4403699D01*
X2506675Y4404461D01*
X2529738Y4404461D01*
X2529738Y4435703D01*
X2530500Y4439615D01*
X2532735Y4442917D01*
X2537307Y4447489D01*
X2540406Y4452366D01*
X2542286Y4457852D01*
X2542997Y4464151D01*
X2544318Y4468114D01*
X2547162Y4471263D01*
X2551023Y4472940D01*
X2555189Y4472940D01*
X2559050Y4471263D01*
X2561894Y4468114D01*
X2563215Y4464151D01*
X2563926Y4457852D01*
X2565806Y4452366D01*
X2568905Y4447489D01*
X2572969Y4443374D01*
X2577896Y4440326D01*
X2583332Y4438396D01*
X2589682Y4437684D01*
X2616301Y4437684D01*
X2620162Y4436922D01*
X2623464Y4434738D01*
X2625699Y4431436D01*
X2626461Y4427524D01*
X2626461Y4404461D01*
X2649524Y4404461D01*
X2653436Y4403699D01*
X2656738Y4401464D01*
X2658922Y4398162D01*
X2659684Y4394301D01*
X2659684Y4367682D01*
X2660396Y4361332D01*
X2661615Y4356100D01*
X2660396Y4350867D01*
X2659684Y4344517D01*
X2659684Y4317898D01*
X2658922Y4314037D01*
X2656738Y4310735D01*
X2653436Y4308500D01*
X2649524Y4307738D01*
X2626461Y4307738D01*
X2626461Y4284675D01*
X2625699Y4280763D01*
X2623464Y4277461D01*
X2620162Y4275277D01*
X2616301Y4274515D01*
X2589682Y4274515D01*
X2583332Y4273804D01*
X2581452Y4273143D01*
G37*

%LPD*%
G36*
X736092Y3025902D02*
G01*
X732180Y3026664D01*
X728878Y3028899D01*
X726694Y3032201D01*
X725932Y3036062D01*
X725932Y3185363D01*
X726440Y3188563D01*
X727964Y3191459D01*
X727964Y3257905D01*
X726440Y3260801D01*
X725932Y3264001D01*
X725932Y3341420D01*
X726440Y3344621D01*
X727964Y3347516D01*
X727964Y3413963D01*
X726440Y3416808D01*
X725932Y3420059D01*
X725932Y3565347D01*
X726440Y3568598D01*
X727964Y3571494D01*
X727964Y3637889D01*
X726440Y3640785D01*
X725932Y3644036D01*
X725932Y3721404D01*
X726440Y3724605D01*
X727964Y3727500D01*
X727964Y3793947D01*
X726440Y3796842D01*
X725932Y3800043D01*
X725932Y6763918D01*
X726694Y6767830D01*
X728878Y6771081D01*
X732180Y6773316D01*
X736092Y6774078D01*
X1197406Y6774078D01*
X1201318Y6773316D01*
X1204620Y6771081D01*
X1206804Y6767779D01*
X1207566Y6763918D01*
X1206804Y6760006D01*
X1204569Y6756704D01*
X1119835Y6672376D01*
X1115060Y6666534D01*
X1111910Y6660337D01*
X1110030Y6653479D01*
X1109573Y6647891D01*
X1109573Y5690108D01*
X1110386Y5682640D01*
X1112520Y5676036D01*
X1116025Y5669991D01*
X1122172Y5663133D01*
X1123797Y5660796D01*
X1124661Y5658053D01*
X1126083Y5649874D01*
X1129284Y5640781D01*
X1133957Y5632348D01*
X1140053Y5624830D01*
X1147267Y5618480D01*
X1155496Y5613400D01*
X1164437Y5609844D01*
X1173886Y5607812D01*
X1183538Y5607354D01*
X1193088Y5608624D01*
X1202283Y5611418D01*
X1210919Y5615787D01*
X1218692Y5621528D01*
X1225346Y5628487D01*
X1230731Y5636463D01*
X1234744Y5645251D01*
X1237132Y5654598D01*
X1237996Y5664200D01*
X1237132Y5673801D01*
X1235456Y5680405D01*
X1235303Y5684875D01*
X1237081Y5688990D01*
X1240485Y5691886D01*
X1244803Y5693105D01*
X1251508Y5693410D01*
X1260398Y5695442D01*
X1268831Y5698998D01*
X1276400Y5704027D01*
X1283004Y5710326D01*
X1288389Y5717692D01*
X1292301Y5725922D01*
X1294739Y5734710D01*
X1295603Y5744108D01*
X1296517Y5747512D01*
X1298549Y5750407D01*
X1394104Y5845962D01*
X1397406Y5848197D01*
X1401318Y5848959D01*
X1744370Y5848959D01*
X1748688Y5847994D01*
X1752142Y5845302D01*
X1754174Y5841390D01*
X1754378Y5836970D01*
X1753514Y5832246D01*
X1753514Y5828487D01*
X1752701Y5824575D01*
X1750517Y5821273D01*
X1304290Y5375046D01*
X1300784Y5372760D01*
X1286459Y5370880D01*
X1277772Y5368086D01*
X1269746Y5363768D01*
X1262634Y5358079D01*
X1256639Y5351221D01*
X1251966Y5343347D01*
X1248765Y5334812D01*
X1247140Y5325872D01*
X1247140Y5316728D01*
X1248765Y5307787D01*
X1251966Y5299252D01*
X1256639Y5291378D01*
X1262634Y5284520D01*
X1264564Y5282996D01*
X1267206Y5279796D01*
X1268374Y5275834D01*
X1267815Y5271719D01*
X1265682Y5268163D01*
X1262278Y5265724D01*
X1258214Y5264912D01*
X1019860Y5264912D01*
X1016609Y5265420D01*
X1013663Y5266994D01*
X1001979Y5280253D01*
X991565Y5289397D01*
X980033Y5297119D01*
X967638Y5303215D01*
X954481Y5307685D01*
X940917Y5310378D01*
X927100Y5311292D01*
X913282Y5310378D01*
X899718Y5307685D01*
X886561Y5303215D01*
X874166Y5297119D01*
X862634Y5289397D01*
X852220Y5280253D01*
X843076Y5269839D01*
X835406Y5258358D01*
X829259Y5245912D01*
X824839Y5232806D01*
X822096Y5219242D01*
X821232Y5205374D01*
X822096Y5191556D01*
X824839Y5177993D01*
X829259Y5164886D01*
X835406Y5152440D01*
X843076Y5140960D01*
X852220Y5130546D01*
X862634Y5121402D01*
X873912Y5113832D01*
X876757Y5111038D01*
X878281Y5107381D01*
X878281Y5103418D01*
X876757Y5099761D01*
X873912Y5096967D01*
X862634Y5089398D01*
X852220Y5080254D01*
X843076Y5069840D01*
X835406Y5058359D01*
X832154Y5051755D01*
X880770Y5051755D01*
X880770Y5095392D01*
X881481Y5099151D01*
X883564Y5102352D01*
X886663Y5104587D01*
X890371Y5105501D01*
X894181Y5104993D01*
X899718Y5103114D01*
X913282Y5100421D01*
X927100Y5099507D01*
X940917Y5100421D01*
X954481Y5103114D01*
X960018Y5104993D01*
X963828Y5105501D01*
X967536Y5104587D01*
X970635Y5102352D01*
X972718Y5099151D01*
X973429Y5095392D01*
X973429Y5051755D01*
X1022045Y5051755D01*
X1018794Y5058359D01*
X1011123Y5069840D01*
X1001979Y5080254D01*
X991565Y5089398D01*
X980287Y5096967D01*
X977442Y5099761D01*
X975969Y5103418D01*
X975969Y5107381D01*
X977442Y5111038D01*
X980287Y5113832D01*
X991565Y5121402D01*
X1001979Y5130546D01*
X1011123Y5140960D01*
X1018794Y5152440D01*
X1024940Y5164886D01*
X1029360Y5177993D01*
X1031748Y5189880D01*
X1033018Y5193131D01*
X1035253Y5195773D01*
X1038301Y5197500D01*
X1041704Y5198059D01*
X1962861Y5198059D01*
X1966722Y5197297D01*
X1970024Y5195112D01*
X1972259Y5191810D01*
X1973021Y5187899D01*
X1973021Y5167630D01*
X1972259Y5163769D01*
X1970024Y5160467D01*
X1651203Y4841595D01*
X1646478Y4835804D01*
X1643329Y4829556D01*
X1641449Y4822698D01*
X1641043Y4817211D01*
X1641043Y4497628D01*
X1640382Y4494022D01*
X1638554Y4490923D01*
X1633270Y4484928D01*
X1628597Y4477105D01*
X1625396Y4468571D01*
X1623771Y4459579D01*
X1623771Y4450486D01*
X1625396Y4441494D01*
X1628597Y4432960D01*
X1633270Y4425137D01*
X1639316Y4418279D01*
X1646428Y4412589D01*
X1654454Y4408271D01*
X1663141Y4405426D01*
X1672183Y4404207D01*
X1681276Y4404614D01*
X1690166Y4406646D01*
X1698548Y4410252D01*
X1706168Y4415282D01*
X1712772Y4421581D01*
X1718106Y4428947D01*
X1722069Y4437176D01*
X1724507Y4445965D01*
X1725320Y4455007D01*
X1724507Y4464100D01*
X1722069Y4472889D01*
X1718106Y4481118D01*
X1712772Y4488484D01*
X1710994Y4490161D01*
X1708657Y4493514D01*
X1707845Y4497527D01*
X1707845Y4799584D01*
X1708607Y4803444D01*
X1710842Y4806746D01*
X2029764Y5125720D01*
X2033066Y5127904D01*
X2036978Y5128666D01*
X2077364Y5128666D01*
X2083663Y5129428D01*
X2089556Y5131460D01*
X2092909Y5132019D01*
X2096312Y5131460D01*
X2102205Y5129428D01*
X2108504Y5128666D01*
X2180793Y5128666D01*
X2184654Y5127904D01*
X2187956Y5125720D01*
X2190191Y5122418D01*
X2190953Y5118506D01*
X2190953Y5088585D01*
X2190191Y5084724D01*
X2187956Y5081422D01*
X2155596Y5049062D01*
X2152091Y5046776D01*
X2137816Y5044897D01*
X2129129Y5042103D01*
X2121103Y5037785D01*
X2113991Y5032095D01*
X2107946Y5025237D01*
X2103272Y5017363D01*
X2100072Y5008829D01*
X2098446Y4999888D01*
X2098446Y4990744D01*
X2100072Y4981803D01*
X2101291Y4978603D01*
X2101900Y4974844D01*
X2101138Y4971084D01*
X2099056Y4967935D01*
X2095906Y4965750D01*
X2092198Y4964887D01*
X2088388Y4965446D01*
X2083663Y4967071D01*
X2077364Y4967782D01*
X1999488Y4967782D01*
X1993188Y4967071D01*
X1987702Y4965192D01*
X1982825Y4962093D01*
X1978710Y4958029D01*
X1975612Y4953101D01*
X1973732Y4947666D01*
X1973021Y4941316D01*
X1973021Y4888484D01*
X1973732Y4882134D01*
X1975612Y4876698D01*
X1978710Y4871770D01*
X1981047Y4869434D01*
X1983282Y4866132D01*
X1984044Y4862271D01*
X1983282Y4858359D01*
X1981047Y4855057D01*
X1951837Y4825847D01*
X1947113Y4820056D01*
X1943963Y4813808D01*
X1942134Y4806950D01*
X1941677Y4801463D01*
X1941677Y4566158D01*
X1940864Y4562094D01*
X1938426Y4558741D01*
X1933905Y4556252D01*
X1928977Y4553153D01*
X1924913Y4549038D01*
X1921814Y4544161D01*
X1919935Y4538675D01*
X1919224Y4532376D01*
X1919224Y4433519D01*
X1919935Y4427220D01*
X1921814Y4421733D01*
X1924913Y4416856D01*
X1928977Y4412742D01*
X1933905Y4409643D01*
X1936699Y4408678D01*
X1940153Y4406595D01*
X1942541Y4403344D01*
X1943506Y4399432D01*
X1942795Y4395419D01*
X1940661Y4392015D01*
X1937308Y4389729D01*
X1933346Y4388916D01*
X1919274Y4388916D01*
X1910842Y4388104D01*
X1903171Y4385767D01*
X1896110Y4382008D01*
X1889506Y4376623D01*
X1881479Y4368546D01*
X1876043Y4361942D01*
X1872284Y4354880D01*
X1869948Y4347210D01*
X1869135Y4338777D01*
X1869135Y4308551D01*
X1868373Y4304690D01*
X1866138Y4301388D01*
X1585061Y4020312D01*
X1581962Y4018178D01*
X1578254Y4017314D01*
X1574546Y4017873D01*
X1571244Y4019804D01*
X1568907Y4022750D01*
X1567789Y4026357D01*
X1567027Y4033265D01*
X1565097Y4038701D01*
X1561998Y4043629D01*
X1557934Y4047693D01*
X1553006Y4050792D01*
X1547571Y4052671D01*
X1541221Y4053382D01*
X1528419Y4053382D01*
X1528419Y4020362D01*
X1560576Y4020362D01*
X1564487Y4019600D01*
X1567789Y4017365D01*
X1569974Y4014063D01*
X1570736Y4010202D01*
X1569974Y4006291D01*
X1567789Y4002989D01*
X1548384Y3983634D01*
X1545082Y3981399D01*
X1541221Y3980637D01*
X1527810Y3980637D01*
X1525676Y3977132D01*
X1522323Y3974693D01*
X1518259Y3973880D01*
X1486357Y3973880D01*
X1482293Y3974693D01*
X1478940Y3977132D01*
X1476806Y3980637D01*
X1468882Y3980637D01*
X1464970Y3981399D01*
X1461668Y3983634D01*
X1459484Y3986936D01*
X1458722Y3990797D01*
X1458722Y4010202D01*
X1459484Y4014063D01*
X1461668Y4017365D01*
X1464970Y4019600D01*
X1468882Y4020362D01*
X1476197Y4020362D01*
X1476197Y4053382D01*
X1463395Y4053382D01*
X1457045Y4052671D01*
X1451152Y4050639D01*
X1447800Y4050080D01*
X1444447Y4050639D01*
X1438554Y4052671D01*
X1432204Y4053382D01*
X1354378Y4053382D01*
X1348028Y4052671D01*
X1342593Y4050792D01*
X1337665Y4047693D01*
X1333601Y4043629D01*
X1330502Y4038701D01*
X1328572Y4033265D01*
X1327861Y4026915D01*
X1327861Y3974084D01*
X1328572Y3967734D01*
X1330502Y3962298D01*
X1332636Y3957878D01*
X1332788Y3954475D01*
X1331874Y3951173D01*
X1329893Y3948429D01*
X1315212Y3933748D01*
X1309827Y3927144D01*
X1306017Y3920083D01*
X1303731Y3912412D01*
X1302867Y3903979D01*
X1302867Y3800805D01*
X1302156Y3797046D01*
X1300073Y3793794D01*
X1296924Y3791559D01*
X1293164Y3790645D01*
X1289354Y3791204D01*
X1284020Y3793083D01*
X1280464Y3795217D01*
X1278026Y3798620D01*
X1277213Y3802684D01*
X1277213Y4254601D01*
X1277975Y4258513D01*
X1280160Y4261815D01*
X1440484Y4422089D01*
X1445260Y4428032D01*
X1447647Y4432401D01*
X1449730Y4438853D01*
X1451152Y4441596D01*
X1453286Y4443831D01*
X1457147Y4445660D01*
X1460500Y4446219D01*
X1463852Y4445660D01*
X1469745Y4443628D01*
X1476044Y4442866D01*
X1483309Y4442866D01*
X1483309Y4475937D01*
X1481582Y4475937D01*
X1477670Y4476699D01*
X1474368Y4478934D01*
X1472184Y4482236D01*
X1471422Y4486097D01*
X1471422Y4505502D01*
X1472184Y4509363D01*
X1474368Y4512665D01*
X1477670Y4514900D01*
X1481582Y4515662D01*
X1483309Y4515662D01*
X1483309Y4548682D01*
X1476044Y4548682D01*
X1469745Y4547971D01*
X1463852Y4545939D01*
X1460500Y4545380D01*
X1457147Y4545939D01*
X1451254Y4547971D01*
X1444955Y4548682D01*
X1389481Y4548682D01*
X1383182Y4547971D01*
X1377746Y4546092D01*
X1372819Y4542993D01*
X1368755Y4538929D01*
X1365656Y4534001D01*
X1363726Y4528566D01*
X1363014Y4522216D01*
X1363014Y4469384D01*
X1363726Y4463034D01*
X1365656Y4457598D01*
X1367434Y4454753D01*
X1368755Y4451604D01*
X1368958Y4448200D01*
X1367993Y4444898D01*
X1366012Y4442155D01*
X1220520Y4296664D01*
X1215796Y4290822D01*
X1212646Y4284624D01*
X1210818Y4277766D01*
X1210360Y4272280D01*
X1210360Y3802684D01*
X1209548Y3798620D01*
X1207109Y3795217D01*
X1203553Y3793083D01*
X1197152Y3790848D01*
X1193800Y3790289D01*
X1190447Y3790848D01*
X1183995Y3793083D01*
X1180439Y3795217D01*
X1178052Y3798620D01*
X1177188Y3802684D01*
X1177188Y4297578D01*
X1176426Y4305046D01*
X1174242Y4311650D01*
X1170686Y4317796D01*
X1167130Y4322013D01*
X1046987Y4442155D01*
X1045006Y4444949D01*
X1044041Y4448200D01*
X1044244Y4451604D01*
X1045565Y4454753D01*
X1047343Y4457598D01*
X1049274Y4463034D01*
X1049985Y4469384D01*
X1049985Y4522216D01*
X1049274Y4528566D01*
X1047343Y4534001D01*
X1044244Y4538929D01*
X1040180Y4542993D01*
X1035253Y4546092D01*
X1029817Y4547971D01*
X1023518Y4548682D01*
X968044Y4548682D01*
X961745Y4547971D01*
X955852Y4545939D01*
X952500Y4545380D01*
X949147Y4545939D01*
X943254Y4547971D01*
X936955Y4548682D01*
X929690Y4548682D01*
X929690Y4515662D01*
X931418Y4515662D01*
X935329Y4514900D01*
X938631Y4512665D01*
X940816Y4509363D01*
X941578Y4505502D01*
X941578Y4486097D01*
X940816Y4482236D01*
X938631Y4478934D01*
X935329Y4476699D01*
X931418Y4475937D01*
X929690Y4475937D01*
X929690Y4442866D01*
X936955Y4442866D01*
X943254Y4443628D01*
X949147Y4445660D01*
X952500Y4446219D01*
X956970Y4445254D01*
X959713Y4443831D01*
X961847Y4441596D01*
X963269Y4438853D01*
X965301Y4432554D01*
X968857Y4426356D01*
X972464Y4422190D01*
X1107389Y4287215D01*
X1109624Y4283913D01*
X1110386Y4280052D01*
X1110386Y4045102D01*
X1109472Y4040886D01*
X1106830Y4037380D01*
X1103020Y4035348D01*
X1098702Y4035044D01*
X1094638Y4036618D01*
X1091641Y4039717D01*
X1089152Y4043629D01*
X1085088Y4047693D01*
X1080160Y4050792D01*
X1074724Y4052671D01*
X1068374Y4053382D01*
X990498Y4053382D01*
X984199Y4052671D01*
X978306Y4050639D01*
X974953Y4050080D01*
X971600Y4050639D01*
X965708Y4052671D01*
X959358Y4053382D01*
X946556Y4053382D01*
X946556Y4020362D01*
X953871Y4020362D01*
X957783Y4019600D01*
X961034Y4017365D01*
X963269Y4014063D01*
X964031Y4010202D01*
X964031Y3990797D01*
X963269Y3986936D01*
X961034Y3983634D01*
X957783Y3981399D01*
X953871Y3980637D01*
X946556Y3980637D01*
X946556Y3947566D01*
X959358Y3947566D01*
X965708Y3948328D01*
X971600Y3950360D01*
X974953Y3950919D01*
X978306Y3950360D01*
X981760Y3949141D01*
X985062Y3947210D01*
X987450Y3944162D01*
X988517Y3940454D01*
X989380Y3930446D01*
X991717Y3922826D01*
X995476Y3915765D01*
X1000556Y3909568D01*
X1002284Y3906520D01*
X1002893Y3903116D01*
X1002893Y3799941D01*
X1002334Y3796588D01*
X1000658Y3793591D01*
X998118Y3791305D01*
X991666Y3787292D01*
X988161Y3785920D01*
X984402Y3785920D01*
X980897Y3787292D01*
X975004Y3791000D01*
X969568Y3792880D01*
X963218Y3793591D01*
X950163Y3793591D01*
X950163Y3744061D01*
X972718Y3744061D01*
X976630Y3743299D01*
X979932Y3741064D01*
X982116Y3737762D01*
X982878Y3733901D01*
X982878Y3681526D01*
X982116Y3677615D01*
X979932Y3674313D01*
X976630Y3672128D01*
X972718Y3671366D01*
X950163Y3671366D01*
X950163Y3621786D01*
X963218Y3621786D01*
X969568Y3622497D01*
X975004Y3624427D01*
X980897Y3628136D01*
X984453Y3629507D01*
X988212Y3629507D01*
X991717Y3628136D01*
X998118Y3624072D01*
X1000658Y3621836D01*
X1002334Y3618839D01*
X1002893Y3615486D01*
X1002893Y3613150D01*
X1003706Y3604717D01*
X1006043Y3597046D01*
X1009802Y3589985D01*
X1014882Y3583787D01*
X1021080Y3578707D01*
X1028141Y3574897D01*
X1035812Y3572611D01*
X1044295Y3571748D01*
X1343304Y3571748D01*
X1351737Y3572611D01*
X1359408Y3574897D01*
X1366469Y3578707D01*
X1372666Y3583787D01*
X1377746Y3589985D01*
X1381556Y3597046D01*
X1383842Y3604717D01*
X1384706Y3613150D01*
X1384706Y3615486D01*
X1385265Y3618839D01*
X1386941Y3621836D01*
X1389481Y3624072D01*
X1395933Y3628136D01*
X1399438Y3629507D01*
X1403197Y3629507D01*
X1406702Y3628136D01*
X1412595Y3624427D01*
X1418031Y3622497D01*
X1424381Y3621786D01*
X1437436Y3621786D01*
X1437436Y3671366D01*
X1414881Y3671366D01*
X1410970Y3672128D01*
X1407668Y3674313D01*
X1405483Y3677615D01*
X1404721Y3681526D01*
X1404721Y3733901D01*
X1405483Y3737813D01*
X1407668Y3741064D01*
X1410970Y3743299D01*
X1414881Y3744061D01*
X1437436Y3744061D01*
X1437436Y3793642D01*
X1424381Y3793642D01*
X1418031Y3792931D01*
X1412595Y3791000D01*
X1406702Y3787292D01*
X1403146Y3785920D01*
X1399387Y3785920D01*
X1395882Y3787292D01*
X1389430Y3791356D01*
X1386890Y3793591D01*
X1385265Y3796588D01*
X1384706Y3799941D01*
X1384706Y3883304D01*
X1385468Y3887215D01*
X1387652Y3890518D01*
X1389532Y3892346D01*
X1392529Y3894429D01*
X1396085Y3895344D01*
X1399692Y3894886D01*
X1406347Y3892905D01*
X1414780Y3892042D01*
X1555089Y3892042D01*
X1563522Y3892905D01*
X1571193Y3895191D01*
X1578254Y3899001D01*
X1584858Y3904386D01*
X1671015Y3990543D01*
X1674317Y3992778D01*
X1678228Y3993540D01*
X1682089Y3992778D01*
X1685391Y3990543D01*
X1890115Y3785819D01*
X1896719Y3780383D01*
X1903780Y3776624D01*
X1911451Y3774287D01*
X1919884Y3773474D01*
X1970328Y3773474D01*
X1972818Y3773170D01*
X1975154Y3772255D01*
X1983790Y3767582D01*
X1992477Y3764787D01*
X2001520Y3763568D01*
X2010613Y3763975D01*
X2019503Y3766007D01*
X2027936Y3769563D01*
X2035505Y3774592D01*
X2039721Y3778605D01*
X2043023Y3780739D01*
X2046884Y3781450D01*
X2050745Y3780637D01*
X2053996Y3778402D01*
X2056130Y3775151D01*
X2056892Y3771290D01*
X2056892Y3365144D01*
X2056333Y3361740D01*
X2054656Y3358743D01*
X2052066Y3356457D01*
X2045868Y3352647D01*
X2041855Y3348634D01*
X2038756Y3343706D01*
X2036825Y3338271D01*
X2036114Y3331921D01*
X2036114Y3279089D01*
X2036825Y3272739D01*
X2038756Y3267303D01*
X2041855Y3262376D01*
X2045919Y3258312D01*
X2050846Y3255213D01*
X2056282Y3253282D01*
X2062581Y3252571D01*
X2118055Y3252571D01*
X2124354Y3253282D01*
X2130247Y3255365D01*
X2133600Y3255924D01*
X2136952Y3255365D01*
X2142845Y3253282D01*
X2149144Y3252571D01*
X2156409Y3252571D01*
X2156409Y3285642D01*
X2154682Y3285642D01*
X2150770Y3286404D01*
X2147468Y3288639D01*
X2145284Y3291941D01*
X2144522Y3295802D01*
X2144522Y3315208D01*
X2145284Y3319068D01*
X2147468Y3322370D01*
X2150770Y3324555D01*
X2154682Y3325368D01*
X2156409Y3325368D01*
X2156409Y3358387D01*
X2149144Y3358387D01*
X2142845Y3357676D01*
X2137257Y3355746D01*
X2133447Y3355187D01*
X2129688Y3356101D01*
X2126538Y3358286D01*
X2124456Y3361537D01*
X2123744Y3365347D01*
X2123744Y3947109D01*
X2124506Y3951020D01*
X2126691Y3954322D01*
X2334514Y4162094D01*
X2337816Y4164329D01*
X2341676Y4165092D01*
X2345588Y4164329D01*
X2348890Y4162094D01*
X2351074Y4158843D01*
X2351836Y4154932D01*
X2351836Y3993286D01*
X2352649Y3985818D01*
X2354783Y3979214D01*
X2358339Y3973017D01*
X2361946Y3968851D01*
X2577541Y3753256D01*
X2579725Y3749954D01*
X2580487Y3746042D01*
X2579725Y3742182D01*
X2577541Y3738879D01*
X2574239Y3736695D01*
X2570327Y3735882D01*
X2562402Y3735882D01*
X2562402Y3702862D01*
X2569718Y3702862D01*
X2573629Y3702100D01*
X2576931Y3699865D01*
X2579116Y3696563D01*
X2579878Y3692702D01*
X2579878Y3673297D01*
X2579116Y3669436D01*
X2576931Y3666134D01*
X2573629Y3663899D01*
X2569718Y3663137D01*
X2562402Y3663137D01*
X2562402Y3630066D01*
X2575204Y3630066D01*
X2581554Y3630828D01*
X2587447Y3632860D01*
X2590800Y3633419D01*
X2594152Y3632860D01*
X2600045Y3630828D01*
X2606395Y3630066D01*
X2664104Y3630066D01*
X2668016Y3629304D01*
X2671318Y3627120D01*
X2673502Y3623818D01*
X2674264Y3619906D01*
X2674264Y3446881D01*
X2673502Y3442970D01*
X2671318Y3439668D01*
X2610815Y3379215D01*
X2606040Y3373272D01*
X2603652Y3368903D01*
X2601569Y3362451D01*
X2600147Y3359708D01*
X2598013Y3357473D01*
X2594152Y3355644D01*
X2590800Y3355086D01*
X2587447Y3355644D01*
X2581554Y3357676D01*
X2575255Y3358387D01*
X2567990Y3358387D01*
X2567990Y3325368D01*
X2569718Y3325368D01*
X2573629Y3324555D01*
X2576931Y3322370D01*
X2579116Y3319068D01*
X2579878Y3315208D01*
X2579878Y3295802D01*
X2579116Y3291941D01*
X2576931Y3288639D01*
X2573629Y3286404D01*
X2569718Y3285642D01*
X2567990Y3285642D01*
X2567990Y3252571D01*
X2575255Y3252571D01*
X2581554Y3253282D01*
X2587447Y3255365D01*
X2590800Y3255924D01*
X2594152Y3255365D01*
X2600045Y3253282D01*
X2606344Y3252571D01*
X2661818Y3252571D01*
X2668117Y3253282D01*
X2673553Y3255213D01*
X2678480Y3258312D01*
X2682544Y3262376D01*
X2685643Y3267303D01*
X2687574Y3272739D01*
X2688285Y3279089D01*
X2688285Y3331921D01*
X2687574Y3338271D01*
X2685643Y3343706D01*
X2683865Y3346551D01*
X2682544Y3349701D01*
X2682341Y3353104D01*
X2683306Y3356406D01*
X2685288Y3359150D01*
X2730957Y3404819D01*
X2735681Y3410661D01*
X2738831Y3416858D01*
X2740660Y3423716D01*
X2741117Y3429203D01*
X2741117Y3827983D01*
X2740304Y3835450D01*
X2738170Y3842105D01*
X2734614Y3848252D01*
X2731058Y3852418D01*
X2657856Y3925570D01*
X2655519Y3929227D01*
X2654909Y3933444D01*
X2656128Y3937609D01*
X2658872Y3940860D01*
X2662783Y3942689D01*
X2666542Y3943553D01*
X2674924Y3947109D01*
X2682544Y3952138D01*
X2692552Y3961587D01*
X2696718Y3962857D01*
X2701036Y3962247D01*
X2704693Y3959910D01*
X2923590Y3741064D01*
X2925775Y3737762D01*
X2926537Y3733850D01*
X2926537Y3368192D01*
X2925876Y3364585D01*
X2923997Y3361436D01*
X2921050Y3359150D01*
X2917545Y3358083D01*
X2913888Y3357676D01*
X2908452Y3355797D01*
X2903524Y3352698D01*
X2899460Y3348634D01*
X2896362Y3343706D01*
X2894431Y3338271D01*
X2893720Y3331921D01*
X2893720Y3246678D01*
X2894431Y3240328D01*
X2896362Y3234893D01*
X2899460Y3229965D01*
X2903524Y3225901D01*
X2908452Y3222802D01*
X2913888Y3220923D01*
X2920238Y3220212D01*
X2999740Y3220212D01*
X3006039Y3220923D01*
X3011525Y3222802D01*
X3016402Y3225901D01*
X3020517Y3229965D01*
X3023565Y3234893D01*
X3025698Y3240938D01*
X3027832Y3244494D01*
X3031236Y3246932D01*
X3035300Y3247745D01*
X3039364Y3246932D01*
X3042767Y3244494D01*
X3044901Y3240938D01*
X3047034Y3234893D01*
X3050082Y3229965D01*
X3054197Y3225901D01*
X3059074Y3222802D01*
X3064560Y3220923D01*
X3070860Y3220212D01*
X3084118Y3220212D01*
X3084118Y3261360D01*
X3036366Y3261360D01*
X3032455Y3262122D01*
X3029204Y3264306D01*
X3026968Y3267608D01*
X3026206Y3271520D01*
X3026206Y3307079D01*
X3026968Y3310991D01*
X3029204Y3314293D01*
X3032455Y3316478D01*
X3036366Y3317240D01*
X3084118Y3317240D01*
X3084118Y3358387D01*
X3070860Y3358387D01*
X3064560Y3357676D01*
X3059074Y3355797D01*
X3054197Y3352698D01*
X3050082Y3348634D01*
X3047034Y3343706D01*
X3044901Y3337661D01*
X3042767Y3334105D01*
X3039364Y3331667D01*
X3035300Y3330854D01*
X3031236Y3331667D01*
X3027832Y3334105D01*
X3025698Y3337661D01*
X3023565Y3343706D01*
X3020517Y3348634D01*
X3016402Y3352698D01*
X3011525Y3355797D01*
X3006039Y3357676D01*
X3002381Y3358083D01*
X2998876Y3359200D01*
X2995980Y3361436D01*
X2994050Y3364585D01*
X2993390Y3368192D01*
X2993390Y3751376D01*
X2992577Y3758844D01*
X2990443Y3765499D01*
X2986887Y3771646D01*
X2983331Y3775811D01*
X2828290Y3930853D01*
X2825953Y3934460D01*
X2825343Y3938727D01*
X2826512Y3942842D01*
X2829306Y3946093D01*
X2833217Y3947922D01*
X2842717Y3950106D01*
X2851150Y3953713D01*
X2858719Y3958742D01*
X2865323Y3965041D01*
X2870708Y3972407D01*
X2874619Y3980637D01*
X2877058Y3989425D01*
X2877870Y3998468D01*
X2877058Y4007561D01*
X2874619Y4016349D01*
X2870708Y4024579D01*
X2865323Y4031945D01*
X2858719Y4038244D01*
X2851150Y4043273D01*
X2842717Y4046880D01*
X2837484Y4048048D01*
X2834843Y4049064D01*
X2832608Y4050792D01*
X2780639Y4102760D01*
X2778455Y4106011D01*
X2777642Y4109872D01*
X2778404Y4113733D01*
X2780588Y4117035D01*
X2783840Y4119270D01*
X2787446Y4120794D01*
X2795016Y4125823D01*
X2801620Y4132122D01*
X2807004Y4139488D01*
X2810916Y4147718D01*
X2813354Y4156506D01*
X2814218Y4165904D01*
X2815132Y4169308D01*
X2817164Y4172204D01*
X2841701Y4196740D01*
X2845003Y4198924D01*
X2848864Y4199686D01*
X2925216Y4199686D01*
X2929331Y4198823D01*
X2939897Y4190644D01*
X2947924Y4186326D01*
X2956610Y4183532D01*
X2965653Y4182313D01*
X2974746Y4182719D01*
X2983636Y4184751D01*
X2992018Y4188307D01*
X2999638Y4193336D01*
X3006242Y4199636D01*
X3011576Y4207002D01*
X3015538Y4215231D01*
X3017977Y4224020D01*
X3018790Y4233113D01*
X3018485Y4236618D01*
X3018942Y4240784D01*
X3021076Y4244390D01*
X3024479Y4246829D01*
X3028594Y4247692D01*
X3083661Y4247692D01*
X3087522Y4246930D01*
X3090824Y4244695D01*
X3214014Y4121556D01*
X3216351Y4117898D01*
X3216960Y4113631D01*
X3215690Y4109465D01*
X3215690Y4071162D01*
X3217418Y4071162D01*
X3221329Y4070400D01*
X3224631Y4068165D01*
X3226816Y4064863D01*
X3227578Y4061002D01*
X3227578Y4041597D01*
X3226816Y4037736D01*
X3224631Y4034434D01*
X3221329Y4032199D01*
X3217418Y4031437D01*
X3215690Y4031437D01*
X3215690Y3998366D01*
X3222955Y3998366D01*
X3229254Y3999128D01*
X3235147Y4001160D01*
X3238500Y4001719D01*
X3241852Y4001160D01*
X3247745Y3999128D01*
X3254044Y3998366D01*
X3309518Y3998366D01*
X3315817Y3999128D01*
X3325368Y4002836D01*
X3328924Y4002989D01*
X3341268Y3998874D01*
X3350310Y3997655D01*
X3359404Y3998061D01*
X3368294Y4000093D01*
X3376726Y4003649D01*
X3384296Y4008678D01*
X3390900Y4014978D01*
X3396284Y4022344D01*
X3400196Y4030573D01*
X3402634Y4039362D01*
X3403447Y4048455D01*
X3402634Y4057548D01*
X3400196Y4066336D01*
X3396284Y4074566D01*
X3390900Y4081932D01*
X3384296Y4088231D01*
X3380384Y4091432D01*
X3378809Y4094378D01*
X3378301Y4097680D01*
X3378301Y4244898D01*
X3379215Y4249064D01*
X3381756Y4252518D01*
X3385515Y4254601D01*
X3399536Y4255262D01*
X3408426Y4257294D01*
X3416858Y4260900D01*
X3424428Y4265930D01*
X3431032Y4272229D01*
X3436416Y4279595D01*
X3440328Y4287824D01*
X3442766Y4296613D01*
X3443681Y4306570D01*
X3444189Y4308957D01*
X3449828Y4319676D01*
X3451656Y4326534D01*
X3452114Y4332020D01*
X3452114Y5826404D01*
X3451301Y5833872D01*
X3449167Y5840476D01*
X3445611Y5846622D01*
X3442055Y5850839D01*
X3147314Y6145530D01*
X3145078Y6148832D01*
X3144316Y6152743D01*
X3145078Y6156604D01*
X3147314Y6159906D01*
X3150616Y6162141D01*
X3154476Y6162903D01*
X3310229Y6162903D01*
X3316528Y6163614D01*
X3322015Y6165494D01*
X3326892Y6168593D01*
X3331006Y6172708D01*
X3334105Y6177584D01*
X3335985Y6183071D01*
X3336696Y6189370D01*
X3336696Y6358229D01*
X3335985Y6364528D01*
X3334105Y6370015D01*
X3331006Y6374892D01*
X3326892Y6379006D01*
X3322015Y6382105D01*
X3316528Y6383985D01*
X3310229Y6384696D01*
X3154476Y6384696D01*
X3150616Y6385458D01*
X3147314Y6387693D01*
X3145078Y6390995D01*
X3144316Y6394856D01*
X3145078Y6398768D01*
X3147314Y6402070D01*
X3169716Y6424472D01*
X3173120Y6426708D01*
X3177082Y6427470D01*
X3181045Y6426606D01*
X3187496Y6423710D01*
X3201111Y6419697D01*
X3215132Y6417411D01*
X3229356Y6416954D01*
X3243478Y6418326D01*
X3257346Y6421475D01*
X3270707Y6426403D01*
X3283305Y6432956D01*
X3294938Y6441084D01*
X3305454Y6450634D01*
X3314649Y6461455D01*
X3322421Y6473393D01*
X3328568Y6486194D01*
X3333038Y6499656D01*
X3334461Y6506768D01*
X3336188Y6510781D01*
X3339439Y6513677D01*
X3343605Y6514947D01*
X3347923Y6514338D01*
X3351580Y6512001D01*
X3616045Y6247587D01*
X3618229Y6244285D01*
X3618992Y6240373D01*
X3618992Y5253939D01*
X3618433Y5250535D01*
X3616756Y5247538D01*
X3614165Y5245252D01*
X3607968Y5241493D01*
X3603955Y5237429D01*
X3600856Y5232501D01*
X3598926Y5227066D01*
X3598214Y5220716D01*
X3598214Y5167884D01*
X3598926Y5161534D01*
X3600856Y5156098D01*
X3603955Y5151170D01*
X3608019Y5147106D01*
X3612946Y5144008D01*
X3618382Y5142128D01*
X3624681Y5141366D01*
X3680155Y5141366D01*
X3686454Y5142128D01*
X3692042Y5144058D01*
X3695852Y5144617D01*
X3699611Y5143703D01*
X3702761Y5141518D01*
X3704844Y5138267D01*
X3705555Y5134457D01*
X3705555Y5106974D01*
X3704793Y5103063D01*
X3702608Y5099761D01*
X3655212Y5052364D01*
X3650386Y5046472D01*
X3647998Y5042001D01*
X3646830Y5038496D01*
X3644696Y5034940D01*
X3641293Y5032502D01*
X3637178Y5031638D01*
X3576320Y5031638D01*
X3570020Y5030927D01*
X3564534Y5028996D01*
X3559657Y5025898D01*
X3555542Y5021834D01*
X3552444Y5016906D01*
X3550564Y5011470D01*
X3549853Y5005120D01*
X3549853Y4926279D01*
X3550564Y4919980D01*
X3552444Y4914493D01*
X3555542Y4909616D01*
X3559657Y4905502D01*
X3564534Y4902403D01*
X3570020Y4900523D01*
X3576320Y4899812D01*
X3655161Y4899812D01*
X3661511Y4900523D01*
X3666947Y4902403D01*
X3671874Y4905502D01*
X3675938Y4909616D01*
X3679037Y4914493D01*
X3680968Y4919980D01*
X3681577Y4925364D01*
X3682644Y4928870D01*
X3684930Y4931816D01*
X3688079Y4933746D01*
X3692093Y4935220D01*
X3694988Y4936693D01*
X3698951Y4937760D01*
X3703015Y4937201D01*
X3706520Y4935016D01*
X3708908Y4931664D01*
X3710432Y4919929D01*
X3712362Y4914493D01*
X3715461Y4909566D01*
X3719525Y4905502D01*
X3724452Y4902403D01*
X3729888Y4900523D01*
X3736238Y4899761D01*
X3749294Y4899761D01*
X3749294Y4939334D01*
X3718864Y4939334D01*
X3715004Y4940096D01*
X3711752Y4942230D01*
X3709517Y4945481D01*
X3708704Y4949291D01*
X3709365Y4953152D01*
X3711143Y4958740D01*
X3711651Y4962194D01*
X3711854Y4965954D01*
X3711854Y4981905D01*
X3712616Y4985766D01*
X3714851Y4989068D01*
X3718153Y4991252D01*
X3722014Y4992065D01*
X3749294Y4992065D01*
X3749294Y5032502D01*
X3746093Y5034737D01*
X3744010Y5038039D01*
X3743299Y5041900D01*
X3744061Y5045710D01*
X3746246Y5048961D01*
X3762248Y5064912D01*
X3766972Y5070754D01*
X3770122Y5076952D01*
X3771950Y5083810D01*
X3772408Y5089296D01*
X3772408Y5134660D01*
X3772966Y5138064D01*
X3774643Y5141061D01*
X3777234Y5143347D01*
X3783431Y5147106D01*
X3787444Y5151170D01*
X3790543Y5156098D01*
X3792474Y5161534D01*
X3793185Y5167884D01*
X3793185Y5220716D01*
X3792474Y5227066D01*
X3790543Y5232501D01*
X3787444Y5237429D01*
X3783380Y5241493D01*
X3778453Y5244592D01*
X3773017Y5246471D01*
X3766718Y5247182D01*
X3711244Y5247182D01*
X3704945Y5246471D01*
X3699357Y5244541D01*
X3695547Y5243982D01*
X3691788Y5244896D01*
X3688638Y5247081D01*
X3686556Y5250332D01*
X3685844Y5254142D01*
X3685844Y6257899D01*
X3685032Y6265367D01*
X3682898Y6272022D01*
X3679342Y6278168D01*
X3675786Y6282334D01*
X3297224Y6660896D01*
X3291382Y6665620D01*
X3285185Y6668770D01*
X3278327Y6670598D01*
X3272840Y6671056D01*
X2414778Y6671056D01*
X2407310Y6670243D01*
X2400706Y6668109D01*
X2394508Y6664553D01*
X2390343Y6660997D01*
X2111654Y6382308D01*
X2106930Y6376466D01*
X2103780Y6370269D01*
X2101951Y6363411D01*
X2101494Y6357924D01*
X2101494Y5607862D01*
X2102307Y5600395D01*
X2104440Y5593740D01*
X2107996Y5587593D01*
X2111603Y5583377D01*
X2440330Y5254650D01*
X2442514Y5251348D01*
X2443276Y5247487D01*
X2443276Y5068519D01*
X2442667Y5064912D01*
X2440787Y5061813D01*
X2435555Y5055819D01*
X2430881Y5047996D01*
X2427681Y5039461D01*
X2426055Y5030470D01*
X2426055Y5024983D01*
X2425242Y5021122D01*
X2423058Y5017820D01*
X2419756Y5015585D01*
X2415895Y5014823D01*
X2370226Y5014823D01*
X2362758Y5014061D01*
X2356154Y5011877D01*
X2349957Y5008321D01*
X2345791Y5004765D01*
X2237486Y4896459D01*
X2234184Y4894275D01*
X2230323Y4893513D01*
X2223008Y4893513D01*
X2219147Y4894275D01*
X2215845Y4896459D01*
X2213610Y4899761D01*
X2212848Y4903673D01*
X2212848Y4941316D01*
X2212136Y4947666D01*
X2210206Y4953101D01*
X2207158Y4958029D01*
X2203043Y4962093D01*
X2200249Y4963871D01*
X2197506Y4966360D01*
X2195880Y4969662D01*
X2195525Y4973320D01*
X2199182Y4986223D01*
X2199995Y4995621D01*
X2200910Y4999024D01*
X2202942Y5001920D01*
X2247595Y5046573D01*
X2252319Y5052364D01*
X2255469Y5058613D01*
X2257348Y5065471D01*
X2257755Y5070957D01*
X2257755Y5260086D01*
X2256993Y5267553D01*
X2254808Y5274157D01*
X2251252Y5280304D01*
X2247696Y5284520D01*
X1911756Y5620410D01*
X1909572Y5623712D01*
X1908810Y5627624D01*
X1908810Y5834989D01*
X1907997Y5842457D01*
X1905863Y5849112D01*
X1902307Y5855258D01*
X1898751Y5859424D01*
X1852523Y5905601D01*
X1846732Y5910326D01*
X1840484Y5913475D01*
X1833625Y5915355D01*
X1828139Y5915761D01*
X1426819Y5915761D01*
X1422958Y5916523D01*
X1419656Y5918758D01*
X1417421Y5922060D01*
X1416659Y5925921D01*
X1416659Y6594703D01*
X1417421Y6598564D01*
X1419656Y6601866D01*
X1422908Y6604050D01*
X1426819Y6604863D01*
X1430680Y6604101D01*
X1433982Y6601917D01*
X1542084Y6494424D01*
X1544320Y6491122D01*
X1545082Y6487210D01*
X1545082Y6309055D01*
X1544472Y6305499D01*
X1542592Y6302400D01*
X1537360Y6296406D01*
X1532686Y6288532D01*
X1529486Y6279997D01*
X1527860Y6271056D01*
X1527860Y6261912D01*
X1529486Y6252972D01*
X1532686Y6244437D01*
X1537360Y6236563D01*
X1543354Y6229705D01*
X1550466Y6224016D01*
X1558493Y6219698D01*
X1567180Y6216904D01*
X1576222Y6215684D01*
X1585315Y6216091D01*
X1594205Y6218123D01*
X1602638Y6221679D01*
X1610207Y6226708D01*
X1616811Y6233007D01*
X1622196Y6240373D01*
X1626107Y6248603D01*
X1628546Y6257391D01*
X1629359Y6266484D01*
X1628546Y6275578D01*
X1626107Y6284366D01*
X1622196Y6292596D01*
X1616811Y6299962D01*
X1615033Y6301638D01*
X1612747Y6304991D01*
X1611934Y6309004D01*
X1611934Y6504838D01*
X1611122Y6512306D01*
X1608988Y6518909D01*
X1605432Y6525056D01*
X1601774Y6529324D01*
X1373022Y6756704D01*
X1370787Y6760006D01*
X1370025Y6763918D01*
X1370787Y6767779D01*
X1372971Y6771081D01*
X1376273Y6773316D01*
X1380185Y6774078D01*
X6363919Y6774078D01*
X6367780Y6773316D01*
X6371082Y6771081D01*
X6373317Y6767830D01*
X6374079Y6763918D01*
X6374079Y5262016D01*
X6373266Y5258104D01*
X6371031Y5254752D01*
X6367678Y5252567D01*
X6363766Y5251856D01*
X6359855Y5252669D01*
X6356604Y5254955D01*
X6349492Y5262372D01*
X6341719Y5268112D01*
X6333083Y5272481D01*
X6323888Y5275275D01*
X6314338Y5276545D01*
X6304686Y5276088D01*
X6295237Y5274056D01*
X6286296Y5270500D01*
X6278067Y5265420D01*
X6270853Y5259070D01*
X6269075Y5256834D01*
X6265722Y5254142D01*
X6261557Y5253075D01*
X6257340Y5253786D01*
X6253835Y5256174D01*
X6247892Y5262372D01*
X6240119Y5268112D01*
X6231483Y5272481D01*
X6222288Y5275275D01*
X6212738Y5276545D01*
X6203086Y5276088D01*
X6193637Y5274056D01*
X6184696Y5270500D01*
X6176467Y5265420D01*
X6169253Y5259070D01*
X6163157Y5251551D01*
X6158484Y5243118D01*
X6155283Y5234025D01*
X6153658Y5224526D01*
X6153658Y5214874D01*
X6155283Y5205374D01*
X6158077Y5197449D01*
X6158636Y5193741D01*
X6157772Y5190032D01*
X6155639Y5186883D01*
X5806744Y4837988D01*
X5803442Y4835804D01*
X5799582Y4835042D01*
X4000449Y4835042D01*
X3996486Y4835855D01*
X3993134Y4838141D01*
X3987292Y4844237D01*
X3979519Y4849977D01*
X3970883Y4854346D01*
X3961688Y4857140D01*
X3952138Y4858410D01*
X3942486Y4858004D01*
X3933037Y4855972D01*
X3924096Y4852365D01*
X3915867Y4847285D01*
X3908653Y4840935D01*
X3902557Y4833416D01*
X3897884Y4824984D01*
X3894683Y4815890D01*
X3893058Y4806391D01*
X3893058Y4796739D01*
X3894683Y4787239D01*
X3897884Y4778146D01*
X3902557Y4769713D01*
X3908653Y4762195D01*
X3915867Y4755845D01*
X3924096Y4750765D01*
X3933037Y4747209D01*
X3942486Y4745177D01*
X3952138Y4744770D01*
X3961688Y4745990D01*
X3970883Y4748784D01*
X3979519Y4753152D01*
X3987292Y4758893D01*
X3993235Y4765090D01*
X3996588Y4767376D01*
X4000550Y4768189D01*
X5814009Y4768189D01*
X5817920Y4767427D01*
X5821222Y4765243D01*
X5823407Y4761941D01*
X5824169Y4758029D01*
X5823407Y4754168D01*
X5821222Y4750866D01*
X5714949Y4644593D01*
X5711647Y4642408D01*
X5707786Y4641646D01*
X3921658Y4641646D01*
X3917696Y4642459D01*
X3914343Y4644745D01*
X3908450Y4650892D01*
X3900678Y4656632D01*
X3892042Y4661001D01*
X3882847Y4663795D01*
X3873296Y4665065D01*
X3863644Y4664659D01*
X3854196Y4662627D01*
X3845255Y4659020D01*
X3837025Y4653940D01*
X3829812Y4647590D01*
X3823766Y4640072D01*
X3819042Y4631639D01*
X3815842Y4622546D01*
X3814216Y4613046D01*
X3814216Y4603394D01*
X3815842Y4593894D01*
X3819042Y4584801D01*
X3823766Y4576368D01*
X3829812Y4568850D01*
X3837025Y4562500D01*
X3845255Y4557420D01*
X3854196Y4553864D01*
X3863644Y4551832D01*
X3873296Y4551426D01*
X3882847Y4552645D01*
X3892042Y4555439D01*
X3900678Y4559808D01*
X3908450Y4565548D01*
X3914343Y4571695D01*
X3917696Y4573981D01*
X3921658Y4574794D01*
X5725261Y4574794D01*
X5732729Y4575606D01*
X5739384Y4577740D01*
X5745530Y4581296D01*
X5749696Y4584903D01*
X6329375Y5164531D01*
X6332067Y5166461D01*
X6341719Y5171287D01*
X6349492Y5177028D01*
X6356604Y5184444D01*
X6359855Y5186730D01*
X6363766Y5187543D01*
X6367678Y5186832D01*
X6371031Y5184648D01*
X6373266Y5181295D01*
X6374079Y5177383D01*
X6374079Y4995113D01*
X6373317Y4991303D01*
X6371234Y4988052D01*
X6368034Y4985816D01*
X6364224Y4984953D01*
X6360414Y4985562D01*
X6357061Y4987594D01*
X6355638Y4988915D01*
X6344005Y4997043D01*
X6331407Y5003596D01*
X6318046Y5008524D01*
X6304178Y5011674D01*
X6290056Y5013045D01*
X6275832Y5012588D01*
X6261811Y5010302D01*
X6248196Y5006238D01*
X6235192Y5000498D01*
X6223050Y4993132D01*
X6211925Y4984292D01*
X6202070Y4974082D01*
X6193586Y4962702D01*
X6186576Y4950307D01*
X6181242Y4937150D01*
X6177635Y4923383D01*
X6175857Y4909312D01*
X6175857Y4895088D01*
X6177635Y4881016D01*
X6181242Y4867249D01*
X6186576Y4854092D01*
X6193586Y4841697D01*
X6202070Y4830318D01*
X6211925Y4820107D01*
X6223050Y4811268D01*
X6235192Y4803902D01*
X6248196Y4798110D01*
X6261811Y4794097D01*
X6275832Y4791811D01*
X6290056Y4791354D01*
X6304178Y4792726D01*
X6318046Y4795875D01*
X6331407Y4800803D01*
X6344005Y4807356D01*
X6355638Y4815484D01*
X6357061Y4816805D01*
X6360414Y4818837D01*
X6364224Y4819446D01*
X6368034Y4818583D01*
X6371234Y4816348D01*
X6373317Y4813096D01*
X6374079Y4809286D01*
X6374079Y3036062D01*
X6373317Y3032201D01*
X6371082Y3028899D01*
X6367780Y3026664D01*
X6363919Y3025902D01*
G37*

%LPC*%
G36*
X1659636Y3199282D02*
G01*
X1669542Y3204667D01*
X1678787Y3211576D01*
X1686915Y3219754D01*
X1693824Y3229000D01*
X1699361Y3239109D01*
X1703425Y3249930D01*
X1704238Y3253841D01*
X1659636Y3253841D01*
G37*
G36*
X795629Y3199282D02*
G01*
X805535Y3204667D01*
X814781Y3211576D01*
X822909Y3219754D01*
X829868Y3229000D01*
X835355Y3239109D01*
X839419Y3249930D01*
X840282Y3253841D01*
X795629Y3253841D01*
G37*
G36*
X1591970Y3199282D02*
G01*
X1591970Y3253841D01*
X1547317Y3253841D01*
X1548180Y3249930D01*
X1552244Y3239109D01*
X1557782Y3229000D01*
X1564690Y3219754D01*
X1572818Y3211576D01*
X1582064Y3204667D01*
G37*
G36*
X3137154Y3220212D02*
G01*
X3150362Y3220212D01*
X3156712Y3220923D01*
X3162147Y3222802D01*
X3167075Y3225901D01*
X3171139Y3229965D01*
X3174238Y3234893D01*
X3176168Y3240328D01*
X3176879Y3246678D01*
X3176879Y3261360D01*
X3137154Y3261360D01*
G37*
G36*
X2197354Y3252571D02*
G01*
X2204618Y3252571D01*
X2210917Y3253282D01*
X2216353Y3255213D01*
X2221280Y3258312D01*
X2225344Y3262376D01*
X2228443Y3267303D01*
X2230374Y3272739D01*
X2231085Y3279089D01*
X2231085Y3285642D01*
X2197354Y3285642D01*
G37*
G36*
X2519781Y3252571D02*
G01*
X2527046Y3252571D01*
X2527046Y3285642D01*
X2493314Y3285642D01*
X2493314Y3279089D01*
X2494026Y3272739D01*
X2495956Y3267303D01*
X2499055Y3262376D01*
X2503119Y3258312D01*
X2508046Y3255213D01*
X2513482Y3253282D01*
G37*
G36*
X3137154Y3317240D02*
G01*
X3176879Y3317240D01*
X3176879Y3331921D01*
X3176168Y3338271D01*
X3174238Y3343706D01*
X3171139Y3348634D01*
X3167075Y3352698D01*
X3162147Y3355797D01*
X3156712Y3357676D01*
X3150362Y3358387D01*
X3137154Y3358387D01*
G37*
G36*
X2493314Y3325368D02*
G01*
X2527046Y3325368D01*
X2527046Y3358387D01*
X2519781Y3358387D01*
X2513482Y3357676D01*
X2508046Y3355797D01*
X2503119Y3352698D01*
X2499055Y3348634D01*
X2495956Y3343706D01*
X2494026Y3338271D01*
X2493314Y3331921D01*
G37*
G36*
X2197354Y3325368D02*
G01*
X2231085Y3325368D01*
X2231085Y3331921D01*
X2230374Y3338271D01*
X2228443Y3343706D01*
X2225344Y3348634D01*
X2221280Y3352698D01*
X2216353Y3355797D01*
X2210917Y3357676D01*
X2204618Y3358387D01*
X2197354Y3358387D01*
G37*
G36*
X1547317Y3351580D02*
G01*
X1591970Y3351580D01*
X1591970Y3406140D01*
X1582064Y3400755D01*
X1572818Y3393846D01*
X1564690Y3385667D01*
X1557782Y3376422D01*
X1552244Y3366312D01*
X1548180Y3355492D01*
G37*
G36*
X1659636Y3351580D02*
G01*
X1704238Y3351580D01*
X1703425Y3355492D01*
X1699361Y3366312D01*
X1693824Y3376422D01*
X1686915Y3385667D01*
X1678787Y3393846D01*
X1669542Y3400755D01*
X1659636Y3406140D01*
G37*
G36*
X795629Y3351580D02*
G01*
X840282Y3351580D01*
X839419Y3355492D01*
X835355Y3366312D01*
X829868Y3376422D01*
X822909Y3385667D01*
X814781Y3393846D01*
X805535Y3400755D01*
X795629Y3406140D01*
G37*
G36*
X1659636Y3579266D02*
G01*
X1669542Y3584651D01*
X1678787Y3591560D01*
X1686915Y3599738D01*
X1693824Y3608984D01*
X1699361Y3619093D01*
X1703425Y3629914D01*
X1704238Y3633876D01*
X1659636Y3633876D01*
G37*
G36*
X1591970Y3579266D02*
G01*
X1591970Y3633876D01*
X1547317Y3633876D01*
X1548180Y3629914D01*
X1552244Y3619093D01*
X1557782Y3608984D01*
X1564690Y3599738D01*
X1572818Y3591560D01*
X1582064Y3584651D01*
G37*
G36*
X795629Y3579266D02*
G01*
X805535Y3584651D01*
X814781Y3591560D01*
X822909Y3599738D01*
X829868Y3608984D01*
X835355Y3619093D01*
X839419Y3629914D01*
X840282Y3633876D01*
X795629Y3633876D01*
G37*
G36*
X884377Y3621786D02*
G01*
X897432Y3621786D01*
X897432Y3671366D01*
X863041Y3671366D01*
X862990Y3651961D01*
X862380Y3643274D01*
X861415Y3639616D01*
X860247Y3637229D01*
X863600Y3631590D01*
X867664Y3627526D01*
X872591Y3624427D01*
X878027Y3622497D01*
G37*
G36*
X1490167Y3621786D02*
G01*
X1503222Y3621786D01*
X1509572Y3622497D01*
X1515008Y3624427D01*
X1519936Y3627526D01*
X1524000Y3631590D01*
X1527606Y3637686D01*
X1526184Y3639616D01*
X1525219Y3643274D01*
X1524558Y3652723D01*
X1524558Y3671366D01*
X1490167Y3671366D01*
G37*
G36*
X2497378Y3630066D02*
G01*
X2510180Y3630066D01*
X2510180Y3663137D01*
X2470861Y3663137D01*
X2470861Y3656584D01*
X2471572Y3650234D01*
X2473502Y3644798D01*
X2476601Y3639870D01*
X2480665Y3635806D01*
X2485593Y3632708D01*
X2491028Y3630828D01*
G37*
G36*
X2470861Y3702862D02*
G01*
X2510180Y3702862D01*
X2510180Y3735882D01*
X2497378Y3735882D01*
X2491028Y3735171D01*
X2485593Y3733292D01*
X2480665Y3730193D01*
X2476601Y3726129D01*
X2473502Y3721201D01*
X2471572Y3715765D01*
X2470861Y3709415D01*
G37*
G36*
X1550009Y3731564D02*
G01*
X1591970Y3731564D01*
X1591970Y3786124D01*
X1582064Y3780739D01*
X1572818Y3773830D01*
X1564690Y3765651D01*
X1557782Y3756456D01*
X1552244Y3746296D01*
X1549044Y3738118D01*
X1550009Y3733901D01*
G37*
G36*
X795629Y3731564D02*
G01*
X837590Y3731564D01*
X837590Y3733901D01*
X838555Y3738118D01*
X835355Y3746296D01*
X829868Y3756456D01*
X822909Y3765651D01*
X814781Y3773830D01*
X805535Y3780739D01*
X795629Y3786124D01*
G37*
G36*
X1659636Y3731564D02*
G01*
X1704238Y3731564D01*
X1703425Y3735476D01*
X1699361Y3746296D01*
X1693824Y3756456D01*
X1686915Y3765651D01*
X1678787Y3773830D01*
X1669542Y3780739D01*
X1659636Y3786124D01*
G37*
G36*
X1490167Y3744061D02*
G01*
X1529689Y3744061D01*
X1529689Y3767124D01*
X1528978Y3773474D01*
X1527098Y3778910D01*
X1524000Y3783837D01*
X1519936Y3787901D01*
X1515008Y3791000D01*
X1509572Y3792931D01*
X1503222Y3793642D01*
X1490167Y3793642D01*
G37*
G36*
X857910Y3744061D02*
G01*
X897432Y3744061D01*
X897432Y3793591D01*
X884377Y3793591D01*
X878027Y3792880D01*
X872591Y3791000D01*
X867664Y3787901D01*
X863600Y3783837D01*
X860501Y3778910D01*
X858621Y3773474D01*
X857910Y3767124D01*
G37*
G36*
X881481Y3947566D02*
G01*
X894334Y3947566D01*
X894334Y3980637D01*
X855014Y3980637D01*
X855014Y3974084D01*
X855726Y3967734D01*
X857656Y3962298D01*
X860704Y3957370D01*
X864819Y3953306D01*
X869696Y3950208D01*
X875182Y3948328D01*
G37*
G36*
X3167481Y3998366D02*
G01*
X3174746Y3998366D01*
X3174746Y4031437D01*
X3141014Y4031437D01*
X3141014Y4024884D01*
X3141726Y4018534D01*
X3143656Y4013098D01*
X3146755Y4008170D01*
X3150819Y4004106D01*
X3155746Y4001008D01*
X3161182Y3999128D01*
G37*
G36*
X855014Y4020362D02*
G01*
X894334Y4020362D01*
X894334Y4053382D01*
X881481Y4053382D01*
X875182Y4052671D01*
X869696Y4050792D01*
X864819Y4047693D01*
X860704Y4043629D01*
X857656Y4038701D01*
X855726Y4033265D01*
X855014Y4026915D01*
G37*
G36*
X3141014Y4071162D02*
G01*
X3174746Y4071162D01*
X3174746Y4104182D01*
X3167481Y4104182D01*
X3161182Y4103471D01*
X3155746Y4101592D01*
X3150819Y4098493D01*
X3146755Y4094429D01*
X3143656Y4089501D01*
X3141726Y4084065D01*
X3141014Y4077715D01*
G37*
G36*
X881481Y4442866D02*
G01*
X888746Y4442866D01*
X888746Y4475937D01*
X855014Y4475937D01*
X855014Y4469384D01*
X855726Y4463034D01*
X857656Y4457598D01*
X860755Y4452670D01*
X864819Y4448606D01*
X869746Y4445508D01*
X875182Y4443628D01*
G37*
G36*
X1524254Y4442866D02*
G01*
X1531518Y4442866D01*
X1537817Y4443628D01*
X1543253Y4445508D01*
X1548180Y4448606D01*
X1552244Y4452670D01*
X1555343Y4457598D01*
X1557274Y4463034D01*
X1557985Y4469384D01*
X1557985Y4475937D01*
X1524254Y4475937D01*
G37*
G36*
X855014Y4515662D02*
G01*
X888746Y4515662D01*
X888746Y4548682D01*
X881481Y4548682D01*
X875182Y4547971D01*
X869746Y4546092D01*
X864819Y4542993D01*
X860755Y4538929D01*
X857656Y4534001D01*
X855726Y4528566D01*
X855014Y4522216D01*
G37*
G36*
X1524254Y4515662D02*
G01*
X1557985Y4515662D01*
X1557985Y4522216D01*
X1557274Y4528566D01*
X1555343Y4534001D01*
X1552244Y4538929D01*
X1548180Y4542993D01*
X1543253Y4546092D01*
X1537817Y4547971D01*
X1531518Y4548682D01*
X1524254Y4548682D01*
G37*
G36*
X3801973Y4899761D02*
G01*
X3815079Y4899761D01*
X3821379Y4900523D01*
X3826865Y4902403D01*
X3831742Y4905502D01*
X3835857Y4909566D01*
X3838956Y4914493D01*
X3840835Y4919929D01*
X3841546Y4926279D01*
X3841546Y4939334D01*
X3801973Y4939334D01*
G37*
G36*
X880770Y4910429D02*
G01*
X880770Y4959045D01*
X832154Y4959045D01*
X835406Y4952441D01*
X843076Y4940960D01*
X852220Y4930546D01*
X862634Y4921402D01*
X874166Y4913680D01*
G37*
G36*
X973429Y4910429D02*
G01*
X980033Y4913680D01*
X991565Y4921402D01*
X1001979Y4930546D01*
X1011123Y4940960D01*
X1018794Y4952441D01*
X1022045Y4959045D01*
X973429Y4959045D01*
G37*
G36*
X3801973Y4992065D02*
G01*
X3841546Y4992065D01*
X3841546Y5005120D01*
X3840835Y5011470D01*
X3838956Y5016906D01*
X3835857Y5021783D01*
X3831742Y5025898D01*
X3826865Y5028996D01*
X3821379Y5030876D01*
X3815079Y5031587D01*
X3801973Y5031587D01*
G37*
G36*
X4104538Y5239054D02*
G01*
X4114088Y5240324D01*
X4123283Y5243118D01*
X4131919Y5247487D01*
X4139692Y5253228D01*
X4146346Y5260187D01*
X4151731Y5268163D01*
X4155744Y5276951D01*
X4158132Y5286298D01*
X4158996Y5295900D01*
X4158132Y5305501D01*
X4155744Y5314848D01*
X4151731Y5323636D01*
X4146346Y5331612D01*
X4139692Y5338572D01*
X4131919Y5344312D01*
X4123283Y5348681D01*
X4114088Y5351475D01*
X4104538Y5352745D01*
X4099763Y5352542D01*
X4095496Y5353253D01*
X4091940Y5355742D01*
X3889603Y5572353D01*
X3884523Y5576874D01*
X3878427Y5580380D01*
X3871823Y5582513D01*
X3864356Y5583326D01*
X3835400Y5583326D01*
X3831437Y5584139D01*
X3828084Y5586425D01*
X3822192Y5592572D01*
X3814419Y5598312D01*
X3805783Y5602681D01*
X3796588Y5605475D01*
X3787038Y5606745D01*
X3777386Y5606288D01*
X3767937Y5604256D01*
X3758996Y5600700D01*
X3750767Y5595620D01*
X3743553Y5589270D01*
X3737457Y5581751D01*
X3732784Y5573318D01*
X3729583Y5564225D01*
X3727958Y5554726D01*
X3727958Y5545074D01*
X3729583Y5535574D01*
X3732784Y5526481D01*
X3737457Y5518048D01*
X3743553Y5510530D01*
X3750767Y5504180D01*
X3758996Y5499100D01*
X3767937Y5495544D01*
X3777386Y5493512D01*
X3787038Y5493054D01*
X3796588Y5494324D01*
X3805783Y5497118D01*
X3814419Y5501487D01*
X3822192Y5507228D01*
X3828084Y5513374D01*
X3831437Y5515660D01*
X3835400Y5516473D01*
X3845915Y5516473D01*
X3849979Y5515660D01*
X3853383Y5513273D01*
X4042968Y5310225D01*
X4044746Y5307685D01*
X4045610Y5304688D01*
X4045458Y5291074D01*
X4047083Y5281574D01*
X4050284Y5272481D01*
X4054957Y5264048D01*
X4061053Y5256530D01*
X4068267Y5250180D01*
X4076496Y5245100D01*
X4085437Y5241544D01*
X4094886Y5239512D01*
G37*

%LPD*%
D10*
X3123107Y4568799D02*
G01*
X3043709Y4648200D01*
X2971800Y4648200D01*
D11*
X1393294Y3953969D02*
G01*
X1343789Y3904465D01*
X1343789Y3707716D01*
D10*
X2967916Y4233115D02*
G01*
X2830832Y4233115D01*
X2763319Y4165602D01*
X3281784Y4051302D02*
G01*
X3281784Y4101010D01*
X2718843Y4281096D02*
G01*
X2774800Y4281096D01*
X2774800Y4281096D02*
G01*
X3101698Y4281096D01*
X3281784Y4101010D01*
X2634084Y3305507D02*
G01*
X2634084Y3355215D01*
X2503096Y4215361D02*
G01*
X2503096Y4159404D01*
X2634084Y3355215D02*
G01*
X2707693Y3428824D01*
X2707693Y3828519D01*
X2503096Y4033116D01*
X2503096Y4159404D01*
X2603096Y4215361D02*
G01*
X2603096Y4108782D01*
X2959966Y3751912D01*
X2959966Y3289302D01*
X1975106Y4262935D02*
G01*
X1975106Y4190240D01*
X1975106Y4190240D02*
G01*
X1972210Y4187344D01*
X1972210Y4000502D01*
X2038428Y4914902D02*
G01*
X2038428Y4865194D01*
X1975106Y4482950D02*
G01*
X1975106Y4801872D01*
X2038428Y4865194D01*
X995784Y4446094D02*
G01*
X1143789Y4298088D01*
X1143789Y3707716D01*
X995784Y4495802D02*
G01*
X995784Y4446094D01*
X2437361Y4281096D02*
G01*
X2381404Y4281096D01*
X2090320Y3305507D02*
G01*
X2090320Y3965171D01*
X2329614Y4204464D01*
X2329614Y4235985D01*
X2374724Y4281096D01*
X2381404Y4281096D01*
X3225802Y6527802D02*
G01*
X3110054Y6412054D01*
X2439113Y6412054D01*
X2319911Y6292852D01*
X2319911Y5841977D01*
X2429334Y4933571D02*
G01*
X2429334Y4806825D01*
X2489456Y4746703D01*
X1803148Y5744644D02*
G01*
X1732384Y5673879D01*
X1732384Y5389095D01*
X1804164Y5827676D02*
G01*
X1297790Y5321302D01*
X2971802Y6273802D02*
G01*
X3418690Y5826914D01*
X3418690Y4331642D01*
X3392731Y4305683D01*
X3738984Y5194302D02*
G01*
X3738984Y5088917D01*
X3678455Y5028389D01*
X3678455Y4965702D01*
X3615768Y4965702D02*
G01*
X3678455Y4965702D01*
X1417220Y4446094D02*
G01*
X1243789Y4272663D01*
X1243789Y3707716D01*
X1417220Y4495802D02*
G01*
X1417220Y4446094D01*
X2342314Y4581121D02*
G01*
X2342314Y4687115D01*
X2217193Y4812235D01*
X2203427Y4812235D01*
X1244704Y5743806D02*
G01*
X1383261Y5882363D01*
X1383261Y5882363D02*
G01*
X1828548Y5882363D01*
X1875386Y5835525D01*
X1875386Y5609567D01*
X2224356Y5260596D01*
X2224356Y5070553D01*
X2149121Y4995318D01*
X1383261Y5882363D02*
G01*
X1383261Y6629758D01*
X1296342Y6716676D01*
X3195220Y4051302D02*
G01*
X3195220Y4001594D01*
X2547520Y3305507D02*
G01*
X2547520Y3355215D01*
X3195220Y4001594D02*
G01*
X3110638Y3917012D01*
X3110638Y3289302D01*
X3047596Y3289302D02*
G01*
X3047596Y3257781D01*
X3013026Y3223211D01*
X2580109Y3223211D01*
X2547520Y3255799D01*
X3110638Y3289302D02*
G01*
X3047596Y3289302D01*
X2547520Y3305507D02*
G01*
X2547520Y3255799D01*
X2547520Y3355215D02*
G01*
X2536294Y3366442D01*
X2536294Y3366442D02*
G01*
X2536294Y3683002D01*
X909220Y4495802D02*
G01*
X909220Y4061437D01*
X920447Y4050210D01*
X2536294Y3366442D02*
G01*
X2475359Y3305507D01*
X2176884Y3305507D01*
X2176884Y3305507D02*
G01*
X2176884Y3255799D01*
X1502310Y4025369D02*
G01*
X1502310Y4050210D01*
X1463804Y3707716D02*
G01*
X1463804Y3790419D01*
X920447Y4025369D02*
G01*
X920447Y4050210D01*
X920447Y4025369D02*
G01*
X920447Y4000502D01*
X920447Y4000502D02*
G01*
X920447Y3793797D01*
X923825Y3790419D01*
X923825Y3707716D02*
G01*
X923825Y3790419D01*
X2070102Y4482950D02*
G01*
X2070102Y4410255D01*
X2176884Y3255799D02*
G01*
X2176706Y3255622D01*
X1672871Y3255622D01*
X1625805Y3302688D01*
X1625805Y3682697D02*
G01*
X1625805Y3302688D01*
X2578102Y4356102D02*
G01*
X2553108Y4381096D01*
X2553108Y4431108D01*
X2553108Y4431108D02*
G01*
X2553108Y4496843D01*
X1503784Y4495802D02*
G01*
X1503784Y4545510D01*
X2599794Y4914902D02*
G01*
X2599794Y4865194D01*
X2553108Y4431108D02*
G01*
X2437361Y4431108D01*
X3775661Y4965702D02*
G01*
X3712949Y4965702D01*
X1502310Y4025369D02*
G01*
X1502310Y4000502D01*
X1463804Y3790419D02*
G01*
X1518084Y3790419D01*
X1625805Y3682697D01*
X2653108Y4496843D02*
G01*
X2653108Y4473069D01*
X2653108Y4473069D02*
G01*
X2653108Y4431108D01*
X2578102Y4356102D01*
X3712949Y4298393D02*
G01*
X3712949Y4965702D01*
X2194029Y5821936D02*
G01*
X2221842Y5794123D01*
X2413383Y5794123D01*
X2717802Y6273802D02*
G01*
X2413383Y5969383D01*
X2413383Y5794123D01*
X2413383Y5794123D02*
G01*
X2413383Y5535170D01*
X2721079Y5227474D01*
X2764411Y5227474D01*
X2070102Y4410255D02*
G01*
X2080719Y4399638D01*
X2228522Y4399638D01*
X2599794Y4770909D01*
X2599794Y4865194D01*
X2653108Y4473069D02*
G01*
X2801343Y4473069D01*
X1503784Y4495802D02*
G01*
X1503784Y4446094D01*
X939192Y4558845D02*
G01*
X1490449Y4558845D01*
X1503784Y4545510D01*
X909220Y4495802D02*
G01*
X939192Y4525774D01*
X939192Y4558845D01*
X939192Y4558845D02*
G01*
X939192Y4993312D01*
X927102Y5005402D01*
X3195220Y4001594D02*
G01*
X3213661Y3983154D01*
X3438375Y3983154D01*
X3712949Y4257728D01*
X3712949Y4298393D01*
X2070102Y4410255D02*
G01*
X2065098Y4405251D01*
X1544627Y4405251D01*
X1503784Y4446094D02*
G01*
X1544627Y4405251D01*
X1544627Y4405251D02*
G01*
X1544627Y4092526D01*
X1502310Y4050210D01*
X761824Y3682697D02*
G01*
X819508Y3625014D01*
X923825Y3625014D01*
X923825Y3707716D02*
G01*
X923825Y3625014D01*
X2437361Y4381096D02*
G01*
X2437361Y4331108D01*
X2038428Y5181602D02*
G01*
X1674446Y4817620D01*
X1674446Y4455035D01*
X2437361Y4331108D02*
G01*
X2378712Y4331108D01*
X2227252Y4179648D01*
X2603096Y4496843D02*
G01*
X2603096Y4552800D01*
X3195220Y4521202D02*
G01*
X3169744Y4521202D01*
X3169744Y4521202D02*
G01*
X3144243Y4521202D01*
X3270430Y4623005D02*
G01*
X2866925Y5026510D01*
X2639976Y5026510D01*
X3169744Y4521202D02*
G01*
X3230196Y4460750D01*
X3230196Y4453740D01*
X2603096Y4552800D02*
G01*
X2624381Y4574085D01*
X3050161Y4574085D01*
X3103298Y4520948D01*
X3143989Y4520948D01*
X3144243Y4521202D01*
D11*
X1029464Y4000502D02*
G01*
X1029464Y3938450D01*
X1029464Y3938450D02*
G01*
X1043790Y3924124D01*
X1043790Y3707716D01*
X1043790Y3612669D02*
G01*
X1343789Y3612669D01*
X1043790Y3707716D02*
G01*
X1043790Y3612669D01*
X1343789Y3707716D02*
G01*
X1343789Y3612669D01*
X1393294Y3969489D02*
G01*
X1393294Y3953969D01*
X1393294Y3969489D02*
G01*
X1393294Y4000502D01*
X2827022Y3998495D02*
G01*
X2678457Y4147060D01*
X2653108Y4147060D01*
X2653108Y4215361D02*
G01*
X2653108Y4147060D01*
X2708810Y4914902D02*
G01*
X2708810Y4819728D01*
X2237107Y4348025D01*
X1918794Y4348025D01*
X1910031Y4339262D01*
X1910031Y4287420D01*
X1678205Y4055595D01*
X1678205Y4055595D02*
G01*
X1555574Y3932963D01*
X1414299Y3932963D01*
X1393294Y3953969D01*
D10*
X3652420Y5244010D02*
G01*
X3652420Y6258435D01*
X3273224Y6637632D01*
X2414247Y6637632D01*
X2134923Y6358308D01*
X2134923Y5607306D01*
X2476705Y5265524D01*
X2476705Y5025925D01*
X3652420Y5194302D02*
G01*
X3652420Y5244010D01*
X2357808Y4862578D02*
G01*
X2357808Y4731108D01*
X2423365Y4665550D01*
X3282190Y5225595D02*
G01*
X3282190Y5222648D01*
X3385187Y5119651D01*
X3385187Y4906114D01*
X3364232Y4885159D01*
X3303475Y4885159D01*
X2846809Y5341825D01*
X2846809Y5404893D01*
X3195220Y4303626D02*
G01*
X3195220Y4335960D01*
X2718843Y4431108D02*
G01*
X2774800Y4431108D01*
X3195220Y4303626D02*
G01*
X3195220Y4286252D01*
X3195220Y4335960D02*
G01*
X3085772Y4335960D01*
X3229256Y4733216D02*
G01*
X2820824Y5141648D01*
X2592859Y5141648D01*
X3085772Y4335960D02*
G01*
X3083994Y4334182D01*
X2870710Y4334182D01*
X2774800Y4430092D01*
X2774800Y4431108D01*
X2553108Y4215361D02*
G01*
X2553108Y4089631D01*
X2650822Y3991917D01*
X2655064Y5361155D02*
G01*
X2698523Y5361155D01*
X3344877Y4714801D01*
X3344877Y4056179D01*
X3352599Y4048457D01*
D12*
X1863194Y4000502D02*
G01*
X1863194Y3945790D01*
X1863194Y3945790D02*
G01*
X1864438Y3944546D01*
X2023290Y3944546D01*
X2039597Y3960853D01*
X2039597Y3988615D01*
X2173023Y4122041D01*
X2227582Y4733267D02*
G01*
X2227582Y4490874D01*
X2238326Y4480130D01*
D10*
X2147445Y5181602D02*
G01*
X2147445Y5231310D01*
X1818566Y5231488D02*
G01*
X1818566Y5667682D01*
X927102Y5205402D02*
G01*
X953188Y5231488D01*
X1818566Y5231488D01*
X2111758Y5231488D02*
G01*
X2111758Y5302608D01*
X1818566Y5231488D02*
G01*
X2111758Y5231488D01*
X2111758Y5231488D02*
G01*
X2147267Y5231488D01*
X2147445Y5231310D01*
X2463802Y6273802D02*
G01*
X2571676Y6381676D01*
X2779245Y6381676D01*
X2834109Y6326812D01*
X2834109Y5486605D01*
X3327834Y4992880D01*
X3327834Y4934079D01*
X3367991Y5204487D02*
G01*
X3367991Y5716755D01*
X3370684Y5719447D01*
X2147445Y4914902D02*
G01*
X2147445Y4865194D01*
X2718843Y4331108D02*
G01*
X2774800Y4331108D01*
X2718843Y4381096D02*
G01*
X2767332Y4381096D01*
X2147445Y4865194D02*
G01*
X2165098Y4847541D01*
X2165098Y4482950D02*
G01*
X2165098Y4555670D01*
X3281784Y4521202D02*
G01*
X3281784Y4570910D01*
X2503096Y4496843D02*
G01*
X2503096Y4552800D01*
X2165098Y4847541D02*
G01*
X2143813Y4826256D01*
X2143813Y4576955D01*
X2165098Y4555670D01*
X2783563Y4833266D02*
G01*
X2503096Y4552800D01*
X2783563Y4833266D02*
G01*
X2992503Y4833266D01*
X3254860Y4570910D01*
X3281784Y4570910D01*
X2783563Y4833266D02*
G01*
X2783563Y4954170D01*
X2759661Y4978072D01*
X2456893Y4978072D01*
X2453540Y4981425D01*
X2369695Y4981425D01*
X2248359Y4860089D01*
X2177646Y4860089D01*
X2165098Y4847541D01*
X2774800Y4342716D02*
G01*
X2794205Y4342716D01*
X2774800Y4331108D02*
G01*
X2774800Y4342716D01*
X2774800Y4342716D02*
G01*
X2774800Y4373628D01*
X2767332Y4381096D01*
X3281784Y4398926D02*
G01*
X2907464Y4398926D01*
X2890573Y4382035D01*
X3281784Y4521202D02*
G01*
X3281784Y4398926D01*
X3281784Y4398926D02*
G01*
X3281784Y4286252D01*
X2385265Y4220364D02*
G01*
X2385265Y3992755D01*
X2645310Y3732710D01*
X2645310Y3683002D02*
G01*
X2645310Y3732710D01*
X3949700Y4801615D02*
G01*
X5817615Y4801615D01*
X6210300Y5194300D01*
X6210300Y5219700D01*
X3870858Y4608220D02*
G01*
X5725815Y4608220D01*
X6311900Y5194305D01*
X6311900Y5219700D01*
X4229100Y4178300D02*
G01*
X5092700Y4178300D01*
X5219700Y4051300D01*
X5219700Y4051300D02*
G01*
X5753100Y4584700D01*
X6172200Y4584700D01*
X1578508Y6266179D02*
G01*
X1578508Y6505351D01*
X1315720Y6766560D01*
X1261851Y6766560D01*
X1143000Y6648320D01*
X1143000Y5689600D01*
X1168400Y5664200D01*
X1181100Y5664200D01*
X3784600Y5549900D02*
G01*
X3864863Y5549900D01*
X4102100Y5295900D01*
D11*
X1678205Y4055595D02*
G01*
X1919404Y3814371D01*
X2003808Y3814371D01*
D13*
G01*
X3615756Y4965710D03*
G01*
X3775656Y4965694D03*
D14*
G01*
X2437358Y4281093D03*
G01*
X2437358Y4331106D03*
G01*
X2437358Y4381093D03*
G01*
X2437358Y4431106D03*
D15*
G01*
X2503100Y4496850D03*
G01*
X2553100Y4496850D03*
G01*
X2603099Y4496850D03*
G01*
X2653099Y4496850D03*
D16*
G01*
X2718850Y4431099D03*
G01*
X2718850Y4381099D03*
G01*
X2718850Y4331100D03*
G01*
X2718850Y4281100D03*
D15*
G01*
X2653099Y4215349D03*
G01*
X2603099Y4215349D03*
G01*
X2553100Y4215349D03*
G01*
X2503100Y4215349D03*
D17*
G01*
X2578100Y4356100D03*
D18*
G01*
X3652417Y5194300D03*
G01*
X3738982Y5194300D03*
D19*
G01*
X1463789Y3707711D03*
D20*
G01*
X1343798Y3707711D03*
G01*
X1243798Y3707711D03*
G01*
X1143798Y3707711D03*
G01*
X1043799Y3707711D03*
D19*
G01*
X923810Y3707709D03*
D21*
G01*
X2070100Y4482953D03*
D22*
G01*
X2165093Y4482955D03*
D23*
G01*
X1975109Y4482947D03*
D24*
G01*
X2165101Y4262935D03*
D23*
G01*
X1975096Y4262936D03*
D25*
G01*
X1029449Y4000500D03*
G01*
X920437Y4000500D03*
D26*
G01*
X1393294Y4000500D03*
G01*
X1502305Y4000500D03*
G01*
X2038426Y4914900D03*
G01*
X2147437Y4914900D03*
G01*
X1863194Y4000500D03*
G01*
X1972205Y4000500D03*
D25*
G01*
X2147437Y5181600D03*
G01*
X2038426Y5181600D03*
G01*
X2708805Y4914900D03*
G01*
X2599794Y4914900D03*
G01*
X2645305Y3683000D03*
G01*
X2536294Y3683000D03*
D18*
G01*
X1417217Y4495800D03*
G01*
X1503782Y4495800D03*
D27*
G01*
X995782Y4495800D03*
G01*
X909217Y4495800D03*
D18*
G01*
X2090317Y3305502D03*
G01*
X2176882Y3305502D03*
G01*
X3195217Y4521200D03*
G01*
X3281782Y4521200D03*
G01*
X3195217Y4286250D03*
G01*
X3281782Y4286250D03*
G01*
X3195217Y4051300D03*
G01*
X3281782Y4051300D03*
D27*
G01*
X2634082Y3305502D03*
G01*
X2547517Y3305502D03*
D28*
G01*
X2959975Y3289300D03*
G01*
X3110624Y3289300D03*
D29*
G01*
X761822Y3302685D03*
G01*
X1625803Y3302685D03*
G01*
X761822Y3682695D03*
G01*
X1625803Y3682695D03*
D30*
G01*
X927100Y5005400D03*
G01*
X927100Y5205399D03*
D31*
G01*
X3225800Y6273800D03*
D32*
G01*
X3225800Y6527800D03*
G01*
X2971800Y6273800D03*
G01*
X2971800Y6527800D03*
G01*
X2717800Y6273800D03*
G01*
X2717800Y6527800D03*
G01*
X2463800Y6273800D03*
G01*
X2463800Y6527800D03*
G01*
X6286500Y4902174D03*
D33*
G01*
X2385263Y4220362D03*
G01*
X2794203Y4342714D03*
G01*
X2890570Y4382033D03*
G01*
X3367989Y5204485D03*
G01*
X3370681Y5719445D03*
G01*
X3327831Y4934077D03*
G01*
X2111756Y5302605D03*
G01*
X1818563Y5667679D03*
G01*
X2238324Y4480128D03*
G01*
X2227579Y4733264D03*
G01*
X2173020Y4122038D03*
G01*
X2655061Y5361152D03*
G01*
X3352596Y4048455D03*
G01*
X2650820Y3991914D03*
G01*
X3085769Y4335957D03*
G01*
X3229254Y4733213D03*
G01*
X2592857Y5141645D03*
G01*
X3282188Y5225592D03*
G01*
X2846806Y5404891D03*
G01*
X2423363Y4665548D03*
G01*
X2357805Y4862576D03*
G01*
X2476703Y5025923D03*
G01*
X2827020Y3998493D03*
G01*
X2003806Y3814368D03*
G01*
X2639974Y5026507D03*
G01*
X3270427Y4623003D03*
G01*
X3230194Y4453737D03*
G01*
X2227249Y4179646D03*
G01*
X1674444Y4455032D03*
G01*
X2801340Y4473067D03*
G01*
X3712946Y4298391D03*
G01*
X2764409Y5227472D03*
G01*
X2194026Y5821934D03*
G01*
X1296339Y6716674D03*
G01*
X1244701Y5743803D03*
G01*
X2149119Y4995316D03*
G01*
X2203424Y4812233D03*
G01*
X2342311Y4581118D03*
G01*
X3123107Y4568799D03*
G01*
X2971800Y4648200D03*
G01*
X3392728Y4305680D03*
G01*
X1804162Y5827674D03*
G01*
X1297787Y5321300D03*
G01*
X1803145Y5744641D03*
G01*
X1732381Y5389092D03*
G01*
X2489454Y4746701D03*
G01*
X2429332Y4933569D03*
G01*
X2319909Y5841974D03*
G01*
X2967913Y4233113D03*
G01*
X2763316Y4165600D03*
G01*
X1578508Y6266484D03*
D34*
G01*
X3784600Y5549900D03*
G01*
X4102100Y5295900D03*
G01*
X3870858Y4608220D03*
G01*
X6311900Y5219700D03*
G01*
X3949700Y4801565D03*
G01*
X6210300Y5219700D03*
G01*
X4229100Y4178300D03*
G01*
X5219700Y4051300D03*
G01*
X6172200Y4584700D03*
G01*
X1181100Y5664200D03*
M02*
