G04 Layer: TopLayer*
G04 EasyEDA v6.5.46, 2025-01-28 17:14:02*
G04 Gerber Generator version 0.2*
G04 Scale: 100 percent, Rotated: No, Reflected: No *
G04 Dimensions in millimeters *
G04 leading zeros omitted , absolute positions ,4 integer and 5 decimal *
%FSLAX45Y45*%
%MOMM*%

%AMMACRO1*21,1,$1,$2,0,0,$3*%
%AMMACRO2*4,1,13,1,0.975,1,1.65,1.225,1.65,1.225,1.65,1.225,-1.65,1,-1.65,1,-0.975,-1,-0.975,-1,-1.65,-1.225,-1.65,-1.225,1.65,-1,1.65,-1,0.975,1,0.975,0*%
%ADD10C,0.1500*%
%ADD11C,0.3000*%
%ADD12C,0.2500*%
%ADD13R,0.8000X0.2800*%
%ADD14R,0.2800X0.8000*%
%ADD15MACRO1,0.54X0.7901X0.0000*%
%ADD16R,0.5400X0.7901*%
%ADD17MACRO1,0.54X0.7901X-90.0000*%
%ADD18MACRO1,0.54X0.7901X90.0000*%
%ADD19O,0.7489952X0.1999996*%
%ADD20MACRO2*%
%ADD21O,0.945007X0.5599938*%
%ADD22R,1.5000X2.4000*%
%ADD23R,3.5000X3.5000*%
%ADD24MACRO1,0.54X0.5656X-90.0000*%
%ADD25MACRO1,0.54X0.5656X90.0000*%
%ADD26MACRO1,0.864X0.8065X-90.0000*%
%ADD27R,3.3000X1.1999*%
%ADD28O,1.0999978000000001X1.6999966*%
%ADD29C,1.6000*%
%ADD30MACRO1,1.6998X1.6998X0.0000*%
%ADD31C,1.7000*%
%ADD32C,0.5000*%
%ADD33C,0.6200*%
%ADD34C,0.0131*%

%LPD*%
G36*
X2959100Y5701080D02*
G01*
X2954629Y5701995D01*
X2951683Y5703620D01*
X2949448Y5706110D01*
X2948127Y5709208D01*
X2946349Y5714796D01*
X2942844Y5720842D01*
X2938170Y5726023D01*
X2932531Y5730138D01*
X2926130Y5732983D01*
X2919323Y5734405D01*
X2915564Y5734608D01*
X2884170Y5734608D01*
X2880258Y5735370D01*
X2876956Y5737606D01*
X2468219Y6146342D01*
X2466086Y6149492D01*
X2465222Y6153200D01*
X2465832Y6156960D01*
X2467762Y6160262D01*
X2470759Y6162598D01*
X2474417Y6163665D01*
X2481478Y6164326D01*
X2495346Y6167475D01*
X2508707Y6172403D01*
X2521305Y6178956D01*
X2532938Y6187084D01*
X2543454Y6196634D01*
X2552649Y6207455D01*
X2560421Y6219393D01*
X2566568Y6232194D01*
X2571038Y6245656D01*
X2573782Y6259626D01*
X2574696Y6273800D01*
X2573782Y6287973D01*
X2571038Y6301943D01*
X2566568Y6315405D01*
X2560421Y6328206D01*
X2552649Y6340144D01*
X2543708Y6350660D01*
X2541828Y6353962D01*
X2541320Y6357772D01*
X2542235Y6361480D01*
X2544470Y6364630D01*
X2547670Y6366662D01*
X2551430Y6367373D01*
X2590292Y6367373D01*
X2597759Y6368186D01*
X2604363Y6370320D01*
X2610510Y6373876D01*
X2614726Y6377482D01*
X2661716Y6424472D01*
X2665120Y6426708D01*
X2669082Y6427470D01*
X2673045Y6426606D01*
X2679496Y6423710D01*
X2693111Y6419697D01*
X2707132Y6417411D01*
X2721356Y6416954D01*
X2735478Y6418326D01*
X2749346Y6421475D01*
X2762707Y6426403D01*
X2775305Y6432956D01*
X2786938Y6441084D01*
X2797454Y6450634D01*
X2806649Y6461455D01*
X2814421Y6473393D01*
X2820568Y6486194D01*
X2825038Y6499656D01*
X2827782Y6513626D01*
X2828696Y6527800D01*
X2827782Y6541973D01*
X2825038Y6555943D01*
X2820568Y6569405D01*
X2814421Y6582206D01*
X2809697Y6589420D01*
X2808173Y6593484D01*
X2808478Y6597802D01*
X2810560Y6601612D01*
X2814015Y6604203D01*
X2818231Y6605117D01*
X2871165Y6605117D01*
X2875534Y6604152D01*
X2879039Y6601409D01*
X2881020Y6597446D01*
X2881122Y6592976D01*
X2878886Y6588302D01*
X2871876Y6575907D01*
X2866542Y6562750D01*
X2862935Y6548983D01*
X2861157Y6534912D01*
X2861157Y6520688D01*
X2862935Y6506616D01*
X2866542Y6492849D01*
X2871876Y6479692D01*
X2878886Y6467297D01*
X2887370Y6455918D01*
X2897225Y6445707D01*
X2908350Y6436868D01*
X2920492Y6429502D01*
X2933496Y6423710D01*
X2947111Y6419697D01*
X2961132Y6417411D01*
X2975356Y6416954D01*
X2989478Y6418326D01*
X3003346Y6421475D01*
X3017367Y6426657D01*
X3021126Y6427266D01*
X3024886Y6426454D01*
X3028035Y6424320D01*
X3073095Y6379260D01*
X3075330Y6375958D01*
X3076092Y6372047D01*
X3076092Y6349593D01*
X3075279Y6345580D01*
X3072892Y6342227D01*
X3069437Y6340094D01*
X3065373Y6339484D01*
X3061411Y6340500D01*
X3058210Y6343040D01*
X3051454Y6350965D01*
X3040938Y6360515D01*
X3029305Y6368643D01*
X3016707Y6375196D01*
X3003346Y6380124D01*
X2989478Y6383274D01*
X2975356Y6384645D01*
X2961132Y6384188D01*
X2947111Y6381902D01*
X2933496Y6377838D01*
X2920492Y6372098D01*
X2908350Y6364732D01*
X2897225Y6355892D01*
X2887370Y6345682D01*
X2878886Y6334302D01*
X2871876Y6321907D01*
X2866542Y6308750D01*
X2862935Y6294983D01*
X2861157Y6280912D01*
X2861157Y6266688D01*
X2862935Y6252616D01*
X2866542Y6238849D01*
X2871876Y6225692D01*
X2878886Y6213297D01*
X2887370Y6201918D01*
X2897225Y6191707D01*
X2908350Y6182868D01*
X2920492Y6175502D01*
X2933496Y6169710D01*
X2947111Y6165697D01*
X2961132Y6163411D01*
X2975356Y6162954D01*
X2989478Y6164326D01*
X3003346Y6167475D01*
X3006496Y6168644D01*
X3010306Y6169253D01*
X3014116Y6168390D01*
X3017316Y6166205D01*
X3019399Y6162903D01*
X3020161Y6159093D01*
X3020161Y5714542D01*
X3019399Y5710682D01*
X3017164Y5707380D01*
X3013862Y5705195D01*
X3010001Y5704382D01*
X2974644Y5704382D01*
X2968345Y5703671D01*
X2962452Y5701639D01*
G37*

%LPC*%
G36*
X2668930Y6174384D02*
G01*
X2668930Y6224930D01*
X2618333Y6224930D01*
X2624886Y6213297D01*
X2633370Y6201918D01*
X2643225Y6191707D01*
X2654350Y6182868D01*
X2666492Y6175502D01*
G37*
G36*
X2766669Y6174486D02*
G01*
X2775305Y6178956D01*
X2786938Y6187084D01*
X2797454Y6196634D01*
X2806649Y6207455D01*
X2814421Y6219393D01*
X2817114Y6224930D01*
X2766669Y6224930D01*
G37*
G36*
X2766669Y6322669D02*
G01*
X2817114Y6322669D01*
X2814421Y6328206D01*
X2806649Y6340144D01*
X2797454Y6350965D01*
X2786938Y6360515D01*
X2775305Y6368643D01*
X2766669Y6373114D01*
G37*
G36*
X2618333Y6322669D02*
G01*
X2668930Y6322669D01*
X2668930Y6373215D01*
X2666492Y6372098D01*
X2654350Y6364732D01*
X2643225Y6355892D01*
X2633370Y6345682D01*
X2624886Y6334302D01*
G37*

%LPD*%
G36*
X2823260Y5142179D02*
G01*
X2819349Y5142941D01*
X2816098Y5145176D01*
X2813862Y5148478D01*
X2813100Y5152339D01*
X2813100Y5166817D01*
X2812389Y5173116D01*
X2810408Y5178704D01*
X2809240Y5181295D01*
X2808884Y5184089D01*
X2808884Y5202072D01*
X2782214Y5202072D01*
X2781096Y5198618D01*
X2778810Y5195773D01*
X2775712Y5193944D01*
X2772156Y5193284D01*
X2734360Y5193284D01*
X2730449Y5194046D01*
X2727198Y5196281D01*
X2724962Y5199583D01*
X2724200Y5203444D01*
X2724962Y5207355D01*
X2727198Y5210657D01*
X2768346Y5251805D01*
X2771648Y5253990D01*
X2775508Y5254752D01*
X2808884Y5254752D01*
X2808884Y5288127D01*
X2809646Y5291988D01*
X2811830Y5295290D01*
X2818231Y5301691D01*
X2821533Y5303875D01*
X2825242Y5304840D01*
X2826054Y5308549D01*
X2829356Y5312816D01*
X2832658Y5315051D01*
X2836570Y5315813D01*
X2858312Y5315813D01*
X2865780Y5316575D01*
X2872384Y5318760D01*
X2878531Y5322316D01*
X2882747Y5325872D01*
X3076803Y5519978D01*
X3081528Y5525770D01*
X3084677Y5532018D01*
X3086557Y5538876D01*
X3086963Y5544362D01*
X3086963Y5826556D01*
X3087725Y5830468D01*
X3089960Y5833770D01*
X3093262Y5835954D01*
X3097123Y5836716D01*
X3101035Y5835954D01*
X3104337Y5833770D01*
X3232912Y5705144D01*
X3234893Y5702401D01*
X3235858Y5699099D01*
X3235655Y5695696D01*
X3234334Y5692546D01*
X3232556Y5689701D01*
X3230626Y5684266D01*
X3229914Y5677916D01*
X3229914Y5625084D01*
X3230626Y5618734D01*
X3232556Y5613298D01*
X3235655Y5608370D01*
X3239719Y5604306D01*
X3243275Y5602071D01*
X3246374Y5599023D01*
X3247898Y5594959D01*
X3247593Y5590641D01*
X3245561Y5586831D01*
X3242106Y5584240D01*
X3237839Y5583326D01*
X3231642Y5583326D01*
X3224174Y5582513D01*
X3217570Y5580380D01*
X3211423Y5576824D01*
X3207207Y5573217D01*
X2950565Y5316575D01*
X2945231Y5310682D01*
X2941726Y5304688D01*
X2940659Y5301335D01*
X2938526Y5297678D01*
X2935122Y5295188D01*
X2931007Y5294325D01*
X2908808Y5294325D01*
X2902458Y5293614D01*
X2897225Y5292394D01*
X2891993Y5293614D01*
X2885694Y5294325D01*
X2858820Y5294325D01*
X2852470Y5293614D01*
X2847238Y5292394D01*
X2842006Y5293614D01*
X2835554Y5294274D01*
X2835554Y5283098D01*
X2834995Y5279745D01*
X2833065Y5274157D01*
X2832354Y5267858D01*
X2832354Y5188966D01*
X2833065Y5182666D01*
X2834995Y5177078D01*
X2835554Y5173726D01*
X2835554Y5152339D01*
X2834792Y5148478D01*
X2832608Y5145176D01*
X2829306Y5142941D01*
X2825394Y5142179D01*
G37*

%LPD*%
G36*
X1160068Y4669485D02*
G01*
X1156208Y4670247D01*
X1152906Y4672431D01*
X883716Y4941620D01*
X881532Y4944922D01*
X880770Y4948783D01*
X880770Y4959045D01*
X870508Y4959045D01*
X866597Y4959807D01*
X863295Y4962042D01*
X859586Y4965750D01*
X857402Y4969052D01*
X856640Y4972913D01*
X856640Y5041595D01*
X857402Y5045456D01*
X859586Y5048758D01*
X862888Y5050993D01*
X866800Y5051755D01*
X880770Y5051755D01*
X880770Y5095392D01*
X881481Y5099151D01*
X883564Y5102352D01*
X886663Y5104587D01*
X890371Y5105501D01*
X894181Y5104993D01*
X899718Y5103114D01*
X913282Y5100421D01*
X927100Y5099507D01*
X940917Y5100421D01*
X954481Y5103114D01*
X960018Y5104993D01*
X963828Y5105501D01*
X967536Y5104587D01*
X970635Y5102352D01*
X972718Y5099151D01*
X973429Y5095392D01*
X973429Y5051755D01*
X1022045Y5051755D01*
X1018794Y5058359D01*
X1011123Y5069840D01*
X1001979Y5080254D01*
X991565Y5089398D01*
X980287Y5096967D01*
X977442Y5099761D01*
X975969Y5103418D01*
X975969Y5107381D01*
X977442Y5111038D01*
X980287Y5113832D01*
X991565Y5121402D01*
X1001979Y5130546D01*
X1011123Y5140960D01*
X1018794Y5152440D01*
X1024940Y5164886D01*
X1029360Y5177993D01*
X1032103Y5191556D01*
X1032967Y5205374D01*
X1032103Y5219242D01*
X1029360Y5232806D01*
X1024839Y5246116D01*
X1023772Y5250180D01*
X1024483Y5254294D01*
X1026769Y5257800D01*
X1346301Y5577332D01*
X1351076Y5583275D01*
X1353870Y5588355D01*
X1356309Y5591352D01*
X1359662Y5593181D01*
X1362303Y5594045D01*
X1366062Y5594502D01*
X1369771Y5593588D01*
X1372819Y5591352D01*
X1374851Y5588101D01*
X1375562Y5584393D01*
X1375562Y5563260D01*
X1376273Y5556961D01*
X1378204Y5551474D01*
X1381302Y5546598D01*
X1385366Y5542483D01*
X1390294Y5539435D01*
X1395730Y5537504D01*
X1402080Y5536793D01*
X1423416Y5536793D01*
X1429766Y5537504D01*
X1435150Y5539384D01*
X1435150Y5660085D01*
X1396288Y5660085D01*
X1392428Y5660898D01*
X1389126Y5663082D01*
X1386941Y5666384D01*
X1386128Y5671464D01*
X1384604Y5678779D01*
X1382471Y5683554D01*
X1381607Y5687720D01*
X1382471Y5691835D01*
X1384604Y5696610D01*
X1386128Y5703976D01*
X1386128Y5711444D01*
X1384604Y5718759D01*
X1381556Y5725617D01*
X1377137Y5731713D01*
X1371549Y5736691D01*
X1367790Y5738926D01*
X1364640Y5741720D01*
X1362913Y5745581D01*
X1362913Y5749798D01*
X1364640Y5753658D01*
X1367790Y5756503D01*
X1371549Y5758688D01*
X1377137Y5763717D01*
X1381556Y5769762D01*
X1384604Y5776620D01*
X1386128Y5783935D01*
X1386941Y5789015D01*
X1389126Y5792317D01*
X1392428Y5794552D01*
X1396288Y5795314D01*
X1435150Y5795314D01*
X1435150Y5916015D01*
X1429766Y5917895D01*
X1423416Y5918606D01*
X1402080Y5918606D01*
X1395730Y5917895D01*
X1390294Y5916015D01*
X1385366Y5912916D01*
X1381302Y5908802D01*
X1378204Y5903925D01*
X1376273Y5898438D01*
X1375562Y5892139D01*
X1375562Y5871006D01*
X1374851Y5867298D01*
X1372819Y5864047D01*
X1369771Y5861812D01*
X1366062Y5860897D01*
X1362303Y5861354D01*
X1357934Y5862777D01*
X1349959Y5863590D01*
X1338580Y5863590D01*
X1334668Y5864402D01*
X1331366Y5866587D01*
X761949Y6436004D01*
X759764Y6439306D01*
X759002Y6443167D01*
X759002Y6456578D01*
X759663Y6460185D01*
X761593Y6463385D01*
X764540Y6465620D01*
X768096Y6466636D01*
X771804Y6466382D01*
X781862Y6463639D01*
X791616Y6462776D01*
X829259Y6462776D01*
X839063Y6463639D01*
X848106Y6466078D01*
X856640Y6470040D01*
X864209Y6475374D01*
X867816Y6476949D01*
X871778Y6477050D01*
X875436Y6475628D01*
X878992Y6473393D01*
X884428Y6471513D01*
X890778Y6470802D01*
X921359Y6470802D01*
X921359Y6550355D01*
X876147Y6550355D01*
X872236Y6551117D01*
X868934Y6553301D01*
X864311Y6557975D01*
X856640Y6563359D01*
X849833Y6566509D01*
X846734Y6568744D01*
X844702Y6571996D01*
X843940Y6575704D01*
X843940Y6596329D01*
X840435Y6596329D01*
X840435Y6580733D01*
X839571Y6576618D01*
X837133Y6573215D01*
X833526Y6571081D01*
X829259Y6570624D01*
X791514Y6570573D01*
X787349Y6571081D01*
X783742Y6573215D01*
X781304Y6576618D01*
X780440Y6580733D01*
X780440Y6596329D01*
X769162Y6596329D01*
X765251Y6597142D01*
X761949Y6599326D01*
X759764Y6602628D01*
X759002Y6606489D01*
X759002Y6613753D01*
X759764Y6617614D01*
X761949Y6620916D01*
X775106Y6634073D01*
X777646Y6635902D01*
X780592Y6636918D01*
X781608Y6639864D01*
X783437Y6642404D01*
X800862Y6659829D01*
X804113Y6662013D01*
X808024Y6662775D01*
X830224Y6662826D01*
X834136Y6662064D01*
X837437Y6659880D01*
X839622Y6656578D01*
X840435Y6652666D01*
X840435Y6637070D01*
X843940Y6637070D01*
X843940Y6657644D01*
X844702Y6661403D01*
X846734Y6664655D01*
X849833Y6666890D01*
X856640Y6670040D01*
X864311Y6675424D01*
X868934Y6680098D01*
X872236Y6682282D01*
X876147Y6683044D01*
X921359Y6683044D01*
X921359Y6763918D01*
X922121Y6767830D01*
X924306Y6771081D01*
X927608Y6773316D01*
X931519Y6774078D01*
X998880Y6774078D01*
X1002741Y6773316D01*
X1006043Y6771081D01*
X1008278Y6767830D01*
X1009040Y6763918D01*
X1009040Y6683044D01*
X1054252Y6683044D01*
X1058113Y6682282D01*
X1061415Y6680098D01*
X1069340Y6672224D01*
X1070813Y6668617D01*
X1070813Y6664756D01*
X1069340Y6661150D01*
X1059434Y6651345D01*
X1054049Y6643624D01*
X1050086Y6635140D01*
X1047648Y6626047D01*
X1046835Y6616700D01*
X1047648Y6607352D01*
X1050086Y6598259D01*
X1054049Y6589775D01*
X1059434Y6582054D01*
X1069340Y6572250D01*
X1070813Y6568643D01*
X1070813Y6564782D01*
X1069340Y6561175D01*
X1061415Y6553301D01*
X1058113Y6551117D01*
X1054252Y6550355D01*
X1009040Y6550355D01*
X1009040Y6470802D01*
X1039621Y6470802D01*
X1045921Y6471513D01*
X1051407Y6473393D01*
X1054912Y6475628D01*
X1058621Y6477050D01*
X1062583Y6476949D01*
X1066190Y6475374D01*
X1073759Y6470040D01*
X1082243Y6466078D01*
X1091336Y6463639D01*
X1101140Y6462776D01*
X1138732Y6462776D01*
X1148537Y6463639D01*
X1157630Y6466078D01*
X1166114Y6470040D01*
X1173835Y6475425D01*
X1180439Y6482080D01*
X1185824Y6489750D01*
X1189786Y6498285D01*
X1192225Y6507327D01*
X1193038Y6516674D01*
X1192225Y6526072D01*
X1189786Y6535115D01*
X1185824Y6543649D01*
X1180439Y6551320D01*
X1170584Y6561074D01*
X1169111Y6564528D01*
X1169009Y6568338D01*
X1170330Y6571894D01*
X1172819Y6574688D01*
X1177544Y6577736D01*
X1180846Y6578244D01*
X1394002Y6578244D01*
X1397863Y6577482D01*
X1401165Y6575298D01*
X1403400Y6571945D01*
X1404162Y6568084D01*
X1404112Y6560362D01*
X1443380Y6560362D01*
X1443380Y6568084D01*
X1444142Y6571996D01*
X1446377Y6575298D01*
X1449679Y6577482D01*
X1453540Y6578244D01*
X1485442Y6578244D01*
X1489303Y6577482D01*
X1492605Y6575298D01*
X1494840Y6571996D01*
X1495602Y6568084D01*
X1495602Y6560362D01*
X1502918Y6560362D01*
X1506829Y6559600D01*
X1510131Y6557365D01*
X1512316Y6554063D01*
X1513078Y6550202D01*
X1513078Y6530797D01*
X1512316Y6526936D01*
X1510131Y6523634D01*
X1506829Y6521399D01*
X1502918Y6520637D01*
X1495602Y6520637D01*
X1495602Y6487566D01*
X1508404Y6487566D01*
X1514754Y6488328D01*
X1520647Y6490360D01*
X1524000Y6490919D01*
X1527352Y6490360D01*
X1534007Y6488023D01*
X1537309Y6486093D01*
X1539697Y6483096D01*
X1540865Y6478320D01*
X1543050Y6471107D01*
X1546606Y6464503D01*
X1551381Y6458661D01*
X1557223Y6453886D01*
X1563827Y6450330D01*
X1571040Y6448145D01*
X1579016Y6447383D01*
X1585772Y6447383D01*
X1589633Y6446621D01*
X1592935Y6444386D01*
X2213152Y5824220D01*
X2215337Y5820918D01*
X2216099Y5817006D01*
X2215337Y5813145D01*
X2213152Y5809843D01*
X2209850Y5807659D01*
X2205939Y5806846D01*
X2170836Y5806846D01*
X2164486Y5806135D01*
X2158593Y5804103D01*
X2155240Y5803493D01*
X2151888Y5804103D01*
X2145995Y5806135D01*
X2139696Y5806846D01*
X2126843Y5806846D01*
X2126843Y5773826D01*
X2134158Y5773826D01*
X2138070Y5773013D01*
X2141372Y5770829D01*
X2143556Y5767527D01*
X2144318Y5763666D01*
X2144318Y5744260D01*
X2143556Y5740400D01*
X2141372Y5737098D01*
X2138070Y5734862D01*
X2134158Y5734100D01*
X2126843Y5734100D01*
X2126843Y5729528D01*
X2126081Y5725668D01*
X2123846Y5722366D01*
X2120544Y5720130D01*
X2116683Y5719368D01*
X2084781Y5719368D01*
X2080920Y5720130D01*
X2077618Y5722366D01*
X2075434Y5725668D01*
X2074621Y5729528D01*
X2074621Y5734100D01*
X2035302Y5734100D01*
X2035302Y5729528D01*
X2034539Y5725668D01*
X2032355Y5722366D01*
X2029053Y5720130D01*
X2025142Y5719368D01*
X1862074Y5719368D01*
X1858416Y5720080D01*
X1855266Y5722010D01*
X1852980Y5724956D01*
X1851964Y5728512D01*
X1852269Y5732221D01*
X1853184Y5735574D01*
X1853996Y5744616D01*
X1853184Y5753709D01*
X1850745Y5762498D01*
X1846834Y5770727D01*
X1838909Y5781700D01*
X1838096Y5785662D01*
X1838909Y5789676D01*
X1841246Y5793028D01*
X1842465Y5794197D01*
X1847850Y5801563D01*
X1851761Y5809792D01*
X1854200Y5818581D01*
X1855012Y5827674D01*
X1854200Y5836767D01*
X1851761Y5845556D01*
X1847850Y5853785D01*
X1842465Y5861151D01*
X1835861Y5867450D01*
X1828292Y5872480D01*
X1819859Y5876036D01*
X1810969Y5878068D01*
X1801875Y5878474D01*
X1792833Y5877255D01*
X1784146Y5874461D01*
X1776120Y5870143D01*
X1769160Y5864555D01*
X1766316Y5862929D01*
X1763115Y5862320D01*
X1751888Y5863590D01*
X1698040Y5863590D01*
X1690065Y5862777D01*
X1685696Y5861354D01*
X1681937Y5860897D01*
X1678228Y5861812D01*
X1675130Y5864047D01*
X1673098Y5867298D01*
X1672386Y5871006D01*
X1672386Y5892139D01*
X1671675Y5898438D01*
X1669796Y5903925D01*
X1666697Y5908802D01*
X1662582Y5912916D01*
X1657705Y5916015D01*
X1652219Y5917895D01*
X1645920Y5918606D01*
X1624584Y5918606D01*
X1618234Y5917895D01*
X1612849Y5916015D01*
X1612849Y5795314D01*
X1651660Y5795314D01*
X1655572Y5794552D01*
X1658874Y5792317D01*
X1661058Y5789015D01*
X1661820Y5783935D01*
X1663395Y5776620D01*
X1665528Y5771845D01*
X1666392Y5767679D01*
X1665528Y5763564D01*
X1663395Y5758789D01*
X1661820Y5751474D01*
X1661820Y5743956D01*
X1663395Y5736640D01*
X1665528Y5731814D01*
X1666392Y5727700D01*
X1665528Y5723585D01*
X1663395Y5718759D01*
X1661820Y5711444D01*
X1661820Y5703976D01*
X1663395Y5696610D01*
X1665528Y5691835D01*
X1666392Y5687720D01*
X1665528Y5683554D01*
X1663395Y5678779D01*
X1661820Y5671464D01*
X1661058Y5666384D01*
X1658874Y5663082D01*
X1655572Y5660898D01*
X1651660Y5660085D01*
X1612849Y5660085D01*
X1612849Y5539384D01*
X1618234Y5537504D01*
X1624584Y5536793D01*
X1645920Y5536793D01*
X1652219Y5537504D01*
X1657705Y5539435D01*
X1662582Y5542483D01*
X1666697Y5546598D01*
X1669796Y5551474D01*
X1671675Y5556961D01*
X1672386Y5563260D01*
X1672386Y5584393D01*
X1673098Y5588101D01*
X1675130Y5591352D01*
X1678228Y5593588D01*
X1681937Y5594502D01*
X1685696Y5594045D01*
X1690065Y5592622D01*
X1698040Y5591810D01*
X1702307Y5591810D01*
X1706219Y5590997D01*
X1709521Y5588812D01*
X1775206Y5523077D01*
X1781454Y5517997D01*
X1788058Y5514441D01*
X1795272Y5512257D01*
X1803247Y5511495D01*
X1982470Y5511495D01*
X1986127Y5510834D01*
X1989277Y5508904D01*
X1991512Y5506008D01*
X1992782Y5500928D01*
X1994662Y5495493D01*
X1997760Y5490565D01*
X2001824Y5486501D01*
X2006752Y5483402D01*
X2012188Y5481523D01*
X2018538Y5480812D01*
X2098040Y5480812D01*
X2104339Y5481523D01*
X2109825Y5483402D01*
X2114702Y5486501D01*
X2118817Y5490565D01*
X2121865Y5495493D01*
X2123998Y5501538D01*
X2126132Y5505094D01*
X2129536Y5507532D01*
X2133600Y5508345D01*
X2137664Y5507532D01*
X2141067Y5505094D01*
X2143201Y5501538D01*
X2145334Y5495493D01*
X2148382Y5490565D01*
X2152497Y5486501D01*
X2157374Y5483402D01*
X2162860Y5481523D01*
X2166518Y5481116D01*
X2170023Y5479999D01*
X2172970Y5477764D01*
X2174849Y5474614D01*
X2175510Y5471007D01*
X2175510Y5417820D01*
X2174748Y5413959D01*
X2172563Y5410657D01*
X2118258Y5356352D01*
X2114753Y5354066D01*
X2100427Y5352186D01*
X2091740Y5349392D01*
X2083714Y5345074D01*
X2076602Y5339384D01*
X2070607Y5332526D01*
X2065934Y5324652D01*
X2062734Y5316118D01*
X2061108Y5307177D01*
X2061108Y5298033D01*
X2062734Y5289092D01*
X2065934Y5280558D01*
X2070607Y5272684D01*
X2076602Y5265826D01*
X2083714Y5260136D01*
X2091740Y5255818D01*
X2100427Y5253024D01*
X2109470Y5251805D01*
X2118563Y5252212D01*
X2127453Y5254244D01*
X2135886Y5257800D01*
X2143455Y5262829D01*
X2150059Y5269128D01*
X2155444Y5276494D01*
X2159355Y5284724D01*
X2161794Y5293512D01*
X2162657Y5302910D01*
X2163572Y5306314D01*
X2165604Y5309209D01*
X2232202Y5375808D01*
X2233930Y5377891D01*
X2237130Y5380532D01*
X2241092Y5381650D01*
X2245207Y5381091D01*
X2248712Y5378958D01*
X2251100Y5375554D01*
X2251964Y5371541D01*
X2251964Y5071821D01*
X2251202Y5067960D01*
X2248966Y5064658D01*
X2206650Y5022291D01*
X2202992Y5019954D01*
X2198674Y5019344D01*
X2194509Y5020614D01*
X2191258Y5023510D01*
X2187448Y5028793D01*
X2180844Y5035092D01*
X2173224Y5040122D01*
X2164842Y5043678D01*
X2155952Y5045710D01*
X2146858Y5046116D01*
X2137816Y5044897D01*
X2129129Y5042103D01*
X2121103Y5037785D01*
X2113991Y5032095D01*
X2107946Y5025237D01*
X2103272Y5017363D01*
X2100072Y5008829D01*
X2098446Y4999888D01*
X2098446Y4990744D01*
X2098954Y4987950D01*
X2098903Y4983937D01*
X2097278Y4980279D01*
X2094382Y4977536D01*
X2090013Y4974793D01*
X2085898Y4970729D01*
X2082850Y4965801D01*
X2080920Y4960366D01*
X2080209Y4954016D01*
X2080209Y4901184D01*
X2080920Y4894834D01*
X2082850Y4889398D01*
X2085898Y4884470D01*
X2090013Y4880406D01*
X2098548Y4875479D01*
X2100783Y4872990D01*
X2102104Y4869891D01*
X2103932Y4864303D01*
X2107387Y4858258D01*
X2112060Y4853076D01*
X2114600Y4851044D01*
X2120036Y4847894D01*
X2122119Y4846269D01*
X2149805Y4818634D01*
X2151989Y4815332D01*
X2152751Y4811471D01*
X2152751Y4807661D01*
X2154377Y4798720D01*
X2157577Y4790186D01*
X2162251Y4782312D01*
X2168296Y4775454D01*
X2175408Y4769764D01*
X2177389Y4768697D01*
X2180234Y4766411D01*
X2182063Y4763312D01*
X2182723Y4759756D01*
X2182063Y4756200D01*
X2178558Y4746802D01*
X2176932Y4737811D01*
X2176932Y4728718D01*
X2177542Y4725212D01*
X2177542Y4721453D01*
X2176119Y4717999D01*
X2173579Y4715205D01*
X2170176Y4713579D01*
X2166416Y4713325D01*
X2162098Y4713782D01*
X2106676Y4713782D01*
X2100376Y4713071D01*
X2094890Y4711192D01*
X2090013Y4708093D01*
X2085898Y4704029D01*
X2082850Y4699101D01*
X2080920Y4693666D01*
X2080209Y4687316D01*
X2080209Y4679645D01*
X2079447Y4675733D01*
X2077262Y4672431D01*
X2073960Y4670247D01*
X2070049Y4669485D01*
G37*

%LPC*%
G36*
X973429Y4910429D02*
G01*
X980033Y4913680D01*
X991565Y4921402D01*
X1001979Y4930546D01*
X1011123Y4940960D01*
X1018794Y4952441D01*
X1022045Y4959045D01*
X973429Y4959045D01*
G37*
G36*
X1618081Y5268366D02*
G01*
X1625346Y5268366D01*
X1625346Y5301437D01*
X1591614Y5301437D01*
X1591614Y5294884D01*
X1592326Y5288534D01*
X1594256Y5283098D01*
X1597355Y5278170D01*
X1601419Y5274106D01*
X1606346Y5271008D01*
X1611782Y5269128D01*
G37*
G36*
X1473454Y5268366D02*
G01*
X1480718Y5268366D01*
X1487017Y5269128D01*
X1492453Y5271008D01*
X1497380Y5274106D01*
X1501444Y5278170D01*
X1504543Y5283098D01*
X1506474Y5288534D01*
X1507185Y5294884D01*
X1507185Y5301437D01*
X1473454Y5301437D01*
G37*
G36*
X1338681Y5268366D02*
G01*
X1394155Y5268366D01*
X1400454Y5269128D01*
X1406347Y5271160D01*
X1409700Y5271719D01*
X1413052Y5271160D01*
X1418945Y5269128D01*
X1425244Y5268366D01*
X1432509Y5268366D01*
X1432509Y5301437D01*
X1430782Y5301437D01*
X1426870Y5302199D01*
X1423568Y5304434D01*
X1421384Y5307736D01*
X1420622Y5311597D01*
X1420622Y5331002D01*
X1421384Y5334863D01*
X1423568Y5338165D01*
X1426870Y5340400D01*
X1430782Y5341162D01*
X1432509Y5341162D01*
X1432509Y5374182D01*
X1425244Y5374182D01*
X1418945Y5373471D01*
X1413052Y5371439D01*
X1409700Y5370880D01*
X1406347Y5371439D01*
X1400454Y5373471D01*
X1394155Y5374182D01*
X1338681Y5374182D01*
X1332382Y5373471D01*
X1326946Y5371592D01*
X1324203Y5369864D01*
X1321206Y5368594D01*
X1317955Y5368340D01*
X1313484Y5369661D01*
X1304594Y5371693D01*
X1295501Y5372100D01*
X1286459Y5370880D01*
X1277772Y5368086D01*
X1269746Y5363768D01*
X1262634Y5358079D01*
X1256639Y5351221D01*
X1251966Y5343347D01*
X1248765Y5334812D01*
X1247140Y5325872D01*
X1247140Y5316728D01*
X1248765Y5307787D01*
X1251966Y5299252D01*
X1256639Y5291378D01*
X1262634Y5284520D01*
X1269746Y5278831D01*
X1277772Y5274513D01*
X1286459Y5271719D01*
X1295501Y5270500D01*
X1304594Y5270906D01*
X1313484Y5272938D01*
X1317955Y5274259D01*
X1321206Y5274005D01*
X1324203Y5272735D01*
X1326946Y5271008D01*
X1332382Y5269128D01*
G37*
G36*
X1666290Y5268366D02*
G01*
X1673555Y5268366D01*
X1679854Y5269128D01*
X1685747Y5271160D01*
X1689100Y5271719D01*
X1692452Y5271160D01*
X1698345Y5269128D01*
X1704644Y5268366D01*
X1760118Y5268366D01*
X1766417Y5269128D01*
X1771853Y5271008D01*
X1776780Y5274106D01*
X1780844Y5278170D01*
X1783943Y5283098D01*
X1785874Y5288534D01*
X1786585Y5294884D01*
X1786585Y5347716D01*
X1785874Y5354066D01*
X1783943Y5359501D01*
X1781352Y5363667D01*
X1779879Y5367578D01*
X1780133Y5371744D01*
X1782419Y5380024D01*
X1783232Y5389067D01*
X1782419Y5398160D01*
X1779981Y5406948D01*
X1776069Y5415178D01*
X1770684Y5422544D01*
X1764080Y5428843D01*
X1756511Y5433872D01*
X1748078Y5437479D01*
X1739188Y5439511D01*
X1730095Y5439918D01*
X1721053Y5438698D01*
X1712366Y5435854D01*
X1704339Y5431536D01*
X1697228Y5425846D01*
X1691233Y5418988D01*
X1686560Y5411165D01*
X1683359Y5402630D01*
X1681734Y5393639D01*
X1681734Y5384342D01*
X1680921Y5380482D01*
X1678736Y5377180D01*
X1675434Y5374995D01*
X1671574Y5374182D01*
X1666290Y5374182D01*
X1666290Y5341162D01*
X1668018Y5341162D01*
X1671929Y5340400D01*
X1675231Y5338165D01*
X1677416Y5334863D01*
X1678178Y5331002D01*
X1678178Y5311597D01*
X1677416Y5307736D01*
X1675231Y5304434D01*
X1671929Y5302199D01*
X1668018Y5301437D01*
X1666290Y5301437D01*
G37*
G36*
X1591614Y5341162D02*
G01*
X1625346Y5341162D01*
X1625346Y5374182D01*
X1618081Y5374182D01*
X1611782Y5373471D01*
X1606346Y5371592D01*
X1601419Y5368493D01*
X1597355Y5364429D01*
X1594256Y5359501D01*
X1592326Y5354066D01*
X1591614Y5347716D01*
G37*
G36*
X1473454Y5341162D02*
G01*
X1507185Y5341162D01*
X1507185Y5347716D01*
X1506474Y5354066D01*
X1504543Y5359501D01*
X1501444Y5364429D01*
X1497380Y5368493D01*
X1492453Y5371592D01*
X1487017Y5373471D01*
X1480718Y5374182D01*
X1473454Y5374182D01*
G37*
G36*
X2035302Y5773826D02*
G01*
X2074621Y5773826D01*
X2074621Y5806846D01*
X2061819Y5806846D01*
X2055469Y5806135D01*
X2050034Y5804255D01*
X2045106Y5801156D01*
X2041042Y5797092D01*
X2037943Y5792165D01*
X2036013Y5786729D01*
X2035302Y5780379D01*
G37*
G36*
X1430578Y6144666D02*
G01*
X1443380Y6144666D01*
X1443380Y6177737D01*
X1404061Y6177737D01*
X1404061Y6171184D01*
X1404772Y6164834D01*
X1406702Y6159398D01*
X1409801Y6154470D01*
X1413865Y6150406D01*
X1418793Y6147308D01*
X1424228Y6145428D01*
G37*
G36*
X1495602Y6144666D02*
G01*
X1508404Y6144666D01*
X1514754Y6145428D01*
X1520647Y6147460D01*
X1524000Y6148019D01*
X1527352Y6147460D01*
X1533245Y6145428D01*
X1539595Y6144666D01*
X1617421Y6144666D01*
X1623771Y6145428D01*
X1629206Y6147308D01*
X1634134Y6150406D01*
X1638198Y6154470D01*
X1641297Y6159398D01*
X1643227Y6164834D01*
X1643938Y6171184D01*
X1643938Y6224016D01*
X1643227Y6230366D01*
X1641297Y6235801D01*
X1638198Y6240729D01*
X1634134Y6244793D01*
X1632813Y6245606D01*
X1629765Y6248654D01*
X1628190Y6252616D01*
X1629359Y6266484D01*
X1628546Y6275578D01*
X1626107Y6284366D01*
X1622196Y6292596D01*
X1616811Y6299962D01*
X1610207Y6306261D01*
X1602638Y6311290D01*
X1594205Y6314846D01*
X1585315Y6316878D01*
X1576222Y6317284D01*
X1567180Y6316065D01*
X1558493Y6313271D01*
X1550466Y6308953D01*
X1543354Y6303264D01*
X1537360Y6296406D01*
X1532686Y6288532D01*
X1529486Y6279997D01*
X1527860Y6271056D01*
X1527860Y6257086D01*
X1526082Y6253276D01*
X1522882Y6250533D01*
X1518920Y6249314D01*
X1508404Y6250482D01*
X1495602Y6250482D01*
X1495602Y6217462D01*
X1502918Y6217462D01*
X1506829Y6216700D01*
X1510131Y6214465D01*
X1512316Y6211163D01*
X1513078Y6207302D01*
X1513078Y6187897D01*
X1512316Y6184036D01*
X1510131Y6180734D01*
X1506829Y6178499D01*
X1502918Y6177737D01*
X1495602Y6177737D01*
G37*
G36*
X1404061Y6217462D02*
G01*
X1443380Y6217462D01*
X1443380Y6250482D01*
X1430578Y6250482D01*
X1424228Y6249771D01*
X1418793Y6247892D01*
X1413865Y6244793D01*
X1409801Y6240729D01*
X1406702Y6235801D01*
X1404772Y6230366D01*
X1404061Y6224016D01*
G37*
G36*
X1430578Y6487566D02*
G01*
X1443380Y6487566D01*
X1443380Y6520637D01*
X1404061Y6520637D01*
X1404061Y6514084D01*
X1404772Y6507734D01*
X1406702Y6502298D01*
X1409801Y6497370D01*
X1413865Y6493306D01*
X1418793Y6490208D01*
X1424228Y6488328D01*
G37*

%LPD*%
G36*
X2528824Y4446066D02*
G01*
X2524912Y4446828D01*
X2521610Y4449064D01*
X2425141Y4545533D01*
X2422906Y4548835D01*
X2422144Y4552746D01*
X2422906Y4556607D01*
X2425141Y4559909D01*
X2428443Y4562144D01*
X2432304Y4562906D01*
X2991916Y4562906D01*
X2999384Y4563668D01*
X3006039Y4565853D01*
X3012186Y4569409D01*
X3016351Y4572965D01*
X3045460Y4602073D01*
X3050184Y4607915D01*
X3053334Y4614113D01*
X3055213Y4620971D01*
X3055620Y4626457D01*
X3055620Y4652314D01*
X3056483Y4656378D01*
X3058871Y4659731D01*
X3058871Y4673650D01*
X3059430Y4677003D01*
X3061411Y4682642D01*
X3062122Y4688941D01*
X3062122Y4767834D01*
X3061411Y4774133D01*
X3059480Y4779619D01*
X3056382Y4784496D01*
X3052318Y4788611D01*
X3047390Y4791659D01*
X3041954Y4793589D01*
X3035655Y4794300D01*
X3008782Y4794300D01*
X3002432Y4793589D01*
X2997200Y4792370D01*
X2991967Y4793589D01*
X2985617Y4794300D01*
X2958744Y4794300D01*
X2952445Y4793589D01*
X2947212Y4792370D01*
X2941929Y4793589D01*
X2935630Y4794300D01*
X2913532Y4794300D01*
X2909620Y4795062D01*
X2906318Y4797247D01*
X2904134Y4800549D01*
X2903372Y4804460D01*
X2903372Y4884572D01*
X2823260Y4884572D01*
X2819400Y4885334D01*
X2816098Y4887518D01*
X2813913Y4890820D01*
X2813100Y4894732D01*
X2813100Y4916830D01*
X2812389Y4923129D01*
X2811170Y4928362D01*
X2812389Y4933645D01*
X2813100Y4939944D01*
X2813100Y4966817D01*
X2812389Y4973116D01*
X2811170Y4978400D01*
X2812389Y4983632D01*
X2813100Y4989982D01*
X2813100Y5016804D01*
X2812389Y5023154D01*
X2811170Y5028387D01*
X2812389Y5033619D01*
X2813100Y5039969D01*
X2813100Y5062067D01*
X2813862Y5065979D01*
X2816098Y5069281D01*
X2819349Y5071465D01*
X2823260Y5072227D01*
X2903372Y5072227D01*
X2903372Y5152339D01*
X2904134Y5156250D01*
X2906318Y5159552D01*
X2909620Y5161737D01*
X2913532Y5162499D01*
X2935630Y5162499D01*
X2941980Y5163210D01*
X2947212Y5164429D01*
X2952496Y5163210D01*
X2958795Y5162499D01*
X2985668Y5162499D01*
X2991967Y5163210D01*
X2997250Y5164429D01*
X3002483Y5163210D01*
X3008782Y5162499D01*
X3035655Y5162499D01*
X3041954Y5163210D01*
X3047238Y5164429D01*
X3052470Y5163210D01*
X3058820Y5162499D01*
X3080867Y5162499D01*
X3084779Y5161737D01*
X3088081Y5159552D01*
X3090265Y5156250D01*
X3091027Y5152339D01*
X3091027Y5072227D01*
X3171139Y5072227D01*
X3175050Y5071465D01*
X3178302Y5069281D01*
X3180537Y5065979D01*
X3181299Y5062067D01*
X3181299Y5039969D01*
X3182010Y5033670D01*
X3183229Y5028387D01*
X3182010Y5023154D01*
X3181299Y5016804D01*
X3181299Y4989982D01*
X3182010Y4983632D01*
X3183940Y4978196D01*
X3187039Y4973269D01*
X3191103Y4969205D01*
X3196031Y4966106D01*
X3201466Y4964176D01*
X3207766Y4963464D01*
X3211728Y4962144D01*
X3214827Y4959350D01*
X3216554Y4955489D01*
X3216554Y4951272D01*
X3214827Y4947462D01*
X3211728Y4944618D01*
X3207766Y4943297D01*
X3201466Y4942586D01*
X3195980Y4940655D01*
X3191103Y4937607D01*
X3186988Y4933492D01*
X3183940Y4928616D01*
X3182010Y4923129D01*
X3181299Y4916830D01*
X3181299Y4894732D01*
X3180537Y4890820D01*
X3178352Y4887518D01*
X3175050Y4885334D01*
X3171139Y4884572D01*
X3091027Y4884572D01*
X3091027Y4767326D01*
X3090367Y4763719D01*
X3088487Y4760569D01*
X3085541Y4758283D01*
X3085541Y4754727D01*
X3108858Y4754727D01*
X3108858Y4804460D01*
X3109620Y4808321D01*
X3111804Y4811623D01*
X3115106Y4813858D01*
X3119018Y4814620D01*
X3125368Y4814620D01*
X3129280Y4813858D01*
X3132582Y4811623D01*
X3134766Y4808321D01*
X3135528Y4804460D01*
X3135528Y4783124D01*
X3134969Y4779772D01*
X3133039Y4774184D01*
X3132277Y4766818D01*
X3132277Y4688941D01*
X3132988Y4682642D01*
X3134969Y4677003D01*
X3135528Y4673650D01*
X3135528Y4659782D01*
X3137966Y4656378D01*
X3138779Y4652314D01*
X3138779Y4629454D01*
X3137966Y4625441D01*
X3135680Y4622088D01*
X3132226Y4619904D01*
X3128162Y4619294D01*
X3120847Y4619599D01*
X3111804Y4618380D01*
X3103118Y4615586D01*
X3095091Y4611268D01*
X3087979Y4605578D01*
X3081934Y4598720D01*
X3077260Y4590846D01*
X3074060Y4582312D01*
X3072434Y4573371D01*
X3072434Y4569612D01*
X3071672Y4565700D01*
X3069488Y4562398D01*
X2973324Y4466285D01*
X2970022Y4464050D01*
X2966161Y4463288D01*
X2856585Y4463288D01*
X2849118Y4462526D01*
X2842463Y4460341D01*
X2836316Y4456785D01*
X2832100Y4453229D01*
X2827934Y4449064D01*
X2824632Y4446828D01*
X2820771Y4446066D01*
G37*

%LPC*%
G36*
X3085541Y4662474D02*
G01*
X3091942Y4663186D01*
X3097225Y4664405D01*
X3102457Y4663186D01*
X3108858Y4662474D01*
X3108858Y4702048D01*
X3085541Y4702048D01*
G37*

%LPD*%
G36*
X5111851Y3891584D02*
G01*
X5107990Y3892346D01*
X5104688Y3894582D01*
X5102453Y3897884D01*
X5101691Y3901744D01*
X5101793Y3954068D01*
X5102555Y3957929D01*
X5104790Y3961231D01*
X5108041Y3963415D01*
X5111953Y3964178D01*
X5127802Y3964178D01*
X5131663Y3963415D01*
X5134965Y3961231D01*
X5137200Y3957929D01*
X5137962Y3954018D01*
X5137962Y3946702D01*
X5171033Y3946702D01*
X5171033Y3959504D01*
X5170271Y3965854D01*
X5168239Y3971747D01*
X5167680Y3975100D01*
X5168239Y3978452D01*
X5170271Y3984345D01*
X5171033Y3990695D01*
X5171033Y4068521D01*
X5170271Y4074871D01*
X5168392Y4080306D01*
X5165293Y4085234D01*
X5161229Y4089298D01*
X5156301Y4092397D01*
X5150866Y4094327D01*
X5144516Y4095038D01*
X5091684Y4095038D01*
X5085334Y4094327D01*
X5079898Y4092397D01*
X5074970Y4089298D01*
X5073700Y4088028D01*
X5070398Y4085793D01*
X5066487Y4085031D01*
X5062626Y4085793D01*
X5059324Y4088028D01*
X5009642Y4137710D01*
X5003444Y4142790D01*
X4996789Y4146346D01*
X4989576Y4148531D01*
X4981600Y4149293D01*
X3444798Y4149293D01*
X3440887Y4150055D01*
X3437585Y4152290D01*
X3435400Y4155592D01*
X3434638Y4159453D01*
X3434638Y4192015D01*
X3433927Y4198366D01*
X3431997Y4203801D01*
X3428898Y4208729D01*
X3424834Y4212793D01*
X3419906Y4215892D01*
X3414471Y4217771D01*
X3408121Y4218482D01*
X3377336Y4218482D01*
X3373424Y4219295D01*
X3370122Y4221480D01*
X3367938Y4224782D01*
X3367176Y4228642D01*
X3367938Y4232554D01*
X3370122Y4235856D01*
X3386328Y4252010D01*
X3389376Y4254144D01*
X3393033Y4254957D01*
X3399536Y4255262D01*
X3408426Y4257294D01*
X3416858Y4260900D01*
X3424428Y4265930D01*
X3431032Y4272229D01*
X3436416Y4279595D01*
X3440328Y4287824D01*
X3442766Y4296613D01*
X3443579Y4305655D01*
X3442766Y4314748D01*
X3440328Y4323537D01*
X3436416Y4331766D01*
X3431032Y4339132D01*
X3424428Y4345432D01*
X3416858Y4350461D01*
X3408426Y4354068D01*
X3399536Y4356100D01*
X3390442Y4356506D01*
X3381400Y4355287D01*
X3372713Y4352442D01*
X3364687Y4348124D01*
X3357575Y4342434D01*
X3351580Y4335576D01*
X3346907Y4327753D01*
X3343706Y4319219D01*
X3342081Y4310227D01*
X3342081Y4306468D01*
X3341268Y4302607D01*
X3339084Y4299305D01*
X3291484Y4251706D01*
X3288182Y4249470D01*
X3284321Y4248708D01*
X3260445Y4248708D01*
X3256686Y4248505D01*
X3249879Y4247083D01*
X3243478Y4244238D01*
X3237839Y4240123D01*
X3233166Y4234942D01*
X3229711Y4228947D01*
X3228187Y4224883D01*
X3226308Y4221734D01*
X3223361Y4219448D01*
X3219805Y4218330D01*
X3214928Y4217771D01*
X3209493Y4215892D01*
X3204565Y4212793D01*
X3200501Y4208729D01*
X3197402Y4203801D01*
X3195472Y4198366D01*
X3194761Y4192015D01*
X3194761Y4149902D01*
X3193999Y4145991D01*
X3191814Y4142689D01*
X3188512Y4140504D01*
X3184601Y4139742D01*
X3063798Y4139742D01*
X3059887Y4140504D01*
X3056585Y4142689D01*
X3054400Y4145991D01*
X3053638Y4149902D01*
X3053638Y4189526D01*
X3054400Y4193438D01*
X3056585Y4196740D01*
X3059887Y4198924D01*
X3063798Y4199686D01*
X3086150Y4199686D01*
X3093618Y4200499D01*
X3100222Y4202633D01*
X3106369Y4206189D01*
X3110585Y4209796D01*
X3411931Y4511141D01*
X3416655Y4516932D01*
X3419805Y4523181D01*
X3421634Y4530039D01*
X3422091Y4535525D01*
X3422091Y4957673D01*
X3421278Y4965141D01*
X3419144Y4971796D01*
X3415588Y4977942D01*
X3412032Y4982108D01*
X3391458Y5002631D01*
X3389274Y5005933D01*
X3388512Y5009845D01*
X3389274Y5013706D01*
X3391458Y5017008D01*
X3394760Y5019243D01*
X3398672Y5020005D01*
X3407613Y5020005D01*
X3411524Y5019243D01*
X3414826Y5017008D01*
X3811219Y4620615D01*
X3813403Y4617313D01*
X3814216Y4613452D01*
X3814216Y4603394D01*
X3815842Y4593894D01*
X3819042Y4584801D01*
X3823766Y4576368D01*
X3829812Y4568850D01*
X3837025Y4562500D01*
X3845255Y4557420D01*
X3854196Y4553864D01*
X3863644Y4551832D01*
X3873296Y4551426D01*
X3882847Y4552645D01*
X3892042Y4555439D01*
X3900678Y4559808D01*
X3908450Y4565548D01*
X3915105Y4572508D01*
X3920490Y4580483D01*
X3924503Y4589272D01*
X3926890Y4598619D01*
X3927754Y4608220D01*
X3926890Y4617821D01*
X3924503Y4627168D01*
X3920490Y4635957D01*
X3915105Y4643932D01*
X3908450Y4650892D01*
X3900678Y4656632D01*
X3892042Y4661001D01*
X3882847Y4663795D01*
X3873296Y4665065D01*
X3866235Y4664760D01*
X3862120Y4665421D01*
X3858615Y4667707D01*
X3775506Y4750816D01*
X3773322Y4754118D01*
X3772560Y4757978D01*
X3773322Y4761890D01*
X3775506Y4765192D01*
X3778808Y4767376D01*
X3782720Y4768138D01*
X3899001Y4768138D01*
X3903370Y4767173D01*
X3906875Y4764379D01*
X3908653Y4762195D01*
X3915867Y4755845D01*
X3924096Y4750765D01*
X3933037Y4747209D01*
X3942486Y4745177D01*
X3952138Y4744770D01*
X3961688Y4745990D01*
X3970883Y4748784D01*
X3979519Y4753152D01*
X3987292Y4758893D01*
X3993946Y4765852D01*
X3999331Y4773828D01*
X4003344Y4782616D01*
X4005732Y4791964D01*
X4006596Y4801565D01*
X4005732Y4811166D01*
X4003344Y4820513D01*
X3999331Y4829302D01*
X3993946Y4837277D01*
X3990898Y4840528D01*
X3988765Y4843830D01*
X3988054Y4847691D01*
X3988866Y4851501D01*
X3991051Y4854752D01*
X3994353Y4856937D01*
X3998214Y4857699D01*
X4167835Y4857699D01*
X4171746Y4856937D01*
X4175048Y4854702D01*
X4177233Y4851400D01*
X4177995Y4847539D01*
X4177995Y4831689D01*
X4178706Y4825339D01*
X4180636Y4819904D01*
X4183684Y4814976D01*
X4187799Y4810912D01*
X4192676Y4807813D01*
X4198162Y4805934D01*
X4204462Y4805172D01*
X4533341Y4805172D01*
X4539640Y4805934D01*
X4545126Y4807813D01*
X4550003Y4810912D01*
X4554118Y4814976D01*
X4557217Y4819904D01*
X4559096Y4825339D01*
X4559808Y4831689D01*
X4559808Y4950510D01*
X4559096Y4956860D01*
X4557217Y4962296D01*
X4554118Y4967224D01*
X4550003Y4971288D01*
X4545126Y4974386D01*
X4539640Y4976266D01*
X4533341Y4976977D01*
X4204462Y4976977D01*
X4198162Y4976266D01*
X4192676Y4974386D01*
X4187799Y4971288D01*
X4183684Y4967224D01*
X4180636Y4962296D01*
X4178706Y4956860D01*
X4177995Y4950510D01*
X4177995Y4934661D01*
X4177233Y4930800D01*
X4175048Y4927498D01*
X4171746Y4925263D01*
X4167835Y4924501D01*
X3803853Y4924501D01*
X3799941Y4925263D01*
X3796639Y4927498D01*
X3432911Y5291226D01*
X3430727Y5294528D01*
X3429965Y5298389D01*
X3430727Y5302300D01*
X3432911Y5305602D01*
X3436213Y5307787D01*
X3440125Y5308549D01*
X3654196Y5308549D01*
X3658057Y5307787D01*
X3661359Y5305602D01*
X3899103Y5067858D01*
X3904945Y5063134D01*
X3911142Y5059984D01*
X3918000Y5058105D01*
X3923487Y5057698D01*
X4167835Y5057698D01*
X4171746Y5056936D01*
X4174998Y5054701D01*
X4177233Y5051399D01*
X4177995Y5047538D01*
X4177995Y5031689D01*
X4178706Y5025339D01*
X4180636Y5019903D01*
X4183684Y5014976D01*
X4187799Y5010912D01*
X4192676Y5007813D01*
X4198162Y5005933D01*
X4204462Y5005171D01*
X4533341Y5005171D01*
X4539640Y5005933D01*
X4545126Y5007813D01*
X4550003Y5010912D01*
X4554118Y5014976D01*
X4557166Y5019903D01*
X4559096Y5025339D01*
X4559808Y5031689D01*
X4559808Y5150510D01*
X4559096Y5156860D01*
X4557166Y5162296D01*
X4554118Y5167223D01*
X4550003Y5171287D01*
X4545126Y5174386D01*
X4539640Y5176266D01*
X4533341Y5176977D01*
X4204462Y5176977D01*
X4198162Y5176266D01*
X4192676Y5174386D01*
X4187799Y5171287D01*
X4183684Y5167223D01*
X4180636Y5162296D01*
X4178706Y5156860D01*
X4177995Y5150510D01*
X4177995Y5134660D01*
X4177233Y5130800D01*
X4174998Y5127498D01*
X4171746Y5125262D01*
X4167835Y5124500D01*
X3941165Y5124500D01*
X3937254Y5125262D01*
X3933951Y5127498D01*
X3696208Y5365242D01*
X3690416Y5369966D01*
X3684168Y5373116D01*
X3677310Y5374944D01*
X3671824Y5375402D01*
X3178098Y5375402D01*
X3174187Y5376164D01*
X3170885Y5378348D01*
X3168700Y5381650D01*
X3167938Y5385562D01*
X3168700Y5389422D01*
X3170885Y5392724D01*
X3232861Y5454700D01*
X3236163Y5456936D01*
X3240074Y5457698D01*
X4167835Y5457698D01*
X4171746Y5456936D01*
X4174998Y5454700D01*
X4177233Y5451398D01*
X4177995Y5447538D01*
X4177995Y5431688D01*
X4178706Y5425338D01*
X4180636Y5419902D01*
X4183684Y5414975D01*
X4187799Y5410911D01*
X4192676Y5407812D01*
X4198162Y5405932D01*
X4204462Y5405170D01*
X4533341Y5405170D01*
X4539640Y5405932D01*
X4545126Y5407812D01*
X4550003Y5410911D01*
X4554118Y5414975D01*
X4557166Y5419902D01*
X4559096Y5425338D01*
X4559808Y5431688D01*
X4559808Y5550509D01*
X4559096Y5556859D01*
X4557166Y5562295D01*
X4554118Y5567222D01*
X4550003Y5571286D01*
X4545126Y5574385D01*
X4539640Y5576265D01*
X4533341Y5576976D01*
X4204462Y5576976D01*
X4198162Y5576265D01*
X4192676Y5574385D01*
X4187799Y5571286D01*
X4183684Y5567222D01*
X4180636Y5562295D01*
X4178706Y5556859D01*
X4177995Y5550509D01*
X4177995Y5534660D01*
X4177233Y5530799D01*
X4174998Y5527497D01*
X4171746Y5525262D01*
X4167835Y5524500D01*
X3849674Y5524500D01*
X3846068Y5525160D01*
X3842918Y5527090D01*
X3840632Y5530037D01*
X3839616Y5533542D01*
X3839870Y5537250D01*
X3840632Y5540298D01*
X3841496Y5549900D01*
X3840632Y5559501D01*
X3838244Y5568848D01*
X3834231Y5577636D01*
X3828846Y5585612D01*
X3822192Y5592572D01*
X3814419Y5598312D01*
X3805783Y5602681D01*
X3796588Y5605475D01*
X3787038Y5606745D01*
X3777386Y5606288D01*
X3767937Y5604256D01*
X3758996Y5600700D01*
X3750767Y5595620D01*
X3743553Y5589270D01*
X3741775Y5587085D01*
X3738270Y5584291D01*
X3733901Y5583326D01*
X3416960Y5583326D01*
X3412693Y5584240D01*
X3409238Y5586831D01*
X3407206Y5590641D01*
X3406901Y5594959D01*
X3408426Y5599023D01*
X3411524Y5602071D01*
X3415080Y5604306D01*
X3419144Y5608370D01*
X3422243Y5613298D01*
X3424174Y5618734D01*
X3424885Y5625084D01*
X3424885Y5677916D01*
X3424174Y5684266D01*
X3422243Y5689701D01*
X3419601Y5693918D01*
X3418179Y5697829D01*
X3418433Y5701995D01*
X3420719Y5710377D01*
X3421532Y5719419D01*
X3420719Y5728512D01*
X3418281Y5737301D01*
X3414369Y5745530D01*
X3408984Y5752896D01*
X3402380Y5759196D01*
X3394811Y5764225D01*
X3386378Y5767832D01*
X3377488Y5769864D01*
X3368395Y5770270D01*
X3359353Y5769051D01*
X3350666Y5766206D01*
X3342640Y5761888D01*
X3335528Y5756198D01*
X3329533Y5749340D01*
X3324860Y5741568D01*
X3321253Y5731713D01*
X3319119Y5728258D01*
X3315868Y5725922D01*
X3311906Y5725058D01*
X3307892Y5725820D01*
X3304540Y5728055D01*
X3145891Y5886704D01*
X3143656Y5890006D01*
X3142894Y5893866D01*
X3142894Y6152743D01*
X3143656Y6156604D01*
X3145891Y6159906D01*
X3149193Y6162141D01*
X3153054Y6162903D01*
X3310229Y6162903D01*
X3316528Y6163614D01*
X3322015Y6165494D01*
X3326892Y6168593D01*
X3331006Y6172708D01*
X3334105Y6177584D01*
X3335985Y6183071D01*
X3336696Y6189370D01*
X3336696Y6358229D01*
X3335985Y6364528D01*
X3334105Y6370015D01*
X3331006Y6374892D01*
X3326892Y6379006D01*
X3317900Y6384391D01*
X3315512Y6387693D01*
X3314598Y6391656D01*
X3315309Y6395669D01*
X3317544Y6399072D01*
X3360318Y6441846D01*
X3365042Y6447637D01*
X3368192Y6453886D01*
X3370021Y6460744D01*
X3370478Y6466230D01*
X3370478Y6572758D01*
X3369665Y6580225D01*
X3367532Y6586829D01*
X3363976Y6592976D01*
X3360318Y6597243D01*
X3295497Y6661861D01*
X3289655Y6666534D01*
X3283407Y6669684D01*
X3276549Y6671513D01*
X3271113Y6671970D01*
X2418080Y6671970D01*
X2410612Y6671157D01*
X2404008Y6669024D01*
X2397861Y6665468D01*
X2393645Y6661861D01*
X2294483Y6562699D01*
X2289759Y6556908D01*
X2286609Y6550659D01*
X2284780Y6543802D01*
X2284323Y6538315D01*
X2284323Y5912358D01*
X2285136Y5904890D01*
X2287270Y5898286D01*
X2289860Y5893866D01*
X2291080Y5890463D01*
X2291029Y5886907D01*
X2289759Y5883554D01*
X2287371Y5880811D01*
X2283714Y5877560D01*
X2280462Y5875070D01*
X2276449Y5874105D01*
X2272334Y5874816D01*
X2268880Y5877052D01*
X1646174Y6499809D01*
X1644345Y6502247D01*
X1643380Y6505092D01*
X1643227Y6508140D01*
X1643938Y6514084D01*
X1643938Y6566916D01*
X1643227Y6573266D01*
X1641297Y6578701D01*
X1638198Y6583629D01*
X1634134Y6587693D01*
X1629206Y6590792D01*
X1623009Y6592976D01*
X1619707Y6594906D01*
X1617319Y6597903D01*
X1616151Y6602679D01*
X1613966Y6609892D01*
X1610410Y6616547D01*
X1605330Y6622745D01*
X1584553Y6643471D01*
X1578356Y6648551D01*
X1571752Y6652107D01*
X1564538Y6654292D01*
X1556562Y6655104D01*
X1328826Y6655104D01*
X1324610Y6656019D01*
X1321206Y6658559D01*
X1319123Y6662318D01*
X1318768Y6666585D01*
X1320241Y6670649D01*
X1323238Y6673748D01*
X1328064Y6676898D01*
X1334668Y6683197D01*
X1340002Y6690563D01*
X1343964Y6698792D01*
X1346403Y6707581D01*
X1347216Y6716674D01*
X1346403Y6725767D01*
X1343964Y6734556D01*
X1340002Y6742785D01*
X1334668Y6750151D01*
X1327912Y6756552D01*
X1325626Y6759854D01*
X1324762Y6763766D01*
X1325524Y6767728D01*
X1327708Y6771030D01*
X1331010Y6773316D01*
X1334922Y6774078D01*
X6363919Y6774078D01*
X6367780Y6773316D01*
X6371082Y6771081D01*
X6373317Y6767830D01*
X6374079Y6763918D01*
X6374079Y5262016D01*
X6373266Y5258104D01*
X6371031Y5254752D01*
X6367678Y5252567D01*
X6363766Y5251856D01*
X6359855Y5252669D01*
X6356604Y5254955D01*
X6347206Y5264658D01*
X6345783Y5267502D01*
X6345326Y5270601D01*
X6345326Y5320792D01*
X6344513Y5328259D01*
X6342380Y5334863D01*
X6338824Y5341010D01*
X6335217Y5345226D01*
X6166104Y5514390D01*
X6163513Y5516422D01*
X6160770Y5519978D01*
X6159804Y5524296D01*
X6159804Y5550509D01*
X6159093Y5556859D01*
X6157163Y5562295D01*
X6154115Y5567222D01*
X6150000Y5571286D01*
X6145123Y5574385D01*
X6139637Y5576265D01*
X6133338Y5576976D01*
X5804458Y5576976D01*
X5798159Y5576265D01*
X5792673Y5574385D01*
X5787796Y5571286D01*
X5783681Y5567222D01*
X5780633Y5562295D01*
X5778703Y5556859D01*
X5777992Y5550509D01*
X5777992Y5431688D01*
X5778703Y5425338D01*
X5780633Y5419902D01*
X5783681Y5414975D01*
X5787796Y5410911D01*
X5792673Y5407812D01*
X5798159Y5405932D01*
X5804458Y5405170D01*
X6133338Y5405170D01*
X6139637Y5405932D01*
X6145123Y5407812D01*
X6149949Y5410860D01*
X6155131Y5416194D01*
X6158433Y5418480D01*
X6162344Y5419293D01*
X6166307Y5418531D01*
X6169609Y5416346D01*
X6275527Y5310428D01*
X6277711Y5307126D01*
X6278473Y5303266D01*
X6278473Y5270398D01*
X6277610Y5266182D01*
X6275019Y5262727D01*
X6270853Y5259070D01*
X6269075Y5256834D01*
X6265722Y5254142D01*
X6261557Y5253075D01*
X6257340Y5253786D01*
X6253835Y5256174D01*
X6247892Y5262372D01*
X6240119Y5268112D01*
X6231483Y5272481D01*
X6222288Y5275275D01*
X6216954Y5275986D01*
X6213805Y5276951D01*
X6211062Y5278882D01*
X6175603Y5314340D01*
X6169710Y5319115D01*
X6165138Y5321554D01*
X6162294Y5323840D01*
X6160465Y5326938D01*
X6159804Y5330494D01*
X6159804Y5350510D01*
X6159093Y5356860D01*
X6157163Y5362295D01*
X6154115Y5367223D01*
X6150000Y5371287D01*
X6145123Y5374386D01*
X6139637Y5376265D01*
X6133338Y5376976D01*
X5804458Y5376976D01*
X5798159Y5376265D01*
X5792673Y5374386D01*
X5787796Y5371287D01*
X5783681Y5367223D01*
X5780633Y5362295D01*
X5778703Y5356860D01*
X5777992Y5350510D01*
X5777992Y5231688D01*
X5778703Y5225338D01*
X5780633Y5219903D01*
X5783681Y5214975D01*
X5787796Y5210911D01*
X5792673Y5207812D01*
X5798159Y5205933D01*
X5804458Y5205171D01*
X6133338Y5205171D01*
X6139637Y5205933D01*
X6143802Y5207355D01*
X6147714Y5207914D01*
X6151575Y5206949D01*
X6154724Y5204561D01*
X6156756Y5201158D01*
X6158484Y5196281D01*
X6163157Y5187848D01*
X6169507Y5180126D01*
X6176467Y5173980D01*
X6184696Y5168900D01*
X6193637Y5165344D01*
X6203086Y5163312D01*
X6212738Y5162854D01*
X6222288Y5164124D01*
X6231483Y5166918D01*
X6240119Y5171287D01*
X6247892Y5177028D01*
X6253835Y5183225D01*
X6257340Y5185613D01*
X6261557Y5186324D01*
X6265722Y5185257D01*
X6269075Y5182565D01*
X6270853Y5180330D01*
X6278067Y5173980D01*
X6286296Y5168900D01*
X6295237Y5165344D01*
X6304686Y5163312D01*
X6314338Y5162854D01*
X6323888Y5164124D01*
X6333083Y5166918D01*
X6341719Y5171287D01*
X6349492Y5177028D01*
X6356604Y5184444D01*
X6359855Y5186730D01*
X6363766Y5187543D01*
X6367678Y5186832D01*
X6371031Y5184648D01*
X6373266Y5181295D01*
X6374079Y5177383D01*
X6374079Y4995113D01*
X6373317Y4991303D01*
X6371234Y4988052D01*
X6368034Y4985816D01*
X6364224Y4984953D01*
X6360414Y4985562D01*
X6357061Y4987594D01*
X6355638Y4988915D01*
X6344005Y4997043D01*
X6331407Y5003596D01*
X6318046Y5008524D01*
X6304178Y5011674D01*
X6290056Y5013045D01*
X6275832Y5012588D01*
X6261811Y5010302D01*
X6248196Y5006238D01*
X6235192Y5000498D01*
X6222542Y4992725D01*
X6219190Y4990947D01*
X6215430Y4990541D01*
X6211773Y4991506D01*
X6208725Y4993741D01*
X6206744Y4996942D01*
X6206032Y5000650D01*
X6206032Y5084216D01*
X6205321Y5092496D01*
X6203137Y5099710D01*
X6199581Y5106314D01*
X6194501Y5112512D01*
X6189116Y5117896D01*
X6182918Y5122976D01*
X6176314Y5126532D01*
X6165392Y5129784D01*
X6162446Y5132019D01*
X6160516Y5135168D01*
X6159804Y5138826D01*
X6159804Y5150510D01*
X6159093Y5156860D01*
X6157163Y5162296D01*
X6153861Y5167934D01*
X6150000Y5171287D01*
X6145123Y5174386D01*
X6139637Y5176266D01*
X6133338Y5176977D01*
X5804458Y5176977D01*
X5798159Y5176266D01*
X5792673Y5174386D01*
X5787796Y5171287D01*
X5783681Y5167223D01*
X5780633Y5162296D01*
X5778703Y5156860D01*
X5777992Y5150510D01*
X5777992Y5031689D01*
X5778703Y5025339D01*
X5780633Y5019903D01*
X5783681Y5014976D01*
X5787796Y5010912D01*
X5792673Y5007813D01*
X5798159Y5005933D01*
X5804458Y5005171D01*
X6119063Y5005171D01*
X6122924Y5004409D01*
X6126226Y5002225D01*
X6128461Y4998923D01*
X6129223Y4995011D01*
X6129223Y4987137D01*
X6128461Y4983276D01*
X6126226Y4979974D01*
X6122924Y4977790D01*
X6119063Y4976977D01*
X5804458Y4976977D01*
X5798159Y4976266D01*
X5792673Y4974386D01*
X5787796Y4971288D01*
X5783681Y4967224D01*
X5780633Y4962296D01*
X5778703Y4956860D01*
X5777992Y4950510D01*
X5777992Y4831689D01*
X5778703Y4825339D01*
X5780633Y4819904D01*
X5783681Y4814976D01*
X5787796Y4810912D01*
X5792673Y4807813D01*
X5798159Y4805934D01*
X5804458Y4805172D01*
X6119063Y4805172D01*
X6122924Y4804410D01*
X6126226Y4802225D01*
X6128461Y4798923D01*
X6129223Y4795012D01*
X6129223Y4787138D01*
X6128461Y4783277D01*
X6126226Y4779975D01*
X6122924Y4777790D01*
X6119063Y4776978D01*
X5804458Y4776978D01*
X5798159Y4776266D01*
X5792673Y4774387D01*
X5787796Y4771288D01*
X5783681Y4767224D01*
X5780633Y4762296D01*
X5778703Y4756861D01*
X5777992Y4750511D01*
X5777992Y4631690D01*
X5778703Y4625340D01*
X5780633Y4619904D01*
X5783681Y4614976D01*
X5787796Y4610912D01*
X5792673Y4607814D01*
X5798159Y4605934D01*
X5804458Y4605172D01*
X6133338Y4605172D01*
X6139637Y4605934D01*
X6145123Y4607814D01*
X6150000Y4610912D01*
X6154115Y4614976D01*
X6155944Y4617974D01*
X6158433Y4620615D01*
X6161633Y4622292D01*
X6165240Y4622698D01*
X6168796Y4621784D01*
X6171742Y4619752D01*
X6209792Y4581652D01*
X6212027Y4578400D01*
X6212789Y4574489D01*
X6212789Y4514088D01*
X6212027Y4510227D01*
X6209842Y4506925D01*
X6160770Y4457750D01*
X6157468Y4455515D01*
X6153556Y4454753D01*
X6057747Y4454753D01*
X6057747Y4451654D01*
X6056985Y4447794D01*
X6054801Y4444492D01*
X6051499Y4442256D01*
X6047587Y4441494D01*
X5890209Y4441494D01*
X5886348Y4442256D01*
X5883046Y4444492D01*
X5880811Y4447794D01*
X5880049Y4451654D01*
X5880049Y4454753D01*
X5777992Y4454753D01*
X5777992Y4450842D01*
X5777331Y4447184D01*
X5775350Y4444034D01*
X5772404Y4441799D01*
X5761278Y4438548D01*
X5754624Y4434992D01*
X5748426Y4429912D01*
X5213096Y3894582D01*
X5209844Y3892346D01*
X5205933Y3891584D01*
X5181193Y3891584D01*
X5177332Y3892346D01*
X5174081Y3894480D01*
X5134914Y3894480D01*
X5131612Y3892346D01*
X5127802Y3891584D01*
G37*

%LPC*%
G36*
X4457750Y4205173D02*
G01*
X4533341Y4205173D01*
X4539640Y4205935D01*
X4545126Y4207814D01*
X4550003Y4210913D01*
X4554118Y4214977D01*
X4557166Y4219905D01*
X4559096Y4225340D01*
X4559808Y4231690D01*
X4559808Y4254754D01*
X4457750Y4254754D01*
G37*
G36*
X4204462Y4205173D02*
G01*
X4280052Y4205173D01*
X4280052Y4254754D01*
X4177995Y4254754D01*
X4177995Y4231690D01*
X4178706Y4225340D01*
X4180636Y4219905D01*
X4183684Y4214977D01*
X4187799Y4210913D01*
X4192676Y4207814D01*
X4198162Y4205935D01*
G37*
G36*
X4457750Y4327448D02*
G01*
X4559808Y4327448D01*
X4559808Y4350512D01*
X4559096Y4356862D01*
X4557166Y4362297D01*
X4554118Y4367225D01*
X4550003Y4371289D01*
X4545126Y4374388D01*
X4539640Y4376267D01*
X4533341Y4376978D01*
X4457750Y4376978D01*
G37*
G36*
X4177995Y4327448D02*
G01*
X4280052Y4327448D01*
X4280052Y4376978D01*
X4204462Y4376978D01*
X4198162Y4376267D01*
X4192676Y4374388D01*
X4187799Y4371289D01*
X4183684Y4367225D01*
X4180636Y4362297D01*
X4178706Y4356862D01*
X4177995Y4350512D01*
G37*
G36*
X4204462Y4405172D02*
G01*
X4533341Y4405172D01*
X4539640Y4405884D01*
X4545126Y4407814D01*
X4550003Y4410913D01*
X4554118Y4414977D01*
X4557217Y4419904D01*
X4559096Y4425340D01*
X4559808Y4431690D01*
X4559808Y4550511D01*
X4559096Y4556861D01*
X4557217Y4562297D01*
X4554118Y4567224D01*
X4550003Y4571288D01*
X4545126Y4574387D01*
X4539640Y4576267D01*
X4533341Y4576978D01*
X4204462Y4576978D01*
X4198162Y4576267D01*
X4192676Y4574387D01*
X4187799Y4571288D01*
X4183684Y4567224D01*
X4180636Y4562297D01*
X4178706Y4556861D01*
X4177995Y4550511D01*
X4177995Y4431690D01*
X4178706Y4425340D01*
X4180636Y4419904D01*
X4183684Y4414977D01*
X4187799Y4410913D01*
X4192676Y4407814D01*
X4198162Y4405884D01*
G37*
G36*
X5777992Y4527448D02*
G01*
X5880049Y4527448D01*
X5880049Y4576978D01*
X5804458Y4576978D01*
X5798159Y4576267D01*
X5792673Y4574387D01*
X5787796Y4571288D01*
X5783681Y4567224D01*
X5780633Y4562297D01*
X5778703Y4556861D01*
X5777992Y4550511D01*
G37*
G36*
X6057747Y4527448D02*
G01*
X6159804Y4527448D01*
X6159804Y4550511D01*
X6159093Y4556861D01*
X6157163Y4562297D01*
X6154115Y4567224D01*
X6150000Y4571288D01*
X6145123Y4574387D01*
X6139637Y4576267D01*
X6133338Y4576978D01*
X6057747Y4576978D01*
G37*
G36*
X4204462Y4605172D02*
G01*
X4533341Y4605172D01*
X4539640Y4605934D01*
X4545126Y4607814D01*
X4550003Y4610912D01*
X4554118Y4614976D01*
X4557166Y4619904D01*
X4559096Y4625340D01*
X4559808Y4631690D01*
X4559808Y4750511D01*
X4559096Y4756861D01*
X4557166Y4762296D01*
X4554118Y4767224D01*
X4550003Y4771288D01*
X4545126Y4774387D01*
X4539640Y4776266D01*
X4533341Y4776978D01*
X4204462Y4776978D01*
X4198162Y4776266D01*
X4192676Y4774387D01*
X4187799Y4771288D01*
X4183684Y4767224D01*
X4180636Y4762296D01*
X4178706Y4756861D01*
X4177995Y4750511D01*
X4177995Y4631690D01*
X4178706Y4625340D01*
X4180636Y4619904D01*
X4183684Y4614976D01*
X4187799Y4610912D01*
X4192676Y4607814D01*
X4198162Y4605934D01*
G37*
G36*
X4204462Y5205171D02*
G01*
X4533341Y5205171D01*
X4539640Y5205933D01*
X4545126Y5207812D01*
X4550003Y5210911D01*
X4554118Y5214975D01*
X4557166Y5219903D01*
X4559096Y5225338D01*
X4559808Y5231688D01*
X4559808Y5350510D01*
X4559096Y5356860D01*
X4557166Y5362295D01*
X4554118Y5367223D01*
X4550003Y5371287D01*
X4545126Y5374386D01*
X4539640Y5376265D01*
X4533341Y5376976D01*
X4204462Y5376976D01*
X4198162Y5376265D01*
X4192676Y5374386D01*
X4187799Y5371287D01*
X4183684Y5367223D01*
X4180636Y5362295D01*
X4178706Y5356860D01*
X4177995Y5350510D01*
X4177995Y5334660D01*
X4177233Y5330799D01*
X4174998Y5327497D01*
X4171746Y5325262D01*
X4167835Y5324500D01*
X4156557Y5324500D01*
X4153306Y5325059D01*
X4150410Y5326583D01*
X4148124Y5328970D01*
X4146346Y5331612D01*
X4139692Y5338572D01*
X4131919Y5344312D01*
X4123283Y5348681D01*
X4114088Y5351475D01*
X4104538Y5352745D01*
X4094886Y5352288D01*
X4085437Y5350256D01*
X4076496Y5346700D01*
X4068267Y5341620D01*
X4061053Y5335270D01*
X4054957Y5327751D01*
X4050284Y5319318D01*
X4047083Y5310225D01*
X4045458Y5300726D01*
X4045458Y5291074D01*
X4047083Y5281574D01*
X4050284Y5272481D01*
X4054957Y5264048D01*
X4061053Y5256530D01*
X4068267Y5250180D01*
X4076496Y5245100D01*
X4085437Y5241544D01*
X4094886Y5239512D01*
X4104538Y5239054D01*
X4114088Y5240324D01*
X4123283Y5243118D01*
X4131919Y5247487D01*
X4139692Y5253228D01*
X4140962Y5254548D01*
X4144314Y5256885D01*
X4148328Y5257698D01*
X4167835Y5257698D01*
X4171746Y5256936D01*
X4174998Y5254701D01*
X4177233Y5251399D01*
X4177995Y5247538D01*
X4177995Y5231688D01*
X4178706Y5225338D01*
X4180636Y5219903D01*
X4183684Y5214975D01*
X4187799Y5210911D01*
X4192676Y5207812D01*
X4198162Y5205933D01*
G37*
G36*
X4457750Y5605170D02*
G01*
X4533341Y5605170D01*
X4539640Y5605932D01*
X4545126Y5607812D01*
X4550003Y5610910D01*
X4554118Y5614974D01*
X4557166Y5619902D01*
X4559096Y5625338D01*
X4559808Y5631688D01*
X4559808Y5654751D01*
X4457750Y5654751D01*
G37*
G36*
X4204462Y5605170D02*
G01*
X4280052Y5605170D01*
X4280052Y5654751D01*
X4177995Y5654751D01*
X4177995Y5631688D01*
X4178706Y5625338D01*
X4180636Y5619902D01*
X4183684Y5614974D01*
X4187799Y5610910D01*
X4192676Y5607812D01*
X4198162Y5605932D01*
G37*
G36*
X5804458Y5605170D02*
G01*
X6133338Y5605170D01*
X6139637Y5605932D01*
X6145123Y5607812D01*
X6150000Y5610910D01*
X6154115Y5614974D01*
X6157163Y5619902D01*
X6159093Y5625338D01*
X6159804Y5631688D01*
X6159804Y5750509D01*
X6159093Y5756859D01*
X6157163Y5762294D01*
X6154115Y5767222D01*
X6150000Y5771286D01*
X6145123Y5774385D01*
X6139637Y5776264D01*
X6133338Y5776976D01*
X5804458Y5776976D01*
X5798159Y5776264D01*
X5792673Y5774385D01*
X5787796Y5771286D01*
X5783681Y5767222D01*
X5780633Y5762294D01*
X5778703Y5756859D01*
X5777992Y5750509D01*
X5777992Y5631688D01*
X5778703Y5625338D01*
X5780633Y5619902D01*
X5783681Y5614974D01*
X5787796Y5610910D01*
X5792673Y5607812D01*
X5798159Y5605932D01*
G37*
G36*
X4457750Y5727446D02*
G01*
X4559808Y5727446D01*
X4559808Y5750509D01*
X4559096Y5756859D01*
X4557166Y5762294D01*
X4554118Y5767222D01*
X4550003Y5771286D01*
X4545126Y5774385D01*
X4539640Y5776264D01*
X4533341Y5776976D01*
X4457750Y5776976D01*
G37*
G36*
X4177995Y5727446D02*
G01*
X4280052Y5727446D01*
X4280052Y5776976D01*
X4204462Y5776976D01*
X4198162Y5776264D01*
X4192676Y5774385D01*
X4187799Y5771286D01*
X4183684Y5767222D01*
X4180636Y5762294D01*
X4178706Y5756859D01*
X4177995Y5750509D01*
G37*

%LPD*%
G36*
X736092Y3025902D02*
G01*
X732180Y3026664D01*
X728878Y3028899D01*
X726694Y3032201D01*
X725932Y3036062D01*
X725932Y3185363D01*
X726440Y3188563D01*
X727964Y3191459D01*
X727964Y3257905D01*
X726440Y3260801D01*
X725932Y3264001D01*
X725932Y3341420D01*
X726440Y3344621D01*
X727964Y3347516D01*
X727964Y3413963D01*
X726440Y3416808D01*
X725932Y3420059D01*
X725932Y3565347D01*
X726440Y3568598D01*
X727964Y3571494D01*
X727964Y3637889D01*
X726440Y3640785D01*
X725932Y3644036D01*
X725932Y3721404D01*
X726440Y3724605D01*
X727964Y3727500D01*
X727964Y3793947D01*
X726440Y3796842D01*
X725932Y3800043D01*
X725932Y6353048D01*
X726694Y6356908D01*
X728878Y6360210D01*
X732180Y6362395D01*
X736092Y6363208D01*
X739952Y6362395D01*
X743254Y6360210D01*
X1226769Y5876696D01*
X1229004Y5873242D01*
X1229715Y5869178D01*
X1228750Y5865215D01*
X1226312Y5861913D01*
X1222705Y5859881D01*
X1217472Y5858154D01*
X1211275Y5854598D01*
X1207109Y5851042D01*
X799947Y5443880D01*
X795223Y5438038D01*
X792073Y5431840D01*
X790244Y5424982D01*
X789787Y5419496D01*
X789787Y4955438D01*
X790600Y4947970D01*
X792734Y4941316D01*
X796290Y4935169D01*
X799896Y4930952D01*
X1118057Y4612792D01*
X1123848Y4608068D01*
X1130096Y4604918D01*
X1136954Y4603089D01*
X1142441Y4602632D01*
X2116378Y4602632D01*
X2120239Y4601870D01*
X2123541Y4599686D01*
X2135682Y4587544D01*
X2141524Y4582820D01*
X2147722Y4579670D01*
X2154580Y4577791D01*
X2160066Y4577384D01*
X2283002Y4577384D01*
X2286457Y4576775D01*
X2289505Y4574997D01*
X2291791Y4572355D01*
X2293264Y4567580D01*
X2296464Y4559046D01*
X2301138Y4551222D01*
X2307183Y4544364D01*
X2314295Y4538675D01*
X2322322Y4534357D01*
X2331008Y4531512D01*
X2345283Y4529683D01*
X2348788Y4527397D01*
X2486761Y4389424D01*
X2492603Y4384700D01*
X2498801Y4381550D01*
X2505659Y4379671D01*
X2511145Y4379264D01*
X2739136Y4379264D01*
X2742946Y4378502D01*
X2746248Y4376369D01*
X2748432Y4373168D01*
X2749296Y4369358D01*
X2748635Y4365548D01*
X2745181Y4356252D01*
X2743555Y4347260D01*
X2743555Y4343501D01*
X2742742Y4339640D01*
X2740558Y4336338D01*
X2661005Y4256735D01*
X2657703Y4254550D01*
X2653792Y4253788D01*
X2427681Y4253788D01*
X2423922Y4254500D01*
X2420670Y4256582D01*
X2416962Y4260138D01*
X2409393Y4265168D01*
X2400960Y4268724D01*
X2392070Y4270756D01*
X2382977Y4271162D01*
X2373934Y4269943D01*
X2365248Y4267149D01*
X2357221Y4262831D01*
X2350109Y4257141D01*
X2344115Y4250283D01*
X2339441Y4242409D01*
X2336241Y4233875D01*
X2335276Y4228642D01*
X2333599Y4224578D01*
X2330348Y4221632D01*
X2326132Y4220362D01*
X2321814Y4220921D01*
X2318105Y4223258D01*
X2279700Y4261662D01*
X2277516Y4264964D01*
X2276754Y4268825D01*
X2276754Y4443526D01*
X2277211Y4446625D01*
X2278684Y4449470D01*
X2281986Y4454042D01*
X2285949Y4462272D01*
X2288387Y4471060D01*
X2289200Y4480102D01*
X2288387Y4489196D01*
X2285949Y4497984D01*
X2281986Y4506214D01*
X2276652Y4513580D01*
X2270048Y4519879D01*
X2262428Y4524908D01*
X2254046Y4528515D01*
X2245156Y4530547D01*
X2236063Y4530953D01*
X2227021Y4529734D01*
X2218334Y4526889D01*
X2210308Y4522571D01*
X2203196Y4516882D01*
X2197150Y4510024D01*
X2192477Y4502200D01*
X2189276Y4493666D01*
X2187651Y4484674D01*
X2187651Y4475581D01*
X2189276Y4466590D01*
X2192477Y4458055D01*
X2199284Y4446828D01*
X2199894Y4443272D01*
X2199894Y4249216D01*
X2200706Y4241241D01*
X2203094Y4233367D01*
X2203450Y4229354D01*
X2202281Y4225544D01*
X2199690Y4222496D01*
X2192070Y4216400D01*
X2188667Y4213910D01*
X2184552Y4213047D01*
X1967890Y4213047D01*
X1963978Y4213809D01*
X1960676Y4216044D01*
X1728266Y4448454D01*
X1726234Y4451350D01*
X1725320Y4454702D01*
X1724507Y4464100D01*
X1722069Y4472889D01*
X1718106Y4481118D01*
X1712772Y4488484D01*
X1706168Y4494784D01*
X1698548Y4499813D01*
X1690166Y4503420D01*
X1681276Y4505452D01*
X1672183Y4505858D01*
X1663141Y4504639D01*
X1654454Y4501794D01*
X1646428Y4497476D01*
X1639316Y4491786D01*
X1633270Y4484928D01*
X1628597Y4477105D01*
X1625396Y4468571D01*
X1623771Y4459579D01*
X1623771Y4450486D01*
X1625396Y4441494D01*
X1628597Y4432960D01*
X1633270Y4425137D01*
X1639316Y4418279D01*
X1646428Y4412589D01*
X1654454Y4408271D01*
X1663141Y4405426D01*
X1677416Y4403598D01*
X1680921Y4401312D01*
X1925828Y4156405D01*
X1931670Y4151680D01*
X1937867Y4148531D01*
X1944725Y4146651D01*
X1950212Y4146245D01*
X2113737Y4146245D01*
X2118055Y4145279D01*
X2121560Y4142587D01*
X2123592Y4138676D01*
X2123744Y4134256D01*
X2122373Y4126585D01*
X2122373Y4117492D01*
X2123998Y4108500D01*
X2127199Y4099966D01*
X2131872Y4092143D01*
X2137867Y4085285D01*
X2144979Y4079595D01*
X2153005Y4075277D01*
X2161692Y4072432D01*
X2170734Y4071213D01*
X2179828Y4071620D01*
X2188718Y4073651D01*
X2197150Y4077258D01*
X2204262Y4081932D01*
X2206955Y4083202D01*
X2209850Y4083608D01*
X2254605Y4083608D01*
X2262581Y4084421D01*
X2269794Y4086606D01*
X2276398Y4090162D01*
X2282596Y4095242D01*
X2311806Y4124451D01*
X2315565Y4126839D01*
X2320036Y4127398D01*
X2321864Y4127195D01*
X2417216Y4127195D01*
X2420569Y4126636D01*
X2423515Y4125010D01*
X2429865Y4118406D01*
X2434793Y4115308D01*
X2440990Y4113123D01*
X2444292Y4111193D01*
X2446680Y4108196D01*
X2447848Y4103420D01*
X2450033Y4096207D01*
X2453589Y4089603D01*
X2458669Y4083354D01*
X2467559Y4074515D01*
X2473756Y4069435D01*
X2480411Y4065879D01*
X2487574Y4063695D01*
X2495550Y4062882D01*
X2646781Y4062882D01*
X2650998Y4061968D01*
X2654452Y4059377D01*
X2656535Y4055567D01*
X2656840Y4051249D01*
X2655316Y4047185D01*
X2652217Y4044137D01*
X2648153Y4042664D01*
X2639517Y4041495D01*
X2630830Y4038701D01*
X2622804Y4034383D01*
X2615692Y4028694D01*
X2609646Y4021836D01*
X2604973Y4013962D01*
X2601772Y4005427D01*
X2600147Y3996486D01*
X2600147Y3987342D01*
X2601772Y3978401D01*
X2604973Y3969867D01*
X2609646Y3961993D01*
X2615692Y3955135D01*
X2622804Y3949446D01*
X2630830Y3945128D01*
X2639517Y3942334D01*
X2648559Y3941114D01*
X2657652Y3941521D01*
X2666542Y3943553D01*
X2674924Y3947109D01*
X2682544Y3952138D01*
X2689148Y3958437D01*
X2694482Y3965803D01*
X2698445Y3974033D01*
X2700883Y3982821D01*
X2701696Y3992219D01*
X2702610Y3995623D01*
X2704642Y3998518D01*
X2720797Y4014622D01*
X2724099Y4016857D01*
X2727960Y4017619D01*
X2763774Y4017619D01*
X2767634Y4016857D01*
X2770936Y4014622D01*
X2773172Y4011320D01*
X2773934Y4007459D01*
X2773172Y4003548D01*
X2770936Y4000246D01*
X2628950Y3858260D01*
X2625648Y3856075D01*
X2621737Y3855262D01*
X2036825Y3855262D01*
X2033930Y3855720D01*
X2031238Y3856939D01*
X2027936Y3859174D01*
X2019503Y3862730D01*
X2010613Y3864762D01*
X2001520Y3865168D01*
X1992477Y3863949D01*
X1983790Y3861155D01*
X1975764Y3856837D01*
X1968652Y3851148D01*
X1962657Y3844290D01*
X1957984Y3836415D01*
X1954784Y3827881D01*
X1953158Y3818940D01*
X1953158Y3809796D01*
X1954784Y3800856D01*
X1957984Y3792321D01*
X1962657Y3784447D01*
X1968652Y3777589D01*
X1975764Y3771900D01*
X1983790Y3767582D01*
X1992477Y3764787D01*
X2001520Y3763568D01*
X2010613Y3763975D01*
X2019503Y3766007D01*
X2027936Y3769563D01*
X2031238Y3771798D01*
X2033930Y3773017D01*
X2036876Y3773474D01*
X2642412Y3773474D01*
X2650845Y3774287D01*
X2658516Y3776624D01*
X2665577Y3780383D01*
X2672181Y3785819D01*
X2832557Y3946194D01*
X2834843Y3947922D01*
X2837484Y3948937D01*
X2842717Y3950106D01*
X2851150Y3953713D01*
X2858719Y3958742D01*
X2865323Y3965041D01*
X2870708Y3972407D01*
X2874619Y3980637D01*
X2877058Y3989425D01*
X2877870Y3998468D01*
X2877159Y4006545D01*
X2877667Y4010710D01*
X2879801Y4014317D01*
X2883204Y4016756D01*
X2887268Y4017619D01*
X3307638Y4017619D01*
X3311855Y4016705D01*
X3315309Y4014114D01*
X3317443Y4011676D01*
X3324555Y4005986D01*
X3332581Y4001668D01*
X3341268Y3998874D01*
X3350310Y3997655D01*
X3359404Y3998061D01*
X3368294Y4000093D01*
X3376726Y4003649D01*
X3384296Y4008678D01*
X3390900Y4014978D01*
X3396284Y4022344D01*
X3400196Y4030573D01*
X3402634Y4039362D01*
X3403447Y4048455D01*
X3402634Y4057548D01*
X3402076Y4059631D01*
X3401771Y4063339D01*
X3402787Y4066895D01*
X3405022Y4069842D01*
X3408222Y4071823D01*
X3411880Y4072483D01*
X4961991Y4072483D01*
X4965903Y4071721D01*
X4969154Y4069486D01*
X5022088Y4016603D01*
X5024272Y4013301D01*
X5025034Y4009390D01*
X5024831Y3861104D01*
X5025593Y3853129D01*
X5027777Y3845915D01*
X5031333Y3839260D01*
X5036362Y3833063D01*
X5043068Y3826357D01*
X5049266Y3821277D01*
X5055920Y3817721D01*
X5063134Y3815537D01*
X5071110Y3814775D01*
X5225542Y3814775D01*
X5233517Y3815537D01*
X5240731Y3817721D01*
X5247386Y3821277D01*
X5253583Y3826357D01*
X5760669Y4333443D01*
X5763971Y4335678D01*
X5767832Y4336440D01*
X5771743Y4335678D01*
X5774994Y4333443D01*
X5777230Y4330192D01*
X5777992Y4326280D01*
X5777992Y4231690D01*
X5778703Y4225340D01*
X5780633Y4219905D01*
X5783681Y4214977D01*
X5787796Y4210913D01*
X5792673Y4207814D01*
X5798159Y4205935D01*
X5804458Y4205173D01*
X6133338Y4205173D01*
X6139637Y4205935D01*
X6145123Y4207814D01*
X6150000Y4210913D01*
X6154115Y4214977D01*
X6157163Y4219905D01*
X6159093Y4225340D01*
X6159804Y4231690D01*
X6159804Y4249775D01*
X6160770Y4254042D01*
X6163462Y4257548D01*
X6167323Y4259580D01*
X6168644Y4259935D01*
X6174892Y4263085D01*
X6180683Y4267809D01*
X6356705Y4443831D01*
X6360007Y4446066D01*
X6363919Y4446828D01*
X6367780Y4446066D01*
X6371082Y4443831D01*
X6373317Y4440580D01*
X6374079Y4436668D01*
X6374079Y3036062D01*
X6373317Y3032201D01*
X6371082Y3028899D01*
X6367780Y3026664D01*
X6363919Y3025902D01*
G37*

%LPC*%
G36*
X795629Y3199282D02*
G01*
X805535Y3204667D01*
X814781Y3211576D01*
X822909Y3219754D01*
X829868Y3229000D01*
X835355Y3239109D01*
X839419Y3249930D01*
X840282Y3253841D01*
X795629Y3253841D01*
G37*
G36*
X1659636Y3199282D02*
G01*
X1669542Y3204667D01*
X1678787Y3211576D01*
X1686915Y3219754D01*
X1693824Y3229000D01*
X1699361Y3239109D01*
X1703425Y3249930D01*
X1704238Y3253841D01*
X1659636Y3253841D01*
G37*
G36*
X1591970Y3199282D02*
G01*
X1591970Y3253841D01*
X1547317Y3253841D01*
X1548180Y3249930D01*
X1552244Y3239109D01*
X1557782Y3229000D01*
X1564690Y3219754D01*
X1572818Y3211576D01*
X1582064Y3204667D01*
G37*
G36*
X1547317Y3351580D02*
G01*
X1591970Y3351580D01*
X1591970Y3406140D01*
X1582064Y3400755D01*
X1572818Y3393846D01*
X1564690Y3385667D01*
X1557782Y3376422D01*
X1552244Y3366312D01*
X1548180Y3355492D01*
G37*
G36*
X1659636Y3351580D02*
G01*
X1704238Y3351580D01*
X1703425Y3355492D01*
X1699361Y3366312D01*
X1693824Y3376422D01*
X1686915Y3385667D01*
X1678787Y3393846D01*
X1669542Y3400755D01*
X1659636Y3406140D01*
G37*
G36*
X795629Y3351580D02*
G01*
X840282Y3351580D01*
X839419Y3355492D01*
X835355Y3366312D01*
X829868Y3376422D01*
X822909Y3385667D01*
X814781Y3393846D01*
X805535Y3400755D01*
X795629Y3406140D01*
G37*
G36*
X1659636Y3579266D02*
G01*
X1669542Y3584651D01*
X1678787Y3591560D01*
X1686915Y3599738D01*
X1693824Y3608984D01*
X1699361Y3619093D01*
X1703425Y3629914D01*
X1704238Y3633876D01*
X1659636Y3633876D01*
G37*
G36*
X795629Y3579266D02*
G01*
X805535Y3584651D01*
X814781Y3591560D01*
X822909Y3599738D01*
X829868Y3608984D01*
X835355Y3619093D01*
X839419Y3629914D01*
X840282Y3633876D01*
X795629Y3633876D01*
G37*
G36*
X1591970Y3579266D02*
G01*
X1591970Y3633876D01*
X1547317Y3633876D01*
X1548180Y3629914D01*
X1552244Y3619093D01*
X1557782Y3608984D01*
X1564690Y3599738D01*
X1572818Y3591560D01*
X1582064Y3584651D01*
G37*
G36*
X1547317Y3731564D02*
G01*
X1591970Y3731564D01*
X1591970Y3786124D01*
X1582064Y3780739D01*
X1572818Y3773830D01*
X1564690Y3765651D01*
X1557782Y3756456D01*
X1552244Y3746296D01*
X1548180Y3735476D01*
G37*
G36*
X795629Y3731564D02*
G01*
X840282Y3731564D01*
X839419Y3735476D01*
X835355Y3746296D01*
X829868Y3756456D01*
X822909Y3765651D01*
X814781Y3773830D01*
X805535Y3780739D01*
X795629Y3786124D01*
G37*
G36*
X1659636Y3731564D02*
G01*
X1704238Y3731564D01*
X1703425Y3735476D01*
X1699361Y3746296D01*
X1693824Y3756456D01*
X1686915Y3765651D01*
X1678787Y3773830D01*
X1669542Y3780739D01*
X1659636Y3786124D01*
G37*

%LPD*%
D10*
X2972183Y4728413D02*
G01*
X2971800Y4728027D01*
X2971800Y4648200D01*
X3072208Y5228389D02*
G01*
X3072208Y5298315D01*
X3115871Y5341978D01*
X3672232Y5341978D01*
X3923108Y5091102D01*
X4368904Y5091102D01*
X1578510Y6266487D02*
G01*
X1578510Y6197602D01*
X3247214Y5003396D02*
G01*
X3343480Y5003396D01*
X3388667Y4958209D01*
X3388667Y4535121D01*
X3086661Y4233115D01*
X2967916Y4233115D01*
X2594510Y4165602D02*
G01*
X2763319Y4165602D01*
X2879194Y4165602D02*
G01*
X2879194Y4215310D01*
X3172208Y4728415D02*
G01*
X3172208Y4665703D01*
X2879194Y4215310D02*
G01*
X3172208Y4508324D01*
X3172208Y4665703D01*
X3122221Y5228389D02*
G01*
X3122221Y5291101D01*
X4368904Y4891102D02*
G01*
X3785796Y4891102D01*
X3385644Y5291254D01*
X3122373Y5291254D01*
X3122221Y5291101D01*
X2971802Y6527802D02*
G01*
X3109495Y6390109D01*
X3109495Y5875835D01*
X3284120Y5701210D01*
X3284120Y5651502D02*
G01*
X3284120Y5701210D01*
X2717802Y6527802D02*
G01*
X2590802Y6400802D01*
X2429461Y6400802D01*
X2349680Y6321021D01*
X2349680Y6217643D01*
X2866113Y5701210D01*
X2915820Y5701210D01*
X2915820Y5651502D02*
G01*
X2915820Y5701210D01*
X1323037Y5827676D02*
G01*
X725578Y6425135D01*
X725578Y6631790D01*
X810465Y6716676D01*
X2134415Y4660902D02*
G01*
X2134415Y4636061D01*
X3022221Y4728415D02*
G01*
X3022221Y4665703D01*
X3022221Y4665703D02*
G01*
X3022221Y4626079D01*
X2992452Y4596310D01*
X2394816Y4596310D01*
X2362151Y4628974D01*
X2322502Y4628974D01*
X2304315Y4610788D01*
X2159688Y4610788D01*
X2134415Y4636061D01*
X1323037Y5827676D02*
G01*
X1231013Y5827676D01*
X823216Y5419879D01*
X823216Y4954882D01*
X1142037Y4636061D01*
X2134415Y4636061D01*
X3022221Y5228389D02*
G01*
X3022221Y5291305D01*
X3222017Y5491101D01*
X4368904Y5491101D01*
X5968900Y4291103D02*
G01*
X6156606Y4291103D01*
X2319911Y5841977D02*
G01*
X2391793Y5770095D01*
X2391793Y4971112D01*
X2429334Y4933571D01*
X2489456Y4746703D02*
G01*
X2803933Y4746703D01*
X2822221Y4728415D01*
X1803148Y5744644D02*
G01*
X1727989Y5744644D01*
X1724967Y5747666D01*
X1732384Y5321302D02*
G01*
X1732384Y5389095D01*
X1724967Y5827676D02*
G01*
X1804164Y5827676D01*
X1366420Y5321302D02*
G01*
X1315443Y5321302D01*
X1315443Y5321302D02*
G01*
X1297790Y5321302D01*
X2972208Y5228389D02*
G01*
X2972208Y5291101D01*
X2747190Y5153383D02*
G01*
X2684503Y5153383D01*
X2684503Y5153383D02*
G01*
X2684503Y5215206D01*
X2818513Y5349217D01*
X2858823Y5349217D01*
X3053565Y5543958D01*
X3053565Y6192039D01*
X2971802Y6273802D01*
X3392731Y4305683D02*
G01*
X3302358Y4215310D01*
X3260194Y4215310D01*
X3260194Y4165602D02*
G01*
X3260194Y4215310D01*
X2203427Y4812235D02*
G01*
X2137768Y4877894D01*
X2134415Y4877894D01*
X3123110Y4568802D02*
G01*
X2984197Y4429889D01*
X2856029Y4429889D01*
X2838808Y4412668D01*
X2510767Y4412668D01*
X2342314Y4581121D01*
X2134415Y4926002D02*
G01*
X2134415Y4877894D01*
X2134415Y4926002D02*
G01*
X2134415Y4927602D01*
X2134415Y4927602D02*
G01*
X2134415Y4980612D01*
X2149121Y4995318D01*
X1244704Y5743806D02*
G01*
X1288569Y5787671D01*
X1323037Y5787671D01*
X1119964Y6716676D02*
G01*
X1296342Y6716676D01*
X2747190Y4853383D02*
G01*
X2684503Y4853383D01*
X3225802Y6273802D02*
G01*
X3225802Y6381498D01*
X3072208Y4728415D02*
G01*
X3072208Y4791102D01*
X3072208Y4791102D02*
G01*
X3097227Y4791102D01*
X3097227Y4791102D02*
G01*
X3122221Y4791102D01*
X3097227Y4791102D02*
G01*
X3097227Y4953383D01*
X3097227Y4953383D02*
G01*
X3022246Y4953383D01*
X2997227Y4978402D01*
X3097227Y4953383D02*
G01*
X3247214Y4953383D01*
X810465Y6616677D02*
G01*
X810491Y6616702D01*
X965202Y6616702D01*
X965202Y6616702D02*
G01*
X965202Y6474005D01*
X1378790Y5727677D02*
G01*
X1358800Y5747666D01*
X1323037Y5747666D01*
X1469494Y6540502D02*
G01*
X1469494Y6490794D01*
X1469494Y6197602D02*
G01*
X1469494Y6247310D01*
X965202Y6474005D02*
G01*
X1070155Y6369052D01*
X1347751Y6369052D01*
X1347751Y6369052D02*
G01*
X1469494Y6490794D01*
X927102Y5005402D02*
G01*
X1186792Y5005402D01*
X1452984Y5271594D01*
X1452984Y5321302D02*
G01*
X1452984Y5271594D01*
X1347751Y6369052D02*
G01*
X1469494Y6247310D01*
X1469494Y6197602D02*
G01*
X1469494Y6147894D01*
X5118102Y3920594D02*
G01*
X5167810Y3920594D01*
X2100734Y5753966D02*
G01*
X2100734Y5803673D01*
X1524002Y5727677D02*
G01*
X1485724Y5727677D01*
X1485724Y5727677D02*
G01*
X1378790Y5727677D01*
X1452984Y5321302D02*
G01*
X1452984Y5371010D01*
X2100734Y5803673D02*
G01*
X2118997Y5821936D01*
X2194029Y5821936D01*
X2822221Y5228389D02*
G01*
X2822221Y5291101D01*
X1452984Y5371010D02*
G01*
X1485724Y5403750D01*
X1485724Y5727677D01*
X2764411Y5227474D02*
G01*
X2822221Y5227474D01*
X2822221Y5228389D02*
G01*
X2822221Y5227474D01*
X2822221Y5227474D02*
G01*
X2822221Y5153408D01*
X2997227Y4978402D01*
X4368904Y4291103D02*
G01*
X4181198Y4291103D01*
X3122221Y4752291D02*
G01*
X3122221Y4791102D01*
X3122221Y4752291D02*
G01*
X3122221Y4728415D01*
X3122221Y4728415D02*
G01*
X3122221Y4665703D01*
X2822221Y5291101D02*
G01*
X2843608Y5291101D01*
X3143963Y5591456D01*
X3558263Y5591456D01*
X3657907Y5691101D01*
X4368904Y5691101D01*
X4181198Y4291103D02*
G01*
X4173908Y4298393D01*
X3712949Y4298393D01*
X1594843Y5321302D02*
G01*
X1503987Y5321302D01*
X1645820Y5321302D02*
G01*
X1594843Y5321302D01*
X1452984Y5321302D02*
G01*
X1503987Y5321302D01*
X3122221Y4665703D02*
G01*
X2929587Y4473069D01*
X2801343Y4473069D01*
X2100734Y5803673D02*
G01*
X2017930Y5886477D01*
X1524002Y5886477D01*
X1524002Y5727677D02*
G01*
X1524002Y5886477D01*
X1524002Y5886477D02*
G01*
X1524002Y6093386D01*
X1469494Y6147894D01*
X1625805Y3682697D02*
G01*
X761824Y3682697D01*
X761824Y3682697D02*
G01*
X761824Y3302688D01*
X1674446Y4455035D02*
G01*
X1949833Y4179648D01*
X2227252Y4179648D01*
X2747190Y5003396D02*
G01*
X2663090Y5003396D01*
X2639976Y5026510D01*
X3230196Y4453740D02*
G01*
X3270430Y4493973D01*
X3270430Y4623005D01*
D11*
X2003808Y3814371D02*
G01*
X2642897Y3814371D01*
X2827022Y3998495D01*
D10*
X2476705Y5025925D02*
G01*
X2477213Y5025417D01*
X2477213Y4900830D01*
X2438961Y4862578D01*
X2357808Y4862578D01*
X2872183Y4728415D02*
G01*
X2872183Y4665703D01*
X2872183Y4665703D02*
G01*
X2872031Y4665550D01*
X2423365Y4665550D01*
X3282190Y5225595D02*
G01*
X3175002Y5225595D01*
X3172208Y5228389D01*
X3002384Y5651502D02*
G01*
X3002384Y5560468D01*
X2846809Y5404893D01*
X3229256Y4733216D02*
G01*
X3222576Y4726536D01*
X3222576Y4513785D01*
X3085772Y4376981D01*
X3085772Y4335960D01*
X2747190Y5053408D02*
G01*
X2681099Y5053408D01*
X2592859Y5141648D01*
X2655064Y5361155D02*
G01*
X2642237Y5348328D01*
X2642237Y5145661D01*
X2684503Y5103395D01*
X2747190Y5103395D02*
G01*
X2684503Y5103395D01*
X3352599Y4048457D02*
G01*
X3350033Y4051023D01*
X2709928Y4051023D01*
X2650822Y3991917D01*
D12*
X1119964Y6616677D02*
G01*
X1557047Y6616677D01*
X1578510Y6595214D01*
X3369210Y4165602D02*
G01*
X3369210Y4110890D01*
X2988210Y4165602D02*
G01*
X2988210Y4110890D01*
X1578510Y6567858D02*
G01*
X1578510Y6595214D01*
X1578510Y6567858D02*
G01*
X1578510Y6540502D01*
X1578510Y6540502D02*
G01*
X1578510Y6485790D01*
X2485494Y4151937D02*
G01*
X2485494Y4110890D01*
X2485494Y4151937D02*
G01*
X2485494Y4165602D01*
X5968900Y5091102D02*
G01*
X6161610Y5091102D01*
X5118102Y4029610D02*
G01*
X5063390Y4029610D01*
X2290371Y5636110D02*
G01*
X2290371Y5051706D01*
X2220978Y4982314D01*
X2058266Y5549902D02*
G01*
X1802742Y5549902D01*
X1724967Y5627677D01*
X2126312Y5549902D02*
G01*
X2126312Y5617949D01*
X2144473Y5636110D01*
X2290371Y5636110D01*
X2220978Y4954958D02*
G01*
X2220978Y4982314D01*
X2058266Y5549902D02*
G01*
X2126312Y5549902D01*
X2220978Y4660902D02*
G01*
X2220978Y4715614D01*
X2220978Y4954958D02*
G01*
X2220978Y4927602D01*
X2747190Y4803396D02*
G01*
X2679499Y4803396D01*
X2988210Y4101315D02*
G01*
X2988210Y4110890D01*
X2988210Y4101315D02*
G01*
X3359635Y4101315D01*
X3369210Y4110890D01*
X2220978Y4927602D02*
G01*
X2220978Y4872890D01*
X1578510Y6485790D02*
G01*
X1605866Y6485790D01*
X2267054Y5824603D01*
X2267054Y5820082D01*
X2290371Y5796765D01*
X2290371Y5636110D01*
X2679499Y4803396D02*
G01*
X2256284Y4803396D01*
X2256284Y4803396D02*
G01*
X2256284Y4837584D01*
X2220978Y4872890D01*
X2485494Y4165602D02*
G01*
X2418285Y4165602D01*
X2256284Y4803396D02*
G01*
X2256284Y4761969D01*
X2227582Y4733267D01*
X2220978Y4715614D02*
G01*
X2227582Y4722218D01*
X2227582Y4733267D01*
X2485494Y4110890D02*
G01*
X2495069Y4101315D01*
X2988210Y4101315D01*
X2310056Y4177007D02*
G01*
X2255090Y4122041D01*
X2173023Y4122041D01*
X2310056Y4177007D02*
G01*
X2321435Y4165602D01*
X2418285Y4165602D01*
X2238326Y4480130D02*
G01*
X2238326Y4248711D01*
X2310056Y4177007D01*
D10*
X2209751Y5753966D02*
G01*
X2209751Y5704258D01*
X927102Y5205402D02*
G01*
X1323037Y5601337D01*
X1323037Y5627677D01*
X2209751Y5704258D02*
G01*
X2191463Y5685970D01*
X1836854Y5685970D01*
X1818566Y5667682D01*
X1818566Y5667682D02*
G01*
X1724967Y5667682D01*
X2208938Y5549902D02*
G01*
X2208938Y5399788D01*
X2111758Y5302608D01*
X3247214Y4903370D02*
G01*
X3309901Y4903370D01*
X3327834Y4934079D02*
G01*
X3309901Y4916147D01*
X3309901Y4903370D01*
X3367991Y5204487D02*
G01*
X3316886Y5153383D01*
X3247214Y5153383D01*
X3370684Y5651502D02*
G01*
X3370684Y5719447D01*
X2890573Y4382035D02*
G01*
X2833524Y4382035D01*
X2794205Y4342716D01*
X2794205Y4342716D02*
G01*
X2671853Y4220364D01*
X2385265Y4220364D01*
X2684525Y4853431D02*
G01*
X2664968Y4853431D01*
X2524506Y4993894D01*
X2524506Y5705094D01*
X2317750Y5911850D01*
X2317750Y6538721D01*
X2417572Y6638544D01*
X3271520Y6638544D01*
X3337052Y6573265D01*
X3337052Y6465823D01*
X3252724Y6381495D01*
X3225800Y6381495D01*
X2654300Y4953000D02*
G01*
X2747263Y4953254D01*
X2972308Y5291076D02*
G01*
X3231134Y5549900D01*
X3784600Y5549900D01*
X4102100Y5295900D02*
G01*
X4106900Y5291099D01*
X4368901Y5291099D01*
X3870860Y4608222D02*
G01*
X3425675Y5053408D01*
X3247214Y5053408D01*
X3247214Y5103370D02*
G01*
X3418639Y5103370D01*
X3720442Y4801567D01*
X3949700Y4801567D01*
X6311900Y5219700D02*
G01*
X6311900Y5321300D01*
X6142098Y5491101D01*
X5968900Y5491101D01*
X6210300Y5219700D02*
G01*
X6210300Y5232400D01*
X6151625Y5291073D01*
X5969000Y5291073D01*
D12*
X6161610Y5091102D02*
G01*
X6167706Y5085006D01*
D10*
X4181198Y4291103D02*
G01*
X4181198Y4226201D01*
X4229100Y4178300D01*
X5219700Y4051300D02*
G01*
X5219700Y4022191D01*
X5118100Y3920591D01*
X6172200Y4584700D02*
G01*
X6184900Y4584700D01*
X6172200Y4584700D02*
G01*
X6210300Y4546600D01*
X6210300Y4533900D01*
X6167500Y4491101D01*
X5968898Y4491101D01*
X6156706Y4291076D02*
G01*
X6350000Y4484370D01*
X6286500Y4902174D02*
G01*
X6286500Y4876800D01*
X6286500Y4902174D02*
G01*
X6362700Y4825974D01*
X6362700Y4495800D01*
X6344975Y4479348D01*
D12*
X6167627Y5085079D02*
G01*
X6167627Y4678171D01*
X6251193Y4594605D01*
X6251193Y4494021D01*
X6160515Y4403089D01*
X5775959Y4403089D01*
X5226050Y3853179D01*
X5070602Y3853179D01*
X5063236Y3860545D01*
X5063490Y4029710D01*
D10*
X1181100Y5664200D02*
G01*
X1184579Y5667679D01*
X1323035Y5667679D01*
D12*
X5063390Y4029610D02*
G01*
X4982110Y4110890D01*
X3369210Y4110890D01*
D13*
G01*
X2747187Y4953380D03*
G01*
X2747187Y4903393D03*
D14*
G01*
X2922193Y4728413D03*
D13*
G01*
X2654325Y4953000D03*
D15*
G01*
X5118100Y4029605D03*
D16*
G01*
X5118100Y3920591D03*
D17*
G01*
X1469494Y6540500D03*
G01*
X1578505Y6540500D03*
G01*
X2485494Y4165600D03*
G01*
X2594505Y4165600D03*
D18*
G01*
X2988205Y4165600D03*
G01*
X2879194Y4165600D03*
G01*
X3369205Y4165600D03*
G01*
X3260194Y4165600D03*
G01*
X1578505Y6197600D03*
G01*
X1469494Y6197600D03*
G01*
X2209749Y5753953D03*
G01*
X2100737Y5753953D03*
D19*
G01*
X1724964Y5827674D03*
G01*
X1724964Y5787669D03*
G01*
X1724964Y5747664D03*
G01*
X1724964Y5707684D03*
G01*
X1724964Y5667679D03*
G01*
X1724964Y5627674D03*
G01*
X1323035Y5627674D03*
G01*
X1323035Y5667679D03*
G01*
X1323035Y5707684D03*
G01*
X1323035Y5747664D03*
G01*
X1323035Y5787669D03*
G01*
X1323035Y5827674D03*
D20*
G01*
X1523992Y5727711D03*
D21*
G01*
X810463Y6716674D03*
G01*
X810463Y6616674D03*
G01*
X810463Y6516674D03*
G01*
X1119962Y6716674D03*
G01*
X1119962Y6616674D03*
G01*
X1119962Y6516674D03*
D22*
G01*
X965200Y6616700D03*
D23*
G01*
X2997225Y4978400D03*
D14*
G01*
X3172206Y4728413D03*
G01*
X3122218Y4728413D03*
G01*
X3072206Y4728413D03*
G01*
X3022218Y4728413D03*
G01*
X2972181Y4728413D03*
G01*
X2922193Y4728413D03*
G01*
X2872181Y4728413D03*
G01*
X2822219Y4728413D03*
D13*
G01*
X2747187Y4803394D03*
G01*
X2747187Y4853381D03*
G01*
X2747187Y4903393D03*
G01*
X2747187Y4953380D03*
G01*
X2747187Y5003393D03*
G01*
X2747187Y5053406D03*
G01*
X2747187Y5103393D03*
G01*
X2747187Y5153380D03*
D14*
G01*
X2822219Y5228386D03*
G01*
X2872231Y5228386D03*
G01*
X2922193Y5228386D03*
G01*
X2972206Y5228386D03*
G01*
X3022218Y5228386D03*
G01*
X3072206Y5228386D03*
G01*
X3122218Y5228386D03*
G01*
X3172206Y5228386D03*
D13*
G01*
X3247212Y5153380D03*
G01*
X3247212Y5103368D03*
G01*
X3247212Y5053406D03*
G01*
X3247212Y5003393D03*
G01*
X3247212Y4953380D03*
G01*
X3247212Y4903368D03*
G01*
X3247212Y4853381D03*
G01*
X3247212Y4803368D03*
D24*
G01*
X2134408Y4660900D03*
G01*
X2220974Y4660900D03*
G01*
X2134408Y4927600D03*
G01*
X2220974Y4927600D03*
D25*
G01*
X1452982Y5321300D03*
G01*
X1366417Y5321300D03*
D24*
G01*
X1645817Y5321300D03*
G01*
X1732382Y5321300D03*
D25*
G01*
X3370682Y5651500D03*
G01*
X3284117Y5651500D03*
G01*
X3002382Y5651500D03*
G01*
X2915817Y5651500D03*
D26*
G01*
X2058275Y5549900D03*
G01*
X2208924Y5549900D03*
D27*
G01*
X5968898Y5691098D03*
G01*
X5968898Y5491098D03*
G01*
X5968898Y5291099D03*
G01*
X5968898Y5091099D03*
G01*
X5968898Y4891100D03*
G01*
X5968898Y4691100D03*
G01*
X5968898Y4491101D03*
G01*
X5968898Y4291101D03*
G01*
X4368901Y4291101D03*
G01*
X4368901Y4491101D03*
G01*
X4368901Y4691100D03*
G01*
X4368901Y4891100D03*
G01*
X4368901Y5091099D03*
G01*
X4368901Y5291099D03*
G01*
X4368901Y5491098D03*
G01*
X4368901Y5691098D03*
D28*
G01*
X761822Y3302685D03*
G01*
X1625803Y3302685D03*
G01*
X761822Y3682695D03*
G01*
X1625803Y3682695D03*
D29*
G01*
X927100Y5005400D03*
G01*
X927100Y5205399D03*
D30*
G01*
X3225800Y6273800D03*
D31*
G01*
X3225800Y6527800D03*
G01*
X2971800Y6273800D03*
G01*
X2971800Y6527800D03*
G01*
X2717800Y6273800D03*
G01*
X2717800Y6527800D03*
G01*
X2463800Y6273800D03*
G01*
X2463800Y6527800D03*
G01*
X6286500Y4902174D03*
D32*
G01*
X2385263Y4220362D03*
G01*
X2794203Y4342714D03*
G01*
X2890570Y4382033D03*
G01*
X3367989Y5204485D03*
G01*
X3370681Y5719445D03*
G01*
X3327831Y4934077D03*
G01*
X2111756Y5302605D03*
G01*
X1818563Y5667679D03*
G01*
X2238324Y4480128D03*
G01*
X2227579Y4733264D03*
G01*
X2173020Y4122038D03*
G01*
X2655061Y5361152D03*
G01*
X3352596Y4048455D03*
G01*
X2650820Y3991914D03*
G01*
X3085769Y4335957D03*
G01*
X3229254Y4733213D03*
G01*
X2592857Y5141645D03*
G01*
X3282188Y5225592D03*
G01*
X2846806Y5404891D03*
G01*
X2423363Y4665548D03*
G01*
X2357805Y4862576D03*
G01*
X2476703Y5025923D03*
G01*
X2827020Y3998493D03*
G01*
X2003806Y3814368D03*
G01*
X2639974Y5026507D03*
G01*
X3270427Y4623003D03*
G01*
X3230194Y4453737D03*
G01*
X2227249Y4179646D03*
G01*
X1674444Y4455032D03*
G01*
X2801340Y4473067D03*
G01*
X3712946Y4298391D03*
G01*
X2764409Y5227472D03*
G01*
X2194026Y5821934D03*
G01*
X1296339Y6716674D03*
G01*
X1244701Y5743803D03*
G01*
X2149119Y4995316D03*
G01*
X2203424Y4812233D03*
G01*
X2342311Y4581118D03*
G01*
X3123107Y4568799D03*
G01*
X2971800Y4648200D03*
G01*
X3392728Y4305680D03*
G01*
X1804162Y5827674D03*
G01*
X1297787Y5321300D03*
G01*
X1803145Y5744641D03*
G01*
X1732381Y5389092D03*
G01*
X2489454Y4746701D03*
G01*
X2429332Y4933569D03*
G01*
X2319909Y5841974D03*
G01*
X2967913Y4233113D03*
G01*
X2763316Y4165600D03*
G01*
X1578508Y6266484D03*
D33*
G01*
X3784600Y5549900D03*
G01*
X4102100Y5295900D03*
G01*
X3870858Y4608220D03*
G01*
X6311900Y5219700D03*
G01*
X3949700Y4801565D03*
G01*
X6210300Y5219700D03*
G01*
X4229100Y4178300D03*
G01*
X5219700Y4051300D03*
G01*
X6172200Y4584700D03*
G01*
X1181100Y5664200D03*
M02*
