G04 Layer: TopSilkscreenLayer*
G04 EasyEDA v6.5.46, 2025-01-28 17:14:02*
G04 Gerber Generator version 0.2*
G04 Scale: 100 percent, Rotated: No, Reflected: No *
G04 Dimensions in millimeters *
G04 leading zeros omitted , absolute positions ,4 integer and 5 decimal *
%FSLAX45Y45*%
%MOMM*%

%ADD10C,0.1000*%
%ADD11C,0.1524*%
%ADD12C,0.2540*%
%ADD13C,0.1500*%
%ADD14C,0.1520*%
%ADD15C,0.1270*%
%ADD16C,0.2000*%
%ADD17C,0.5000*%
%ADD18C,0.0180*%

%LPD*%
D10*
X3378200Y3901163D02*
G01*
X3378200Y3862981D01*
X3378200Y3901163D02*
G01*
X3394562Y3901163D01*
X3400018Y3899344D01*
X3401837Y3897528D01*
X3403653Y3893891D01*
X3403653Y3888435D01*
X3401837Y3884800D01*
X3400018Y3882981D01*
X3394562Y3881163D01*
X3378200Y3881163D01*
X3415654Y3901163D02*
G01*
X3417473Y3899344D01*
X3419289Y3901163D01*
X3417473Y3902981D01*
X3415654Y3901163D01*
X3417473Y3888435D02*
G01*
X3417473Y3862981D01*
X3440381Y3888435D02*
G01*
X3436744Y3886619D01*
X3433109Y3882981D01*
X3431291Y3877528D01*
X3431291Y3873891D01*
X3433109Y3868435D01*
X3436744Y3864800D01*
X3440381Y3862981D01*
X3445835Y3862981D01*
X3449472Y3864800D01*
X3453109Y3868435D01*
X3454928Y3873891D01*
X3454928Y3877528D01*
X3453109Y3882981D01*
X3449472Y3886619D01*
X3445835Y3888435D01*
X3440381Y3888435D01*
X3472380Y3901163D02*
G01*
X3472380Y3870253D01*
X3474199Y3864800D01*
X3477836Y3862981D01*
X3481471Y3862981D01*
X3466927Y3888435D02*
G01*
X3479655Y3888435D01*
X3493472Y3888435D02*
G01*
X3493472Y3862981D01*
X3493472Y3877528D02*
G01*
X3495291Y3882981D01*
X3498926Y3886619D01*
X3502563Y3888435D01*
X3508016Y3888435D01*
X3545471Y3895709D02*
G01*
X3541836Y3899344D01*
X3536381Y3901163D01*
X3529109Y3901163D01*
X3523653Y3899344D01*
X3520018Y3895709D01*
X3520018Y3892072D01*
X3521836Y3888435D01*
X3523653Y3886619D01*
X3527290Y3884800D01*
X3538199Y3881163D01*
X3541836Y3879344D01*
X3543653Y3877528D01*
X3545471Y3873891D01*
X3545471Y3868435D01*
X3541836Y3864800D01*
X3536381Y3862981D01*
X3529109Y3862981D01*
X3523653Y3864800D01*
X3520018Y3868435D01*
X3577473Y3888435D02*
G01*
X3557473Y3862981D01*
X3557473Y3888435D02*
G01*
X3577473Y3888435D01*
X3557473Y3862981D02*
G01*
X3577473Y3862981D01*
X3589472Y3877528D02*
G01*
X3611290Y3877528D01*
X3611290Y3881163D01*
X3609472Y3884800D01*
X3607653Y3886619D01*
X3604018Y3888435D01*
X3598562Y3888435D01*
X3594928Y3886619D01*
X3591290Y3882981D01*
X3589472Y3877528D01*
X3589472Y3873891D01*
X3591290Y3868435D01*
X3594928Y3864800D01*
X3598562Y3862981D01*
X3604018Y3862981D01*
X3607653Y3864800D01*
X3611290Y3868435D01*
X3623289Y3888435D02*
G01*
X3630564Y3862981D01*
X3637836Y3888435D02*
G01*
X3630564Y3862981D01*
X3637836Y3888435D02*
G01*
X3645108Y3862981D01*
X3652380Y3888435D02*
G01*
X3645108Y3862981D01*
X3686200Y3882981D02*
G01*
X3682563Y3886619D01*
X3678925Y3888435D01*
X3673472Y3888435D01*
X3669835Y3886619D01*
X3666200Y3882981D01*
X3664381Y3877528D01*
X3664381Y3873891D01*
X3666200Y3868435D01*
X3669835Y3864800D01*
X3673472Y3862981D01*
X3678925Y3862981D01*
X3682563Y3864800D01*
X3686200Y3868435D01*
X3718199Y3888435D02*
G01*
X3698199Y3862981D01*
X3698199Y3888435D02*
G01*
X3718199Y3888435D01*
X3698199Y3862981D02*
G01*
X3718199Y3862981D01*
X3732016Y3888435D02*
G01*
X3742926Y3862981D01*
X3753835Y3888435D02*
G01*
X3742926Y3862981D01*
X3739288Y3855709D01*
X3735654Y3852072D01*
X3732016Y3850253D01*
X3730198Y3850253D01*
X3765834Y3901163D02*
G01*
X3765834Y3862981D01*
X3784018Y3888435D02*
G01*
X3765834Y3870253D01*
X3773109Y3877528D02*
G01*
X3785834Y3862981D01*
X3378200Y3824963D02*
G01*
X3378200Y3786781D01*
X3378200Y3786781D02*
G01*
X3400018Y3786781D01*
X3421108Y3812235D02*
G01*
X3417473Y3810419D01*
X3413836Y3806781D01*
X3412017Y3801328D01*
X3412017Y3797691D01*
X3413836Y3792235D01*
X3417473Y3788600D01*
X3421108Y3786781D01*
X3426564Y3786781D01*
X3430198Y3788600D01*
X3433836Y3792235D01*
X3435654Y3797691D01*
X3435654Y3801328D01*
X3433836Y3806781D01*
X3430198Y3810419D01*
X3426564Y3812235D01*
X3421108Y3812235D01*
X3447653Y3812235D02*
G01*
X3454928Y3786781D01*
X3462200Y3812235D02*
G01*
X3454928Y3786781D01*
X3462200Y3812235D02*
G01*
X3469472Y3786781D01*
X3476744Y3812235D02*
G01*
X3469472Y3786781D01*
X3488745Y3824963D02*
G01*
X3488745Y3786781D01*
X3488745Y3824963D02*
G01*
X3512380Y3824963D01*
X3488745Y3806781D02*
G01*
X3503289Y3806781D01*
X3488745Y3786781D02*
G01*
X3512380Y3786781D01*
X3524382Y3812235D02*
G01*
X3524382Y3786781D01*
X3524382Y3804963D02*
G01*
X3529835Y3810419D01*
X3533472Y3812235D01*
X3538926Y3812235D01*
X3542563Y3810419D01*
X3544382Y3804963D01*
X3544382Y3786781D01*
X3556381Y3801328D02*
G01*
X3578199Y3801328D01*
X3578199Y3804963D01*
X3576380Y3808600D01*
X3574562Y3810419D01*
X3570927Y3812235D01*
X3565471Y3812235D01*
X3561836Y3810419D01*
X3558199Y3806781D01*
X3556381Y3801328D01*
X3556381Y3797691D01*
X3558199Y3792235D01*
X3561836Y3788600D01*
X3565471Y3786781D01*
X3570927Y3786781D01*
X3574562Y3788600D01*
X3578199Y3792235D01*
X3590198Y3812235D02*
G01*
X3590198Y3786781D01*
X3590198Y3801328D02*
G01*
X3592017Y3806781D01*
X3595654Y3810419D01*
X3599289Y3812235D01*
X3604745Y3812235D01*
X3638562Y3812235D02*
G01*
X3638562Y3783144D01*
X3636744Y3777691D01*
X3634927Y3775872D01*
X3631290Y3774053D01*
X3625834Y3774053D01*
X3622200Y3775872D01*
X3638562Y3806781D02*
G01*
X3634927Y3810419D01*
X3631290Y3812235D01*
X3625834Y3812235D01*
X3622200Y3810419D01*
X3618562Y3806781D01*
X3616744Y3801328D01*
X3616744Y3797691D01*
X3618562Y3792235D01*
X3622200Y3788600D01*
X3625834Y3786781D01*
X3631290Y3786781D01*
X3634927Y3788600D01*
X3638562Y3792235D01*
X3652380Y3812235D02*
G01*
X3663289Y3786781D01*
X3674198Y3812235D02*
G01*
X3663289Y3786781D01*
X3659654Y3779509D01*
X3656017Y3775872D01*
X3652380Y3774053D01*
X3650564Y3774053D01*
X3686200Y3824963D02*
G01*
X3686200Y3786781D01*
X3711653Y3824963D02*
G01*
X3711653Y3786781D01*
X3686200Y3806781D02*
G01*
X3711653Y3806781D01*
X3723652Y3812235D02*
G01*
X3723652Y3794053D01*
X3725471Y3788600D01*
X3729108Y3786781D01*
X3734561Y3786781D01*
X3738199Y3788600D01*
X3743652Y3794053D01*
X3743652Y3812235D02*
G01*
X3743652Y3786781D01*
X3755654Y3812235D02*
G01*
X3755654Y3786781D01*
X3755654Y3804963D02*
G01*
X3761107Y3810419D01*
X3764744Y3812235D01*
X3770198Y3812235D01*
X3773835Y3810419D01*
X3775654Y3804963D01*
X3775654Y3786781D01*
X3775654Y3804963D02*
G01*
X3781107Y3810419D01*
X3784744Y3812235D01*
X3790198Y3812235D01*
X3793835Y3810419D01*
X3795654Y3804963D01*
X3795654Y3786781D01*
X3807653Y3824963D02*
G01*
X3809471Y3823144D01*
X3811290Y3824963D01*
X3809471Y3826781D01*
X3807653Y3824963D01*
X3809471Y3812235D02*
G01*
X3809471Y3786781D01*
X3845107Y3824963D02*
G01*
X3845107Y3786781D01*
X3845107Y3806781D02*
G01*
X3841470Y3810419D01*
X3837835Y3812235D01*
X3832379Y3812235D01*
X3828745Y3810419D01*
X3825107Y3806781D01*
X3823289Y3801328D01*
X3823289Y3797691D01*
X3825107Y3792235D01*
X3828745Y3788600D01*
X3832379Y3786781D01*
X3837835Y3786781D01*
X3841470Y3788600D01*
X3845107Y3792235D01*
X3857109Y3824963D02*
G01*
X3858925Y3823144D01*
X3860744Y3824963D01*
X3858925Y3826781D01*
X3857109Y3824963D01*
X3858925Y3812235D02*
G01*
X3858925Y3786781D01*
X3878199Y3824963D02*
G01*
X3878199Y3794053D01*
X3880017Y3788600D01*
X3883652Y3786781D01*
X3887289Y3786781D01*
X3872745Y3812235D02*
G01*
X3885471Y3812235D01*
X3901107Y3812235D02*
G01*
X3912016Y3786781D01*
X3922925Y3812235D02*
G01*
X3912016Y3786781D01*
X3908381Y3779509D01*
X3904744Y3775872D01*
X3901107Y3774053D01*
X3899288Y3774053D01*
X3960380Y3819509D02*
G01*
X3956743Y3823144D01*
X3951290Y3824963D01*
X3944018Y3824963D01*
X3938562Y3823144D01*
X3934927Y3819509D01*
X3934927Y3815872D01*
X3936743Y3812235D01*
X3938562Y3810419D01*
X3942199Y3808600D01*
X3953108Y3804963D01*
X3956743Y3803144D01*
X3958562Y3801328D01*
X3960380Y3797691D01*
X3960380Y3792235D01*
X3956743Y3788600D01*
X3951290Y3786781D01*
X3944018Y3786781D01*
X3938562Y3788600D01*
X3934927Y3792235D01*
X3972379Y3801328D02*
G01*
X3994198Y3801328D01*
X3994198Y3804963D01*
X3992379Y3808600D01*
X3990563Y3810419D01*
X3986926Y3812235D01*
X3981470Y3812235D01*
X3977835Y3810419D01*
X3974198Y3806781D01*
X3972379Y3801328D01*
X3972379Y3797691D01*
X3974198Y3792235D01*
X3977835Y3788600D01*
X3981470Y3786781D01*
X3986926Y3786781D01*
X3990563Y3788600D01*
X3994198Y3792235D01*
X4006199Y3812235D02*
G01*
X4006199Y3786781D01*
X4006199Y3804963D02*
G01*
X4011653Y3810419D01*
X4015290Y3812235D01*
X4020743Y3812235D01*
X4024381Y3810419D01*
X4026199Y3804963D01*
X4026199Y3786781D01*
X4058198Y3806781D02*
G01*
X4056379Y3810419D01*
X4050926Y3812235D01*
X4045470Y3812235D01*
X4040017Y3810419D01*
X4038198Y3806781D01*
X4040017Y3803144D01*
X4043652Y3801328D01*
X4052745Y3799509D01*
X4056379Y3797691D01*
X4058198Y3794053D01*
X4058198Y3792235D01*
X4056379Y3788600D01*
X4050926Y3786781D01*
X4045470Y3786781D01*
X4040017Y3788600D01*
X4038198Y3792235D01*
X4079288Y3812235D02*
G01*
X4075653Y3810419D01*
X4072016Y3806781D01*
X4070197Y3801328D01*
X4070197Y3797691D01*
X4072016Y3792235D01*
X4075653Y3788600D01*
X4079288Y3786781D01*
X4084744Y3786781D01*
X4088381Y3788600D01*
X4092016Y3792235D01*
X4093834Y3797691D01*
X4093834Y3801328D01*
X4092016Y3806781D01*
X4088381Y3810419D01*
X4084744Y3812235D01*
X4079288Y3812235D01*
X4105833Y3812235D02*
G01*
X4105833Y3786781D01*
X4105833Y3801328D02*
G01*
X4107652Y3806781D01*
X4111289Y3810419D01*
X4114927Y3812235D01*
X4120380Y3812235D01*
X3378200Y3761463D02*
G01*
X3392746Y3723281D01*
X3407290Y3761463D02*
G01*
X3392746Y3723281D01*
X3421108Y3732372D02*
G01*
X3419289Y3730553D01*
X3421108Y3728735D01*
X3422926Y3730553D01*
X3421108Y3732372D01*
X3434928Y3754191D02*
G01*
X3438563Y3756009D01*
X3444019Y3761463D01*
X3444019Y3723281D01*
X3457836Y3732372D02*
G01*
X3456017Y3730553D01*
X3457836Y3728735D01*
X3459655Y3730553D01*
X3457836Y3732372D01*
X3482563Y3761463D02*
G01*
X3477110Y3759644D01*
X3473472Y3754191D01*
X3471654Y3745100D01*
X3471654Y3739644D01*
X3473472Y3730553D01*
X3477110Y3725100D01*
X3482563Y3723281D01*
X3486200Y3723281D01*
X3491654Y3725100D01*
X3495291Y3730553D01*
X3497110Y3739644D01*
X3497110Y3745100D01*
X3495291Y3754191D01*
X3491654Y3759644D01*
X3486200Y3761463D01*
X3482563Y3761463D01*
D11*
X6222997Y4788928D02*
G01*
X6222997Y4679708D01*
X6222997Y4679708D02*
G01*
X6285227Y4679708D01*
X6319517Y4768100D02*
G01*
X6329931Y4773434D01*
X6345679Y4788928D01*
X6345679Y4679708D01*
X5278775Y4000106D02*
G01*
X5273441Y4010520D01*
X5263027Y4020934D01*
X5252867Y4026014D01*
X5232039Y4026014D01*
X5221625Y4020934D01*
X5211211Y4010520D01*
X5205877Y4000106D01*
X5200797Y3984358D01*
X5200797Y3958450D01*
X5205877Y3942956D01*
X5211211Y3932542D01*
X5221625Y3922128D01*
X5232039Y3917048D01*
X5252867Y3917048D01*
X5263027Y3922128D01*
X5273441Y3932542D01*
X5278775Y3942956D01*
X5323479Y4026014D02*
G01*
X5380629Y4026014D01*
X5349387Y3984358D01*
X5364881Y3984358D01*
X5375295Y3979278D01*
X5380629Y3974198D01*
X5385709Y3958450D01*
X5385709Y3948036D01*
X5380629Y3932542D01*
X5370215Y3922128D01*
X5354467Y3917048D01*
X5338973Y3917048D01*
X5323479Y3922128D01*
X5318145Y3927208D01*
X5313065Y3937622D01*
X1551170Y6706120D02*
G01*
X1545836Y6716534D01*
X1535422Y6726948D01*
X1525262Y6732028D01*
X1504434Y6732028D01*
X1494020Y6726948D01*
X1483606Y6716534D01*
X1478272Y6706120D01*
X1473192Y6690372D01*
X1473192Y6664464D01*
X1478272Y6648970D01*
X1483606Y6638556D01*
X1494020Y6628142D01*
X1504434Y6623062D01*
X1525262Y6623062D01*
X1535422Y6628142D01*
X1545836Y6638556D01*
X1551170Y6648970D01*
X1647690Y6716534D02*
G01*
X1642610Y6726948D01*
X1626862Y6732028D01*
X1616702Y6732028D01*
X1600954Y6726948D01*
X1590540Y6711200D01*
X1585460Y6685292D01*
X1585460Y6659384D01*
X1590540Y6638556D01*
X1600954Y6628142D01*
X1616702Y6623062D01*
X1621782Y6623062D01*
X1637276Y6628142D01*
X1647690Y6638556D01*
X1653024Y6654050D01*
X1653024Y6659384D01*
X1647690Y6674878D01*
X1637276Y6685292D01*
X1621782Y6690372D01*
X1616702Y6690372D01*
X1600954Y6685292D01*
X1590540Y6674878D01*
X1585460Y6659384D01*
X2579870Y4343920D02*
G01*
X2574536Y4354334D01*
X2564122Y4364748D01*
X2553962Y4369828D01*
X2533134Y4369828D01*
X2522720Y4364748D01*
X2512306Y4354334D01*
X2506972Y4343920D01*
X2501892Y4328172D01*
X2501892Y4302264D01*
X2506972Y4286770D01*
X2512306Y4276356D01*
X2522720Y4265942D01*
X2533134Y4260862D01*
X2553962Y4260862D01*
X2564122Y4265942D01*
X2574536Y4276356D01*
X2579870Y4286770D01*
X2686804Y4369828D02*
G01*
X2634988Y4260862D01*
X2614160Y4369828D02*
G01*
X2686804Y4369828D01*
X2948170Y4331220D02*
G01*
X2942836Y4341634D01*
X2932422Y4352048D01*
X2922262Y4357128D01*
X2901434Y4357128D01*
X2891020Y4352048D01*
X2880606Y4341634D01*
X2875272Y4331220D01*
X2870192Y4315472D01*
X2870192Y4289564D01*
X2875272Y4274070D01*
X2880606Y4263656D01*
X2891020Y4253242D01*
X2901434Y4248162D01*
X2922262Y4248162D01*
X2932422Y4253242D01*
X2942836Y4263656D01*
X2948170Y4274070D01*
X3008368Y4357128D02*
G01*
X2992874Y4352048D01*
X2987540Y4341634D01*
X2987540Y4331220D01*
X2992874Y4320806D01*
X3003288Y4315472D01*
X3023862Y4310392D01*
X3039610Y4305312D01*
X3050024Y4294898D01*
X3055104Y4284484D01*
X3055104Y4268736D01*
X3050024Y4258322D01*
X3044690Y4253242D01*
X3029196Y4248162D01*
X3008368Y4248162D01*
X2992874Y4253242D01*
X2987540Y4258322D01*
X2982460Y4268736D01*
X2982460Y4284484D01*
X2987540Y4294898D01*
X2997954Y4305312D01*
X3013702Y4310392D01*
X3034276Y4315472D01*
X3044690Y4320806D01*
X3050024Y4331220D01*
X3050024Y4341634D01*
X3044690Y4352048D01*
X3029196Y4357128D01*
X3008368Y4357128D01*
X3341870Y4331220D02*
G01*
X3336536Y4341634D01*
X3326122Y4352048D01*
X3315962Y4357128D01*
X3295134Y4357128D01*
X3284720Y4352048D01*
X3274306Y4341634D01*
X3268972Y4331220D01*
X3263892Y4315472D01*
X3263892Y4289564D01*
X3268972Y4274070D01*
X3274306Y4263656D01*
X3284720Y4253242D01*
X3295134Y4248162D01*
X3315962Y4248162D01*
X3326122Y4253242D01*
X3336536Y4263656D01*
X3341870Y4274070D01*
X3443724Y4320806D02*
G01*
X3438390Y4305312D01*
X3427976Y4294898D01*
X3412482Y4289564D01*
X3407402Y4289564D01*
X3391654Y4294898D01*
X3381240Y4305312D01*
X3376160Y4320806D01*
X3376160Y4325886D01*
X3381240Y4341634D01*
X3391654Y4352048D01*
X3407402Y4357128D01*
X3412482Y4357128D01*
X3427976Y4352048D01*
X3438390Y4341634D01*
X3443724Y4320806D01*
X3443724Y4294898D01*
X3438390Y4268736D01*
X3427976Y4253242D01*
X3412482Y4248162D01*
X3402068Y4248162D01*
X3386574Y4253242D01*
X3381240Y4263656D01*
X1487672Y6363220D02*
G01*
X1482338Y6373634D01*
X1471924Y6384048D01*
X1461764Y6389128D01*
X1440936Y6389128D01*
X1430522Y6384048D01*
X1420108Y6373634D01*
X1414774Y6363220D01*
X1409694Y6347472D01*
X1409694Y6321564D01*
X1414774Y6306070D01*
X1420108Y6295656D01*
X1430522Y6285242D01*
X1440936Y6280162D01*
X1461764Y6280162D01*
X1471924Y6285242D01*
X1482338Y6295656D01*
X1487672Y6306070D01*
X1521962Y6368300D02*
G01*
X1532376Y6373634D01*
X1547870Y6389128D01*
X1547870Y6280162D01*
X1592574Y6389128D02*
G01*
X1649724Y6389128D01*
X1618482Y6347472D01*
X1634230Y6347472D01*
X1644644Y6342392D01*
X1649724Y6337312D01*
X1654804Y6321564D01*
X1654804Y6311150D01*
X1649724Y6295656D01*
X1639310Y6285242D01*
X1623816Y6280162D01*
X1608068Y6280162D01*
X1592574Y6285242D01*
X1587494Y6290322D01*
X1582160Y6300736D01*
X2106216Y5906874D02*
G01*
X2100882Y5917288D01*
X2090468Y5927702D01*
X2080308Y5932782D01*
X2059480Y5932782D01*
X2049066Y5927702D01*
X2038652Y5917288D01*
X2033318Y5906874D01*
X2028238Y5891126D01*
X2028238Y5865218D01*
X2033318Y5849724D01*
X2038652Y5839310D01*
X2049066Y5828896D01*
X2059480Y5823816D01*
X2080308Y5823816D01*
X2090468Y5828896D01*
X2100882Y5839310D01*
X2106216Y5849724D01*
X2140506Y5911954D02*
G01*
X2150920Y5917288D01*
X2166414Y5932782D01*
X2166414Y5823816D01*
X2252774Y5932782D02*
G01*
X2200704Y5860138D01*
X2278682Y5860138D01*
X2252774Y5932782D02*
G01*
X2252774Y5823816D01*
X1587507Y6020828D02*
G01*
X1587507Y5942850D01*
X1592587Y5927356D01*
X1603001Y5916942D01*
X1618749Y5911608D01*
X1629163Y5911608D01*
X1644657Y5916942D01*
X1655071Y5927356D01*
X1660151Y5942850D01*
X1660151Y6020828D01*
X1746511Y6020828D02*
G01*
X1694441Y5948184D01*
X1772419Y5948184D01*
X1746511Y6020828D02*
G01*
X1746511Y5911608D01*
X990602Y6427228D02*
G01*
X990602Y6349250D01*
X995682Y6333756D01*
X1006096Y6323342D01*
X1021844Y6318008D01*
X1032258Y6318008D01*
X1047752Y6323342D01*
X1058166Y6333756D01*
X1063246Y6349250D01*
X1063246Y6427228D01*
X1107950Y6427228D02*
G01*
X1165100Y6427228D01*
X1134112Y6385572D01*
X1149606Y6385572D01*
X1160020Y6380492D01*
X1165100Y6375158D01*
X1170434Y6359664D01*
X1170434Y6349250D01*
X1165100Y6333756D01*
X1154686Y6323342D01*
X1139192Y6318008D01*
X1123698Y6318008D01*
X1107950Y6323342D01*
X1102870Y6328422D01*
X1097536Y6338836D01*
X3149612Y5398528D02*
G01*
X3149612Y5320550D01*
X3154692Y5305056D01*
X3165106Y5294642D01*
X3180854Y5289308D01*
X3191268Y5289308D01*
X3206762Y5294642D01*
X3217176Y5305056D01*
X3222256Y5320550D01*
X3222256Y5398528D01*
X3319030Y5398528D02*
G01*
X3266960Y5398528D01*
X3261880Y5351792D01*
X3266960Y5356872D01*
X3282708Y5362206D01*
X3298202Y5362206D01*
X3313696Y5356872D01*
X3324110Y5346458D01*
X3329444Y5330964D01*
X3329444Y5320550D01*
X3324110Y5305056D01*
X3313696Y5294642D01*
X3298202Y5289308D01*
X3282708Y5289308D01*
X3266960Y5294642D01*
X3261880Y5299722D01*
X3256546Y5310136D01*
X2101489Y4839728D02*
G01*
X2101489Y4730762D01*
X2101489Y4839728D02*
G01*
X2148225Y4839728D01*
X2163719Y4834648D01*
X2169053Y4829314D01*
X2174133Y4818900D01*
X2174133Y4808486D01*
X2169053Y4798072D01*
X2163719Y4792992D01*
X2148225Y4787912D01*
X2101489Y4787912D01*
X2137811Y4787912D02*
G01*
X2174133Y4730762D01*
X2218837Y4839728D02*
G01*
X2275987Y4839728D01*
X2244999Y4798072D01*
X2260493Y4798072D01*
X2270907Y4792992D01*
X2275987Y4787912D01*
X2281321Y4772164D01*
X2281321Y4761750D01*
X2275987Y4746256D01*
X2265573Y4735842D01*
X2250079Y4730762D01*
X2234585Y4730762D01*
X2218837Y4735842D01*
X2213757Y4740922D01*
X2208423Y4751336D01*
X2101489Y5119128D02*
G01*
X2101489Y5010162D01*
X2101489Y5119128D02*
G01*
X2148225Y5119128D01*
X2163719Y5114048D01*
X2169053Y5108714D01*
X2174133Y5098300D01*
X2174133Y5087886D01*
X2169053Y5077472D01*
X2163719Y5072392D01*
X2148225Y5067312D01*
X2101489Y5067312D01*
X2137811Y5067312D02*
G01*
X2174133Y5010162D01*
X2260493Y5119128D02*
G01*
X2208423Y5046484D01*
X2286401Y5046484D01*
X2260493Y5119128D02*
G01*
X2260493Y5010162D01*
X1308100Y5246128D02*
G01*
X1308100Y5137162D01*
X1308100Y5246128D02*
G01*
X1354836Y5246128D01*
X1370329Y5241048D01*
X1375663Y5235714D01*
X1380744Y5225300D01*
X1380744Y5214886D01*
X1375663Y5204472D01*
X1370329Y5199392D01*
X1354836Y5194312D01*
X1308100Y5194312D01*
X1344421Y5194312D02*
G01*
X1380744Y5137162D01*
X1415034Y5225300D02*
G01*
X1425447Y5230634D01*
X1441195Y5246128D01*
X1441195Y5137162D01*
X1475486Y5225300D02*
G01*
X1485900Y5230634D01*
X1501394Y5246128D01*
X1501394Y5137162D01*
X1600200Y5246128D02*
G01*
X1600200Y5137162D01*
X1600200Y5246128D02*
G01*
X1646936Y5246128D01*
X1662429Y5241048D01*
X1667763Y5235714D01*
X1672844Y5225300D01*
X1672844Y5214886D01*
X1667763Y5204472D01*
X1662429Y5199392D01*
X1646936Y5194312D01*
X1600200Y5194312D01*
X1636521Y5194312D02*
G01*
X1672844Y5137162D01*
X1707134Y5225300D02*
G01*
X1717547Y5230634D01*
X1733295Y5246128D01*
X1733295Y5137162D01*
X1772665Y5220220D02*
G01*
X1772665Y5225300D01*
X1778000Y5235714D01*
X1783079Y5241048D01*
X1793494Y5246128D01*
X1814321Y5246128D01*
X1824736Y5241048D01*
X1829815Y5235714D01*
X1835150Y5225300D01*
X1835150Y5214886D01*
X1829815Y5204472D01*
X1819402Y5188978D01*
X1767586Y5137162D01*
X1840229Y5137162D01*
X3187700Y5843028D02*
G01*
X3187700Y5734062D01*
X3187700Y5843028D02*
G01*
X3234436Y5843028D01*
X3249929Y5837948D01*
X3255263Y5832614D01*
X3260343Y5822200D01*
X3260343Y5811786D01*
X3255263Y5801372D01*
X3249929Y5796292D01*
X3234436Y5791212D01*
X3187700Y5791212D01*
X3224022Y5791212D02*
G01*
X3260343Y5734062D01*
X3294634Y5822200D02*
G01*
X3305047Y5827534D01*
X3320795Y5843028D01*
X3320795Y5734062D01*
X3406902Y5843028D02*
G01*
X3355086Y5770384D01*
X3432809Y5770384D01*
X3406902Y5843028D02*
G01*
X3406902Y5734062D01*
X2819400Y5843028D02*
G01*
X2819400Y5734062D01*
X2819400Y5843028D02*
G01*
X2866136Y5843028D01*
X2881629Y5837948D01*
X2886963Y5832614D01*
X2892043Y5822200D01*
X2892043Y5811786D01*
X2886963Y5801372D01*
X2881629Y5796292D01*
X2866136Y5791212D01*
X2819400Y5791212D01*
X2855722Y5791212D02*
G01*
X2892043Y5734062D01*
X2926334Y5822200D02*
G01*
X2936747Y5827534D01*
X2952495Y5843028D01*
X2952495Y5734062D01*
X3049015Y5843028D02*
G01*
X2997200Y5843028D01*
X2991865Y5796292D01*
X2997200Y5801372D01*
X3012693Y5806706D01*
X3028188Y5806706D01*
X3043936Y5801372D01*
X3054350Y5791212D01*
X3059429Y5775464D01*
X3059429Y5765050D01*
X3054350Y5749556D01*
X3043936Y5739142D01*
X3028188Y5734062D01*
X3012693Y5734062D01*
X2997200Y5739142D01*
X2991865Y5744222D01*
X2986786Y5754636D01*
X2031989Y5462028D02*
G01*
X2031989Y5353062D01*
X2031989Y5462028D02*
G01*
X2078725Y5462028D01*
X2094219Y5456948D01*
X2099553Y5451614D01*
X2104633Y5441200D01*
X2104633Y5430786D01*
X2099553Y5420372D01*
X2094219Y5415292D01*
X2078725Y5410212D01*
X2031989Y5410212D01*
X2068311Y5410212D02*
G01*
X2104633Y5353062D01*
X2138923Y5441200D02*
G01*
X2149337Y5446534D01*
X2165085Y5462028D01*
X2165085Y5353062D01*
X2209789Y5462028D02*
G01*
X2266939Y5462028D01*
X2235697Y5420372D01*
X2251191Y5420372D01*
X2261605Y5415292D01*
X2266939Y5410212D01*
X2272019Y5394464D01*
X2272019Y5384050D01*
X2266939Y5368556D01*
X2256525Y5358142D01*
X2240777Y5353062D01*
X2225283Y5353062D01*
X2209789Y5358142D01*
X2204455Y5363222D01*
X2199375Y5373636D01*
X5143500Y5984239D02*
G01*
X5143500Y5906262D01*
X5148834Y5890768D01*
X5159247Y5880354D01*
X5174741Y5875020D01*
X5185156Y5875020D01*
X5200650Y5880354D01*
X5211063Y5890768D01*
X5216397Y5906262D01*
X5216397Y5984239D01*
X5312918Y5968745D02*
G01*
X5307838Y5978905D01*
X5292090Y5984239D01*
X5281929Y5984239D01*
X5266181Y5978905D01*
X5255768Y5963412D01*
X5250688Y5937504D01*
X5250688Y5911595D01*
X5255768Y5890768D01*
X5266181Y5880354D01*
X5281929Y5875020D01*
X5287009Y5875020D01*
X5302504Y5880354D01*
X5312918Y5890768D01*
X5318252Y5906262D01*
X5318252Y5911595D01*
X5312918Y5927089D01*
X5302504Y5937504D01*
X5287009Y5942584D01*
X5281929Y5942584D01*
X5266181Y5937504D01*
X5255768Y5927089D01*
X5250688Y5911595D01*
D12*
X7772400Y4610100D02*
G01*
X7874000Y5194300D01*
X7874000Y5194300D01*
X7772400Y4610100D02*
G01*
X7670800Y5194300D01*
X7670800Y5194300D01*
X7569200Y4610100D02*
G01*
X7670800Y5194300D01*
X7670800Y5194300D01*
X7569200Y4610100D02*
G01*
X7467600Y5194300D01*
X7467600Y5194300D01*
X7366000Y4610100D02*
G01*
X7467600Y5194300D01*
X7467600Y5194300D01*
X7366000Y4610100D02*
G01*
X7264400Y5194300D01*
X7264400Y5194300D01*
X7162800Y4610100D02*
G01*
X7264400Y5194300D01*
X7264400Y5194300D01*
X7162800Y4610100D02*
G01*
X7061200Y5194300D01*
X7061200Y5194300D01*
X6959600Y4610100D02*
G01*
X7061200Y5194300D01*
X7061200Y5194300D01*
X6959600Y4610100D02*
G01*
X6858000Y5194300D01*
X6858000Y5194300D01*
X6756400Y4610100D02*
G01*
X6858000Y5194300D01*
X6858000Y5194300D01*
X6686499Y4902200D02*
G01*
X6692900Y4902200D01*
X6756400Y4610100D01*
X6394615Y4902200D02*
G01*
X6686499Y4902200D01*
X6686499Y5202199D02*
G01*
X7886496Y5202199D01*
X7886496Y4602200D01*
X6686499Y4602200D01*
X6686499Y5202199D01*
D11*
X5068239Y4076730D02*
G01*
X5068239Y3997721D01*
X5167960Y3997721D02*
G01*
X5167960Y4076730D01*
X5152720Y4091970D02*
G01*
X5083479Y4091970D01*
X5068239Y3873469D02*
G01*
X5068239Y3952478D01*
X5167960Y3952478D02*
G01*
X5167960Y3873469D01*
X5152720Y3858229D02*
G01*
X5083479Y3858229D01*
X1422369Y6490639D02*
G01*
X1501378Y6490639D01*
X1501378Y6590360D02*
G01*
X1422369Y6590360D01*
X1407129Y6575120D02*
G01*
X1407129Y6505879D01*
X1625630Y6490639D02*
G01*
X1546621Y6490639D01*
X1546621Y6590360D02*
G01*
X1625630Y6590360D01*
X1640870Y6575120D02*
G01*
X1640870Y6505879D01*
X2438369Y4115739D02*
G01*
X2517378Y4115739D01*
X2517378Y4215460D02*
G01*
X2438369Y4215460D01*
X2423129Y4200220D02*
G01*
X2423129Y4130979D01*
X2641630Y4115739D02*
G01*
X2562621Y4115739D01*
X2562621Y4215460D02*
G01*
X2641630Y4215460D01*
X2656870Y4200220D02*
G01*
X2656870Y4130979D01*
X3035330Y4215460D02*
G01*
X2956321Y4215460D01*
X2956321Y4115739D02*
G01*
X3035330Y4115739D01*
X3050570Y4130979D02*
G01*
X3050570Y4200220D01*
X2832069Y4215460D02*
G01*
X2911078Y4215460D01*
X2911078Y4115739D02*
G01*
X2832069Y4115739D01*
X2816829Y4130979D02*
G01*
X2816829Y4200220D01*
X3416330Y4215460D02*
G01*
X3337321Y4215460D01*
X3337321Y4115739D02*
G01*
X3416330Y4115739D01*
X3431570Y4130979D02*
G01*
X3431570Y4200220D01*
X3213069Y4215460D02*
G01*
X3292078Y4215460D01*
X3292078Y4115739D02*
G01*
X3213069Y4115739D01*
X3197829Y4130979D02*
G01*
X3197829Y4200220D01*
X1625630Y6247460D02*
G01*
X1546621Y6247460D01*
X1546621Y6147739D02*
G01*
X1625630Y6147739D01*
X1640870Y6162979D02*
G01*
X1640870Y6232220D01*
X1422369Y6247460D02*
G01*
X1501378Y6247460D01*
X1501378Y6147739D02*
G01*
X1422369Y6147739D01*
X1407129Y6162979D02*
G01*
X1407129Y6232220D01*
X2256873Y5803813D02*
G01*
X2177864Y5803813D01*
X2177864Y5704093D02*
G01*
X2256873Y5704093D01*
X2272113Y5719333D02*
G01*
X2272113Y5788573D01*
X2053612Y5803813D02*
G01*
X2132622Y5803813D01*
X2132622Y5704093D02*
G01*
X2053612Y5704093D01*
X2038372Y5719333D02*
G01*
X2038372Y5788573D01*
D13*
X1384297Y5588002D02*
G01*
X1333497Y5588002D01*
X1606087Y5588002D02*
G01*
X1441917Y5588002D01*
X1727197Y5588002D02*
G01*
X1663697Y5588002D01*
X1320797Y5867402D02*
G01*
X1384297Y5867402D01*
X1663697Y5867402D02*
G01*
X1714497Y5867402D01*
X1441907Y5867402D02*
G01*
X1606077Y5867402D01*
D11*
X807567Y6774319D02*
G01*
X1122806Y6774319D01*
X1122806Y6459080D02*
G01*
X807567Y6459080D01*
D14*
X2743200Y4724400D02*
G01*
X2743200Y4762474D01*
X2743200Y5194325D02*
G01*
X2743200Y5232400D01*
X2781274Y5232400D01*
X3213100Y5232400D02*
G01*
X3251200Y5232400D01*
X3251200Y5194325D01*
X3251200Y4762500D02*
G01*
X3251200Y4724400D01*
X3251200Y4724400D02*
G01*
X3213125Y4724400D01*
X2781274Y4724400D02*
G01*
X2743200Y4724400D01*
D11*
X2200313Y4710760D02*
G01*
X2272116Y4710760D01*
X2272116Y4611039D01*
X2200313Y4611039D01*
X2155070Y4710760D02*
G01*
X2083267Y4710760D01*
X2083267Y4611039D01*
X2155070Y4611039D01*
X2200313Y4977460D02*
G01*
X2272116Y4977460D01*
X2272116Y4877739D01*
X2200313Y4877739D01*
X2155070Y4977460D02*
G01*
X2083267Y4977460D01*
X2083267Y4877739D01*
X2155070Y4877739D01*
X1387078Y5271439D02*
G01*
X1315275Y5271439D01*
X1315275Y5371160D01*
X1387078Y5371160D01*
X1432321Y5271439D02*
G01*
X1504124Y5271439D01*
X1504124Y5371160D01*
X1432321Y5371160D01*
X1711721Y5371160D02*
G01*
X1783524Y5371160D01*
X1783524Y5271439D01*
X1711721Y5271439D01*
X1666478Y5371160D02*
G01*
X1594675Y5371160D01*
X1594675Y5271439D01*
X1666478Y5271439D01*
X3304778Y5601639D02*
G01*
X3232975Y5601639D01*
X3232975Y5701360D01*
X3304778Y5701360D01*
X3350021Y5601639D02*
G01*
X3421824Y5601639D01*
X3421824Y5701360D01*
X3350021Y5701360D01*
X2936478Y5601639D02*
G01*
X2864675Y5601639D01*
X2864675Y5701360D01*
X2936478Y5701360D01*
X2981721Y5601639D02*
G01*
X3053524Y5601639D01*
X3053524Y5701360D01*
X2981721Y5701360D01*
X2090978Y5615960D02*
G01*
X1995091Y5615960D01*
X1995091Y5483839D01*
X2090978Y5483839D01*
X2176221Y5615960D02*
G01*
X2272108Y5615960D01*
X2272108Y5483839D01*
X2176221Y5483839D01*
D15*
X4368901Y5771108D02*
G01*
X4368901Y5791098D01*
X5968898Y5791098D01*
X5968898Y5771108D01*
X5968898Y4211091D02*
G01*
X5968898Y4191101D01*
X4368901Y4191101D01*
X4368901Y4211091D01*
X4368901Y5611088D02*
G01*
X4368901Y5571109D01*
X4368901Y5411088D02*
G01*
X4368901Y5371109D01*
X4368901Y5211089D02*
G01*
X4368901Y5171109D01*
X4368901Y5011089D02*
G01*
X4368901Y4971110D01*
X4368901Y4811090D02*
G01*
X4368901Y4771110D01*
X4368901Y4611090D02*
G01*
X4368901Y4571111D01*
X4368901Y4411090D02*
G01*
X4368901Y4371111D01*
X5968898Y5611088D02*
G01*
X5968898Y5571109D01*
X5968898Y5411088D02*
G01*
X5968898Y5371109D01*
X5968898Y5211089D02*
G01*
X5968898Y5171109D01*
X5968898Y5011089D02*
G01*
X5968898Y4971110D01*
X5968898Y4811090D02*
G01*
X5968898Y4771110D01*
X5968898Y4611090D02*
G01*
X5968898Y4571111D01*
X5968898Y4411090D02*
G01*
X5968898Y4371111D01*
D12*
X4705350Y5638800D02*
G01*
X5200650Y5638800D01*
X5200650Y5105400D01*
X4705350Y5105400D01*
X4705350Y5638800D01*
D11*
G75*
G01*
X5167960Y4076730D02*
G03*
X5152720Y4091970I-15240J0D01*
G75*
G01*
X5083480Y4091970D02*
G03*
X5068240Y4076730I0J-15240D01*
G75*
G01*
X5167960Y3873470D02*
G02*
X5152720Y3858230I-15240J0D01*
G75*
G01*
X5083480Y3858230D02*
G02*
X5068240Y3873470I0J15240D01*
G75*
G01*
X1422370Y6590360D02*
G03*
X1407130Y6575120I0J-15240D01*
G75*
G01*
X1407130Y6505880D02*
G03*
X1422370Y6490640I15240J0D01*
G75*
G01*
X1625630Y6590360D02*
G02*
X1640870Y6575120I0J-15240D01*
G75*
G01*
X1640870Y6505880D02*
G02*
X1625630Y6490640I-15240J0D01*
G75*
G01*
X2438370Y4215460D02*
G03*
X2423130Y4200220I0J-15240D01*
G75*
G01*
X2423130Y4130980D02*
G03*
X2438370Y4115740I15240J0D01*
G75*
G01*
X2641630Y4215460D02*
G02*
X2656870Y4200220I0J-15240D01*
G75*
G01*
X2656870Y4130980D02*
G02*
X2641630Y4115740I-15240J0D01*
G75*
G01*
X3035330Y4115740D02*
G03*
X3050570Y4130980I0J15240D01*
G75*
G01*
X3050570Y4200220D02*
G03*
X3035330Y4215460I-15240J0D01*
G75*
G01*
X2832070Y4115740D02*
G02*
X2816830Y4130980I0J15240D01*
G75*
G01*
X2816830Y4200220D02*
G02*
X2832070Y4215460I15240J0D01*
G75*
G01*
X3416330Y4115740D02*
G03*
X3431570Y4130980I0J15240D01*
G75*
G01*
X3431570Y4200220D02*
G03*
X3416330Y4215460I-15240J0D01*
G75*
G01*
X3213070Y4115740D02*
G02*
X3197830Y4130980I0J15240D01*
G75*
G01*
X3197830Y4200220D02*
G02*
X3213070Y4215460I15240J0D01*
G75*
G01*
X1625630Y6147740D02*
G03*
X1640870Y6162980I0J15240D01*
G75*
G01*
X1640870Y6232220D02*
G03*
X1625630Y6247460I-15240J0D01*
G75*
G01*
X1422370Y6147740D02*
G02*
X1407130Y6162980I0J15240D01*
G75*
G01*
X1407130Y6232220D02*
G02*
X1422370Y6247460I15240J0D01*
G75*
G01*
X2256874Y5704093D02*
G03*
X2272114Y5719333I0J15240D01*
G75*
G01*
X2272114Y5788574D02*
G03*
X2256874Y5803814I-15240J0D01*
G75*
G01*
X2053613Y5704093D02*
G02*
X2038373Y5719333I0J15240D01*
G75*
G01*
X2038373Y5788574D02*
G02*
X2053613Y5803814I15240J0D01*
D13*
G75*
G01
X1294003Y5867679D02*
G03X1294003Y5867679I-10008J0D01*
D16*
G75*
G01
X743204Y6716674D02*
G03X743204Y6716674I-10008J0D01*
D12*
G75*
G01
X3308909Y4741393D02*
G03X3308909Y4741393I-12700J0D01*
D17*
G75*
G01
X4304919Y5816575D02*
G03X4304919Y5816575I-24994J0D01*
M02*
