G04 Layer: BottomSilkscreenLayer*
G04 EasyEDA v6.5.46, 2025-01-28 17:14:02*
G04 Gerber Generator version 0.2*
G04 Scale: 100 percent, Rotated: No, Reflected: No *
G04 Dimensions in millimeters *
G04 leading zeros omitted , absolute positions ,4 integer and 5 decimal *
%FSLAX45Y45*%
%MOMM*%

%ADD10C,0.1524*%
%ADD11C,0.1000*%
%ADD12C,0.1500*%
%ADD13C,0.2500*%
%ADD14C,0.2540*%
%ADD15C,0.0148*%

%LPD*%
D10*
X842241Y5535353D02*
G01*
X842241Y5441835D01*
X889000Y5488594D02*
G01*
X795482Y5488594D01*
X889000Y4739294D02*
G01*
X795482Y4739294D01*
D11*
X2527300Y6123663D02*
G01*
X2527300Y6085481D01*
X2527300Y6123663D02*
G01*
X2501846Y6085481D01*
X2501846Y6123663D02*
G01*
X2501846Y6085481D01*
X2489845Y6123663D02*
G01*
X2489845Y6085481D01*
X2489845Y6123663D02*
G01*
X2473482Y6123663D01*
X2468026Y6121844D01*
X2466210Y6120028D01*
X2464391Y6116391D01*
X2464391Y6112753D01*
X2466210Y6109119D01*
X2468026Y6107300D01*
X2473482Y6105481D01*
X2489845Y6105481D01*
X2477117Y6105481D02*
G01*
X2464391Y6085481D01*
X2426936Y6118209D02*
G01*
X2430571Y6121844D01*
X2436027Y6123663D01*
X2443299Y6123663D01*
X2448755Y6121844D01*
X2452390Y6118209D01*
X2452390Y6114572D01*
X2450571Y6110935D01*
X2448755Y6109119D01*
X2445118Y6107300D01*
X2434209Y6103663D01*
X2430571Y6101844D01*
X2428755Y6100028D01*
X2426936Y6096391D01*
X2426936Y6090935D01*
X2430571Y6087300D01*
X2436027Y6085481D01*
X2443299Y6085481D01*
X2448755Y6087300D01*
X2452390Y6090935D01*
X2402210Y6123663D02*
G01*
X2402210Y6085481D01*
X2414935Y6123663D02*
G01*
X2389482Y6123663D01*
X2768600Y6123663D02*
G01*
X2754053Y6085481D01*
X2739509Y6123663D02*
G01*
X2754053Y6085481D01*
X2702054Y6118209D02*
G01*
X2705691Y6121844D01*
X2711145Y6123663D01*
X2718417Y6123663D01*
X2723873Y6121844D01*
X2727510Y6118209D01*
X2727510Y6114572D01*
X2725691Y6110935D01*
X2723873Y6109119D01*
X2720235Y6107300D01*
X2709326Y6103663D01*
X2705691Y6101844D01*
X2703873Y6100028D01*
X2702054Y6096391D01*
X2702054Y6090935D01*
X2705691Y6087300D01*
X2711145Y6085481D01*
X2718417Y6085481D01*
X2723873Y6087300D01*
X2727510Y6090935D01*
X2664599Y6118209D02*
G01*
X2668236Y6121844D01*
X2673690Y6123663D01*
X2680964Y6123663D01*
X2686418Y6121844D01*
X2690055Y6118209D01*
X2690055Y6114572D01*
X2688236Y6110935D01*
X2686418Y6109119D01*
X2682781Y6107300D01*
X2671871Y6103663D01*
X2668236Y6101844D01*
X2666418Y6100028D01*
X2664599Y6096391D01*
X2664599Y6090935D01*
X2668236Y6087300D01*
X2673690Y6085481D01*
X2680964Y6085481D01*
X2686418Y6087300D01*
X2690055Y6090935D01*
X3022600Y6123663D02*
G01*
X3008053Y6085481D01*
X2993509Y6123663D02*
G01*
X3008053Y6085481D01*
X2981510Y6123663D02*
G01*
X2981510Y6085481D01*
X2981510Y6123663D02*
G01*
X2968782Y6123663D01*
X2963326Y6121844D01*
X2959691Y6118209D01*
X2957873Y6114572D01*
X2956054Y6109119D01*
X2956054Y6100028D01*
X2957873Y6094572D01*
X2959691Y6090935D01*
X2963326Y6087300D01*
X2968782Y6085481D01*
X2981510Y6085481D01*
X2944055Y6123663D02*
G01*
X2944055Y6085481D01*
X2944055Y6123663D02*
G01*
X2931327Y6123663D01*
X2925871Y6121844D01*
X2922236Y6118209D01*
X2920418Y6114572D01*
X2918599Y6109119D01*
X2918599Y6100028D01*
X2920418Y6094572D01*
X2922236Y6090935D01*
X2925871Y6087300D01*
X2931327Y6085481D01*
X2944055Y6085481D01*
X3276546Y6118209D02*
G01*
X3280181Y6121844D01*
X3285637Y6123663D01*
X3292909Y6123663D01*
X3298362Y6121844D01*
X3302000Y6118209D01*
X3302000Y6114572D01*
X3300181Y6110935D01*
X3298362Y6109119D01*
X3294727Y6107299D01*
X3283818Y6103663D01*
X3280181Y6101844D01*
X3278362Y6100028D01*
X3276546Y6096391D01*
X3276546Y6090935D01*
X3280181Y6087299D01*
X3285637Y6085481D01*
X3292909Y6085481D01*
X3298362Y6087299D01*
X3302000Y6090935D01*
X3264545Y6123663D02*
G01*
X3255454Y6085481D01*
X3246363Y6123663D02*
G01*
X3255454Y6085481D01*
X3246363Y6123663D02*
G01*
X3237273Y6085481D01*
X3228182Y6123663D02*
G01*
X3237273Y6085481D01*
X3216181Y6123663D02*
G01*
X3216181Y6085481D01*
X3216181Y6123663D02*
G01*
X3203455Y6123663D01*
X3197999Y6121844D01*
X3194364Y6118209D01*
X3192546Y6114572D01*
X3190727Y6109119D01*
X3190727Y6100028D01*
X3192546Y6094572D01*
X3194364Y6090935D01*
X3197999Y6087299D01*
X3203455Y6085481D01*
X3216181Y6085481D01*
X3178728Y6123663D02*
G01*
X3178728Y6085481D01*
X3155817Y6123663D02*
G01*
X3159455Y6121844D01*
X3163089Y6118209D01*
X3164908Y6114572D01*
X3166727Y6109119D01*
X3166727Y6100028D01*
X3164908Y6094572D01*
X3163089Y6090935D01*
X3159455Y6087299D01*
X3155817Y6085481D01*
X3148545Y6085481D01*
X3144908Y6087299D01*
X3141273Y6090935D01*
X3139455Y6094572D01*
X3137636Y6100028D01*
X3137636Y6109119D01*
X3139455Y6114572D01*
X3141273Y6118209D01*
X3144908Y6121844D01*
X3148545Y6123663D01*
X3155817Y6123663D01*
X3276546Y6715109D02*
G01*
X3280181Y6718744D01*
X3285637Y6720563D01*
X3292909Y6720563D01*
X3298362Y6718744D01*
X3302000Y6715109D01*
X3302000Y6711472D01*
X3300181Y6707835D01*
X3298362Y6706019D01*
X3294727Y6704200D01*
X3283818Y6700563D01*
X3280181Y6698744D01*
X3278362Y6696928D01*
X3276546Y6693291D01*
X3276546Y6687835D01*
X3280181Y6684200D01*
X3285637Y6682381D01*
X3292909Y6682381D01*
X3298362Y6684200D01*
X3302000Y6687835D01*
X3264545Y6720563D02*
G01*
X3255454Y6682381D01*
X3246363Y6720563D02*
G01*
X3255454Y6682381D01*
X3246363Y6720563D02*
G01*
X3237273Y6682381D01*
X3228182Y6720563D02*
G01*
X3237273Y6682381D01*
X3188909Y6711472D02*
G01*
X3190727Y6715109D01*
X3194364Y6718744D01*
X3197999Y6720563D01*
X3205271Y6720563D01*
X3208909Y6718744D01*
X3212546Y6715109D01*
X3214364Y6711472D01*
X3216181Y6706019D01*
X3216181Y6696928D01*
X3214364Y6691472D01*
X3212546Y6687835D01*
X3208909Y6684200D01*
X3205271Y6682381D01*
X3197999Y6682381D01*
X3194364Y6684200D01*
X3190727Y6687835D01*
X3188909Y6691472D01*
X3176910Y6720563D02*
G01*
X3176910Y6682381D01*
X3176910Y6682381D02*
G01*
X3155091Y6682381D01*
X3143089Y6720563D02*
G01*
X3143089Y6682381D01*
X3117636Y6720563D02*
G01*
X3143089Y6695109D01*
X3133999Y6704200D02*
G01*
X3117636Y6682381D01*
X3035300Y6720563D02*
G01*
X3035300Y6693291D01*
X3033481Y6687835D01*
X3029846Y6684200D01*
X3024390Y6682381D01*
X3020753Y6682381D01*
X3015300Y6684200D01*
X3011662Y6687835D01*
X3009846Y6693291D01*
X3009846Y6720563D01*
X2997845Y6669653D02*
G01*
X2965117Y6669653D01*
X2940390Y6720563D02*
G01*
X2940390Y6682381D01*
X2953118Y6720563D02*
G01*
X2927664Y6720563D01*
X2915663Y6720563D02*
G01*
X2890210Y6682381D01*
X2890210Y6720563D02*
G01*
X2915663Y6682381D01*
X2794000Y6720563D02*
G01*
X2794000Y6693291D01*
X2792181Y6687835D01*
X2788546Y6684200D01*
X2783090Y6682381D01*
X2779453Y6682381D01*
X2774000Y6684200D01*
X2770362Y6687835D01*
X2768546Y6693291D01*
X2768546Y6720563D01*
X2756545Y6669653D02*
G01*
X2723817Y6669653D01*
X2711818Y6720563D02*
G01*
X2711818Y6682381D01*
X2711818Y6720563D02*
G01*
X2695455Y6720563D01*
X2689999Y6718744D01*
X2688181Y6716928D01*
X2686364Y6713291D01*
X2686364Y6709653D01*
X2688181Y6706019D01*
X2689999Y6704200D01*
X2695455Y6702381D01*
X2711818Y6702381D01*
X2699090Y6702381D02*
G01*
X2686364Y6682381D01*
X2674363Y6720563D02*
G01*
X2648910Y6682381D01*
X2648910Y6720563D02*
G01*
X2674363Y6682381D01*
D10*
X3822700Y4865115D02*
G01*
X3822700Y4756150D01*
X3822700Y4756150D02*
G01*
X3760470Y4756150D01*
X3726179Y4865115D02*
G01*
X3726179Y4756150D01*
X3726179Y4865115D02*
G01*
X3658615Y4865115D01*
X3726179Y4813300D02*
G01*
X3684524Y4813300D01*
X3726179Y4756150D02*
G01*
X3658615Y4756150D01*
X3624325Y4865115D02*
G01*
X3624325Y4756150D01*
X3624325Y4865115D02*
G01*
X3587750Y4865115D01*
X3572256Y4860036D01*
X3561841Y4849621D01*
X3556761Y4839207D01*
X3551427Y4823460D01*
X3551427Y4797552D01*
X3556761Y4782057D01*
X3561841Y4771644D01*
X3572256Y4761229D01*
X3587750Y4756150D01*
X3624325Y4756150D01*
X2741472Y4662789D02*
G01*
X2741472Y4584857D01*
X2736278Y4569272D01*
X2725887Y4558880D01*
X2710299Y4553686D01*
X2699908Y4553686D01*
X2684322Y4558880D01*
X2673931Y4569272D01*
X2668737Y4584857D01*
X2668737Y4662789D01*
X2629250Y4636813D02*
G01*
X2629250Y4642007D01*
X2624056Y4652398D01*
X2618859Y4657595D01*
X2608468Y4662789D01*
X2587688Y4662789D01*
X2577297Y4657595D01*
X2572100Y4652398D01*
X2566906Y4642007D01*
X2566906Y4631616D01*
X2572100Y4621225D01*
X2582491Y4605639D01*
X2634447Y4553686D01*
X2561709Y4553686D01*
X3784600Y5385815D02*
G01*
X3784600Y5276850D01*
X3784600Y5385815D02*
G01*
X3737863Y5385815D01*
X3722370Y5380736D01*
X3717036Y5375402D01*
X3711956Y5364987D01*
X3711956Y5354573D01*
X3717036Y5344160D01*
X3722370Y5339079D01*
X3737863Y5334000D01*
X3784600Y5334000D01*
X3748277Y5334000D02*
G01*
X3711956Y5276850D01*
X3677665Y5364987D02*
G01*
X3667252Y5370321D01*
X3651504Y5385815D01*
X3651504Y5276850D01*
X3554984Y5370321D02*
G01*
X3560063Y5380736D01*
X3575811Y5385815D01*
X3586225Y5385815D01*
X3601720Y5380736D01*
X3612134Y5364987D01*
X3617213Y5339079D01*
X3617213Y5313171D01*
X3612134Y5292344D01*
X3601720Y5281929D01*
X3586225Y5276850D01*
X3580891Y5276850D01*
X3565397Y5281929D01*
X3554984Y5292344D01*
X3549650Y5307837D01*
X3549650Y5313171D01*
X3554984Y5328665D01*
X3565397Y5339079D01*
X3580891Y5344160D01*
X3586225Y5344160D01*
X3601720Y5339079D01*
X3612134Y5328665D01*
X3617213Y5313171D01*
X1802244Y3163338D02*
G01*
X1802244Y3080212D01*
X1807441Y3064624D01*
X1812635Y3059429D01*
X1823026Y3054235D01*
X1833417Y3054235D01*
X1843808Y3059429D01*
X1849005Y3064624D01*
X1854200Y3080212D01*
X1854200Y3090603D01*
X1762760Y3137362D02*
G01*
X1762760Y3142556D01*
X1757565Y3152947D01*
X1752368Y3158144D01*
X1741977Y3163338D01*
X1721195Y3163338D01*
X1710804Y3158144D01*
X1705610Y3152947D01*
X1700415Y3142556D01*
X1700415Y3132165D01*
X1705610Y3121774D01*
X1716001Y3106188D01*
X1767954Y3054235D01*
X1695218Y3054235D01*
X2210079Y4667653D02*
G01*
X2210079Y4589721D01*
X2204885Y4574136D01*
X2194493Y4563745D01*
X2178905Y4558550D01*
X2168514Y4558550D01*
X2152929Y4563745D01*
X2142538Y4574136D01*
X2137343Y4589721D01*
X2137343Y4667653D01*
X2103053Y4646871D02*
G01*
X2092662Y4652068D01*
X2077074Y4667653D01*
X2077074Y4558550D01*
X1319644Y4915938D02*
G01*
X1319644Y4832812D01*
X1324841Y4817224D01*
X1330035Y4812029D01*
X1340426Y4806835D01*
X1350817Y4806835D01*
X1361208Y4812029D01*
X1366405Y4817224D01*
X1371600Y4832812D01*
X1371600Y4843203D01*
X1285354Y4895156D02*
G01*
X1274965Y4900353D01*
X1259377Y4915938D01*
X1259377Y4806835D01*
X1012697Y4158742D02*
G01*
X1018031Y4169155D01*
X1028445Y4179570D01*
X1038605Y4184650D01*
X1059434Y4184650D01*
X1069847Y4179570D01*
X1080262Y4169155D01*
X1085595Y4158742D01*
X1090676Y4142994D01*
X1090676Y4117086D01*
X1085595Y4101592D01*
X1080262Y4091178D01*
X1069847Y4080763D01*
X1059434Y4075684D01*
X1038605Y4075684D01*
X1028445Y4080763D01*
X1018031Y4091178D01*
X1012697Y4101592D01*
X978407Y4163821D02*
G01*
X967994Y4169155D01*
X952500Y4184650D01*
X952500Y4075684D01*
X1484121Y4166107D02*
G01*
X1489455Y4176521D01*
X1499870Y4186936D01*
X1510029Y4192015D01*
X1530857Y4192015D01*
X1541271Y4186936D01*
X1551686Y4176521D01*
X1557020Y4166107D01*
X1562100Y4150360D01*
X1562100Y4124452D01*
X1557020Y4108957D01*
X1551686Y4098544D01*
X1541271Y4088129D01*
X1530857Y4083050D01*
X1510029Y4083050D01*
X1499870Y4088129D01*
X1489455Y4098544D01*
X1484121Y4108957D01*
X1444752Y4166107D02*
G01*
X1444752Y4171187D01*
X1439418Y4181602D01*
X1434337Y4186936D01*
X1423923Y4192015D01*
X1403095Y4192015D01*
X1392681Y4186936D01*
X1387602Y4181602D01*
X1382268Y4171187D01*
X1382268Y4160773D01*
X1387602Y4150360D01*
X1398015Y4134865D01*
X1449831Y4083050D01*
X1377187Y4083050D01*
X2144522Y5067807D02*
G01*
X2149856Y5078221D01*
X2160270Y5088636D01*
X2170429Y5093715D01*
X2191258Y5093715D01*
X2201672Y5088636D01*
X2212086Y5078221D01*
X2217420Y5067807D01*
X2222500Y5052060D01*
X2222500Y5026152D01*
X2217420Y5010657D01*
X2212086Y5000244D01*
X2201672Y4989829D01*
X2191258Y4984750D01*
X2170429Y4984750D01*
X2160270Y4989829D01*
X2149856Y5000244D01*
X2144522Y5010657D01*
X2058415Y5093715D02*
G01*
X2110231Y5021071D01*
X2032254Y5021071D01*
X2058415Y5093715D02*
G01*
X2058415Y4984750D01*
X1966722Y4153407D02*
G01*
X1972056Y4163821D01*
X1982470Y4174236D01*
X1992629Y4179315D01*
X2013458Y4179315D01*
X2023872Y4174236D01*
X2034286Y4163821D01*
X2039620Y4153407D01*
X2044700Y4137660D01*
X2044700Y4111752D01*
X2039620Y4096257D01*
X2034286Y4085844D01*
X2023872Y4075429D01*
X2013458Y4070350D01*
X1992629Y4070350D01*
X1982470Y4075429D01*
X1972056Y4085844D01*
X1966722Y4096257D01*
X1870202Y4179315D02*
G01*
X1922018Y4179315D01*
X1927352Y4132579D01*
X1922018Y4137660D01*
X1906523Y4142994D01*
X1891029Y4142994D01*
X1875281Y4137660D01*
X1864868Y4127500D01*
X1859787Y4111752D01*
X1859787Y4101337D01*
X1864868Y4085844D01*
X1875281Y4075429D01*
X1891029Y4070350D01*
X1906523Y4070350D01*
X1922018Y4075429D01*
X1927352Y4080510D01*
X1932431Y4090923D01*
X2144522Y5334507D02*
G01*
X2149856Y5344921D01*
X2160270Y5355336D01*
X2170429Y5360415D01*
X2191258Y5360415D01*
X2201672Y5355336D01*
X2212086Y5344921D01*
X2217420Y5334507D01*
X2222500Y5318760D01*
X2222500Y5292852D01*
X2217420Y5277357D01*
X2212086Y5266944D01*
X2201672Y5256529D01*
X2191258Y5251450D01*
X2170429Y5251450D01*
X2160270Y5256529D01*
X2149856Y5266944D01*
X2144522Y5277357D01*
X2110231Y5339587D02*
G01*
X2099818Y5344921D01*
X2084324Y5360415D01*
X2084324Y5251450D01*
X2018791Y5360415D02*
G01*
X2034540Y5355336D01*
X2044700Y5339587D01*
X2050034Y5313679D01*
X2050034Y5298186D01*
X2044700Y5272023D01*
X2034540Y5256529D01*
X2018791Y5251450D01*
X2008377Y5251450D01*
X1992884Y5256529D01*
X1982470Y5272023D01*
X1977390Y5298186D01*
X1977390Y5313679D01*
X1982470Y5339587D01*
X1992884Y5355336D01*
X2008377Y5360415D01*
X2018791Y5360415D01*
X2703322Y5067807D02*
G01*
X2708656Y5078221D01*
X2719070Y5088636D01*
X2729229Y5093715D01*
X2750058Y5093715D01*
X2760472Y5088636D01*
X2770886Y5078221D01*
X2776220Y5067807D01*
X2781300Y5052060D01*
X2781300Y5026152D01*
X2776220Y5010657D01*
X2770886Y5000244D01*
X2760472Y4989829D01*
X2750058Y4984750D01*
X2729229Y4984750D01*
X2719070Y4989829D01*
X2708656Y5000244D01*
X2703322Y5010657D01*
X2669031Y5072887D02*
G01*
X2658618Y5078221D01*
X2643124Y5093715D01*
X2643124Y4984750D01*
X2608834Y5072887D02*
G01*
X2598420Y5078221D01*
X2582925Y5093715D01*
X2582925Y4984750D01*
X2639822Y3835907D02*
G01*
X2645156Y3846321D01*
X2655570Y3856736D01*
X2665729Y3861815D01*
X2686558Y3861815D01*
X2696972Y3856736D01*
X2707386Y3846321D01*
X2712720Y3835907D01*
X2717800Y3820160D01*
X2717800Y3794252D01*
X2712720Y3778757D01*
X2707386Y3768344D01*
X2696972Y3757929D01*
X2686558Y3752850D01*
X2665729Y3752850D01*
X2655570Y3757929D01*
X2645156Y3768344D01*
X2639822Y3778757D01*
X2605531Y3840987D02*
G01*
X2595118Y3846321D01*
X2579624Y3861815D01*
X2579624Y3752850D01*
X2540000Y3835907D02*
G01*
X2540000Y3840987D01*
X2534920Y3851402D01*
X2529840Y3856736D01*
X2519425Y3861815D01*
X2498597Y3861815D01*
X2488184Y3856736D01*
X2482850Y3851402D01*
X2477770Y3840987D01*
X2477770Y3830573D01*
X2482850Y3820160D01*
X2493263Y3804665D01*
X2545334Y3752850D01*
X2472690Y3752850D01*
X1549400Y4674615D02*
G01*
X1549400Y4565650D01*
X1549400Y4674615D02*
G01*
X1502663Y4674615D01*
X1487170Y4669536D01*
X1481836Y4664202D01*
X1476755Y4653787D01*
X1476755Y4643373D01*
X1481836Y4632960D01*
X1487170Y4627879D01*
X1502663Y4622800D01*
X1549400Y4622800D01*
X1513078Y4622800D02*
G01*
X1476755Y4565650D01*
X1442465Y4653787D02*
G01*
X1432052Y4659121D01*
X1416304Y4674615D01*
X1416304Y4565650D01*
X1043431Y4679950D02*
G01*
X1043431Y4570984D01*
X1043431Y4679950D02*
G01*
X996695Y4679950D01*
X981202Y4674870D01*
X975868Y4669536D01*
X970787Y4659121D01*
X970787Y4648707D01*
X975868Y4638294D01*
X981202Y4633213D01*
X996695Y4628134D01*
X1043431Y4628134D01*
X1007110Y4628134D02*
G01*
X970787Y4570984D01*
X931163Y4654042D02*
G01*
X931163Y4659121D01*
X926084Y4669536D01*
X920750Y4674870D01*
X910336Y4679950D01*
X889762Y4679950D01*
X879347Y4674870D01*
X874013Y4669536D01*
X868934Y4659121D01*
X868934Y4648707D01*
X874013Y4638294D01*
X884428Y4622800D01*
X936497Y4570984D01*
X863600Y4570984D01*
X2222500Y3500521D02*
G01*
X2222500Y3391555D01*
X2222500Y3500521D02*
G01*
X2175763Y3500521D01*
X2160270Y3495441D01*
X2154936Y3490107D01*
X2149856Y3479693D01*
X2149856Y3469279D01*
X2154936Y3458865D01*
X2160270Y3453785D01*
X2175763Y3448705D01*
X2222500Y3448705D01*
X2186177Y3448705D02*
G01*
X2149856Y3391555D01*
X2053081Y3500521D02*
G01*
X2105152Y3500521D01*
X2110231Y3453785D01*
X2105152Y3458865D01*
X2089404Y3464199D01*
X2073909Y3464199D01*
X2058415Y3458865D01*
X2048002Y3448705D01*
X2042668Y3432957D01*
X2042668Y3422543D01*
X2048002Y3407049D01*
X2058415Y3396635D01*
X2073909Y3391555D01*
X2089404Y3391555D01*
X2105152Y3396635D01*
X2110231Y3401715D01*
X2115565Y3412129D01*
X3543300Y4585715D02*
G01*
X3543300Y4476750D01*
X3543300Y4585715D02*
G01*
X3496563Y4585715D01*
X3481070Y4580636D01*
X3475736Y4575302D01*
X3470656Y4564887D01*
X3470656Y4554473D01*
X3475736Y4544060D01*
X3481070Y4538979D01*
X3496563Y4533900D01*
X3543300Y4533900D01*
X3506977Y4533900D02*
G01*
X3470656Y4476750D01*
X3373881Y4570221D02*
G01*
X3379215Y4580636D01*
X3394709Y4585715D01*
X3405124Y4585715D01*
X3420618Y4580636D01*
X3431031Y4564887D01*
X3436365Y4538979D01*
X3436365Y4513071D01*
X3431031Y4492244D01*
X3420618Y4481829D01*
X3405124Y4476750D01*
X3399790Y4476750D01*
X3384295Y4481829D01*
X3373881Y4492244D01*
X3368802Y4507737D01*
X3368802Y4513071D01*
X3373881Y4528565D01*
X3384295Y4538979D01*
X3399790Y4544060D01*
X3405124Y4544060D01*
X3420618Y4538979D01*
X3431031Y4528565D01*
X3436365Y4513071D01*
X3543300Y4357115D02*
G01*
X3543300Y4248150D01*
X3543300Y4357115D02*
G01*
X3496563Y4357115D01*
X3481070Y4352036D01*
X3475736Y4346702D01*
X3470656Y4336287D01*
X3470656Y4325873D01*
X3475736Y4315460D01*
X3481070Y4310379D01*
X3496563Y4305300D01*
X3543300Y4305300D01*
X3506977Y4305300D02*
G01*
X3470656Y4248150D01*
X3363468Y4357115D02*
G01*
X3415538Y4248150D01*
X3436365Y4357115D02*
G01*
X3363468Y4357115D01*
X3543300Y4115815D02*
G01*
X3543300Y4006850D01*
X3543300Y4115815D02*
G01*
X3496563Y4115815D01*
X3481070Y4110736D01*
X3475736Y4105402D01*
X3470656Y4094987D01*
X3470656Y4084573D01*
X3475736Y4074160D01*
X3481070Y4069079D01*
X3496563Y4064000D01*
X3543300Y4064000D01*
X3506977Y4064000D02*
G01*
X3470656Y4006850D01*
X3410204Y4115815D02*
G01*
X3425952Y4110736D01*
X3431031Y4100321D01*
X3431031Y4089907D01*
X3425952Y4079494D01*
X3415538Y4074160D01*
X3394709Y4069079D01*
X3379215Y4064000D01*
X3368802Y4053586D01*
X3363468Y4043171D01*
X3363468Y4027423D01*
X3368802Y4017010D01*
X3373881Y4011929D01*
X3389629Y4006850D01*
X3410204Y4006850D01*
X3425952Y4011929D01*
X3431031Y4017010D01*
X3436365Y4027423D01*
X3436365Y4043171D01*
X3431031Y4053586D01*
X3420618Y4064000D01*
X3405124Y4069079D01*
X3384295Y4074160D01*
X3373881Y4079494D01*
X3368802Y4089907D01*
X3368802Y4100321D01*
X3373881Y4110736D01*
X3389629Y4115815D01*
X3410204Y4115815D01*
X2678429Y3489652D02*
G01*
X2678429Y3380686D01*
X2678429Y3489652D02*
G01*
X2631693Y3489652D01*
X2616200Y3484572D01*
X2610865Y3479238D01*
X2605786Y3468824D01*
X2605786Y3458410D01*
X2610865Y3447996D01*
X2616200Y3442916D01*
X2631693Y3437836D01*
X2678429Y3437836D01*
X2642108Y3437836D02*
G01*
X2605786Y3380686D01*
X2571495Y3468824D02*
G01*
X2561081Y3474158D01*
X2545334Y3489652D01*
X2545334Y3380686D01*
X2480056Y3489652D02*
G01*
X2495550Y3484572D01*
X2505963Y3468824D01*
X2511043Y3442916D01*
X2511043Y3427422D01*
X2505963Y3401260D01*
X2495550Y3385766D01*
X2480056Y3380686D01*
X2469641Y3380686D01*
X2453893Y3385766D01*
X2443479Y3401260D01*
X2438400Y3427422D01*
X2438400Y3442916D01*
X2443479Y3468824D01*
X2453893Y3484572D01*
X2469641Y3489652D01*
X2480056Y3489652D01*
X3175000Y3493515D02*
G01*
X3175000Y3384550D01*
X3175000Y3493515D02*
G01*
X3128263Y3493515D01*
X3112770Y3488436D01*
X3107436Y3483102D01*
X3102356Y3472687D01*
X3102356Y3462273D01*
X3107436Y3451860D01*
X3112770Y3446779D01*
X3128263Y3441700D01*
X3175000Y3441700D01*
X3138677Y3441700D02*
G01*
X3102356Y3384550D01*
X3000502Y3457194D02*
G01*
X3005581Y3441700D01*
X3015995Y3431286D01*
X3031490Y3425952D01*
X3036824Y3425952D01*
X3052318Y3431286D01*
X3062731Y3441700D01*
X3068065Y3457194D01*
X3068065Y3462273D01*
X3062731Y3478021D01*
X3052318Y3488436D01*
X3036824Y3493515D01*
X3031490Y3493515D01*
X3015995Y3488436D01*
X3005581Y3478021D01*
X3000502Y3457194D01*
X3000502Y3431286D01*
X3005581Y3405123D01*
X3015995Y3389629D01*
X3031490Y3384550D01*
X3041904Y3384550D01*
X3057652Y3389629D01*
X3062731Y3400044D01*
X3681267Y6236162D02*
G01*
X3686464Y6246553D01*
X3696855Y6256944D01*
X3707244Y6262138D01*
X3728026Y6262138D01*
X3738417Y6256944D01*
X3748808Y6246553D01*
X3754005Y6236162D01*
X3759200Y6220574D01*
X3759200Y6194597D01*
X3754005Y6179012D01*
X3748808Y6168621D01*
X3738417Y6158229D01*
X3728026Y6153035D01*
X3707244Y6153035D01*
X3696855Y6158229D01*
X3686464Y6168621D01*
X3681267Y6179012D01*
X3615804Y6262138D02*
G01*
X3626195Y6256944D01*
X3636586Y6246553D01*
X3641783Y6236162D01*
X3646977Y6220574D01*
X3646977Y6194597D01*
X3641783Y6179012D01*
X3636586Y6168621D01*
X3626195Y6158229D01*
X3615804Y6153035D01*
X3595024Y6153035D01*
X3584633Y6158229D01*
X3574242Y6168621D01*
X3569045Y6179012D01*
X3563851Y6194597D01*
X3563851Y6220574D01*
X3569045Y6236162D01*
X3574242Y6246553D01*
X3584633Y6256944D01*
X3595024Y6262138D01*
X3615804Y6262138D01*
X3529561Y6262138D02*
G01*
X3529561Y6153035D01*
X3529561Y6262138D02*
G01*
X3456825Y6153035D01*
X3456825Y6262138D02*
G01*
X3456825Y6153035D01*
X3422535Y6241356D02*
G01*
X3412144Y6246553D01*
X3396556Y6262138D01*
X3396556Y6153035D01*
D12*
X3673657Y4933348D02*
G01*
X3674653Y4933348D01*
X3707658Y4966352D01*
X3673657Y5001351D02*
G01*
X3673657Y5000353D01*
X3707658Y4966352D01*
X3673657Y5001351D02*
G01*
X3673657Y4933348D01*
X3671653Y5041358D02*
G01*
X3556652Y5041358D01*
X3671653Y4891346D02*
G01*
X3556652Y4891346D01*
X3556652Y5041348D02*
G01*
X3556652Y4893355D01*
X3709654Y4891115D02*
G01*
X3814665Y4891115D01*
X3844660Y4931122D02*
G01*
X3844660Y4921120D01*
X3814665Y4891115D01*
X3844660Y5001117D02*
G01*
X3844660Y4931122D01*
X3844660Y5001117D02*
G01*
X3844660Y5011132D01*
X3814665Y5041127D01*
X3709654Y5041127D02*
G01*
X3814665Y5041127D01*
X3673657Y4966352D02*
G01*
X3707658Y4966352D01*
D10*
X2686149Y4198480D02*
G01*
X2735719Y4198480D01*
X2735719Y4248050D01*
X2686149Y4513719D02*
G01*
X2735719Y4513719D01*
X2735719Y4464149D01*
X2470050Y4198480D02*
G01*
X2420480Y4198480D01*
X2420480Y4248050D01*
X2470050Y4513719D02*
G01*
X2420480Y4513719D01*
X2420480Y4464149D01*
X3718321Y5144439D02*
G01*
X3790124Y5144439D01*
X3790124Y5244160D01*
X3718321Y5244160D01*
X3673078Y5144439D02*
G01*
X3601275Y5144439D01*
X3601275Y5244160D01*
X3673078Y5244160D01*
D13*
X860887Y3722702D02*
G01*
X839723Y3722702D01*
X1547876Y3722702D02*
G01*
X1526712Y3722702D01*
X1643799Y3562703D02*
G01*
X1643799Y3566911D01*
X1643799Y3562703D02*
G01*
X1643799Y3418471D01*
X743800Y3422703D02*
G01*
X743800Y3567711D01*
X1643875Y3182581D02*
G01*
X1643875Y3184867D01*
X1643875Y3042627D01*
X743699Y3042627D01*
X743699Y3182581D01*
X1233802Y3582703D02*
G01*
X1233802Y3602702D01*
X1093802Y3542703D02*
G01*
X1093802Y3582703D01*
X1153802Y3582703D01*
X1153802Y3602702D01*
X1293802Y3542703D02*
G01*
X1293802Y3582703D01*
X1233802Y3582703D01*
X1294803Y3542703D02*
G01*
X1092801Y3542703D01*
D14*
X1475567Y3159379D02*
G01*
X1425783Y3409569D01*
X1295735Y3409569D01*
X1245697Y3159379D01*
X1295227Y3159379D01*
X1335105Y3369437D01*
X1387937Y3369437D01*
X1428069Y3159379D01*
X1475567Y3159379D01*
X1445595Y3289427D02*
G01*
X1405717Y3289427D01*
X1315659Y3289457D02*
G01*
X1275659Y3289457D01*
X987981Y3289965D02*
G01*
X947981Y3289965D01*
X1117917Y3289935D02*
G01*
X1078039Y3289935D01*
X1147889Y3159887D02*
G01*
X1098105Y3410077D01*
X968057Y3410077D01*
X918019Y3159887D01*
X967549Y3159887D01*
X1007427Y3369945D01*
X1060259Y3369945D01*
X1100391Y3159887D01*
X1147889Y3159887D01*
X1917702Y4303092D02*
G01*
X1917697Y4442790D01*
X2209797Y4330697D02*
G01*
X2209797Y4415175D01*
X2032002Y4284040D02*
G01*
X2108197Y4284040D01*
X952500Y4813300D02*
G01*
X952500Y4864100D01*
X1143000Y4864100D01*
X1143000Y5359400D01*
X952500Y5359400D01*
X952500Y5397500D01*
X889000Y5405404D02*
G01*
X889000Y5354604D01*
X812800Y5354604D01*
X812800Y5138704D01*
X762000Y5138704D01*
X889000Y4813300D02*
G01*
X889000Y4864100D01*
X812800Y4864100D01*
X812800Y5080000D01*
X762000Y5080000D01*
X1207109Y4805400D02*
G01*
X1207109Y5405399D01*
X757097Y5405399D01*
X757097Y4805400D01*
X1207109Y4805400D01*
D10*
X1076573Y3950639D02*
G01*
X997564Y3950639D01*
X997564Y4050360D02*
G01*
X1076573Y4050360D01*
X1091813Y4035120D02*
G01*
X1091813Y3965879D01*
X873312Y3950639D02*
G01*
X952322Y3950639D01*
X952322Y4050360D02*
G01*
X873312Y4050360D01*
X858072Y4035120D02*
G01*
X858072Y3965879D01*
X1346169Y4050360D02*
G01*
X1425178Y4050360D01*
X1425178Y3950639D02*
G01*
X1346169Y3950639D01*
X1330929Y3965879D02*
G01*
X1330929Y4035120D01*
X1549430Y4050360D02*
G01*
X1470421Y4050360D01*
X1470421Y3950639D02*
G01*
X1549430Y3950639D01*
X1564670Y3965879D02*
G01*
X1564670Y4035120D01*
X1991301Y4964760D02*
G01*
X2070310Y4964760D01*
X2070310Y4865039D02*
G01*
X1991301Y4865039D01*
X1976061Y4880279D02*
G01*
X1976061Y4949520D01*
X2194562Y4964760D02*
G01*
X2115553Y4964760D01*
X2115553Y4865039D02*
G01*
X2194562Y4865039D01*
X2209802Y4880279D02*
G01*
X2209802Y4949520D01*
X1816069Y4050360D02*
G01*
X1895078Y4050360D01*
X1895078Y3950639D02*
G01*
X1816069Y3950639D01*
X1800829Y3965879D02*
G01*
X1800829Y4035120D01*
X2019330Y4050360D02*
G01*
X1940321Y4050360D01*
X1940321Y3950639D02*
G01*
X2019330Y3950639D01*
X2034570Y3965879D02*
G01*
X2034570Y4035120D01*
X2194562Y5131739D02*
G01*
X2115553Y5131739D01*
X2115553Y5231460D02*
G01*
X2194562Y5231460D01*
X2209802Y5216220D02*
G01*
X2209802Y5146979D01*
X1991301Y5131739D02*
G01*
X2070310Y5131739D01*
X2070310Y5231460D02*
G01*
X1991301Y5231460D01*
X1976061Y5216220D02*
G01*
X1976061Y5146979D01*
X2755930Y4865039D02*
G01*
X2676921Y4865039D01*
X2676921Y4964760D02*
G01*
X2755930Y4964760D01*
X2771170Y4949520D02*
G01*
X2771170Y4880279D01*
X2552669Y4865039D02*
G01*
X2631678Y4865039D01*
X2631678Y4964760D02*
G01*
X2552669Y4964760D01*
X2537429Y4949520D02*
G01*
X2537429Y4880279D01*
X2692430Y3633139D02*
G01*
X2613421Y3633139D01*
X2613421Y3732860D02*
G01*
X2692430Y3732860D01*
X2707670Y3717620D02*
G01*
X2707670Y3648379D01*
X2489169Y3633139D02*
G01*
X2568178Y3633139D01*
X2568178Y3732860D02*
G01*
X2489169Y3732860D01*
X2473929Y3717620D02*
G01*
X2473929Y3648379D01*
X1483121Y4445939D02*
G01*
X1554924Y4445939D01*
X1554924Y4545660D01*
X1483121Y4545660D01*
X1437878Y4445939D02*
G01*
X1366075Y4445939D01*
X1366075Y4545660D01*
X1437878Y4545660D01*
X929878Y4545660D02*
G01*
X858075Y4545660D01*
X858075Y4445939D01*
X929878Y4445939D01*
X975121Y4545660D02*
G01*
X1046924Y4545660D01*
X1046924Y4445939D01*
X975121Y4445939D01*
X2156221Y3255642D02*
G01*
X2228024Y3255642D01*
X2228024Y3355362D01*
X2156221Y3355362D01*
X2110978Y3255642D02*
G01*
X2039175Y3255642D01*
X2039175Y3355362D01*
X2110978Y3355362D01*
X3261121Y4471339D02*
G01*
X3332924Y4471339D01*
X3332924Y4571060D01*
X3261121Y4571060D01*
X3215878Y4471339D02*
G01*
X3144075Y4471339D01*
X3144075Y4571060D01*
X3215878Y4571060D01*
X3261121Y4236389D02*
G01*
X3332924Y4236389D01*
X3332924Y4336110D01*
X3261121Y4336110D01*
X3215878Y4236389D02*
G01*
X3144075Y4236389D01*
X3144075Y4336110D01*
X3215878Y4336110D01*
X3261121Y4001439D02*
G01*
X3332924Y4001439D01*
X3332924Y4101160D01*
X3261121Y4101160D01*
X3215878Y4001439D02*
G01*
X3144075Y4001439D01*
X3144075Y4101160D01*
X3215878Y4101160D01*
X2568178Y3355362D02*
G01*
X2496375Y3355362D01*
X2496375Y3255642D01*
X2568178Y3255642D01*
X2613421Y3355362D02*
G01*
X2685224Y3355362D01*
X2685224Y3255642D01*
X2613421Y3255642D01*
X2992678Y3223239D02*
G01*
X2896791Y3223239D01*
X2896791Y3355360D01*
X2992678Y3355360D01*
X3077921Y3223239D02*
G01*
X3173808Y3223239D01*
X3173808Y3355360D01*
X3077921Y3355360D01*
D14*
X3352800Y6400800D02*
G01*
X3098800Y6400800D01*
X3098800Y6146800D01*
X2336800Y6654800D02*
G01*
X2336800Y6146800D01*
X3352800Y6146800D01*
X3352800Y6654800D01*
X2337800Y6654800D01*
D10*
G75*
G01*
X1076574Y4050360D02*
G02*
X1091814Y4035120I0J-15240D01*
G75*
G01*
X1091814Y3965880D02*
G02*
X1076574Y3950640I-15240J0D01*
G75*
G01*
X873313Y4050360D02*
G03*
X858073Y4035120I0J-15240D01*
G75*
G01*
X858073Y3965880D02*
G03*
X873313Y3950640I15240J0D01*
G75*
G01*
X1346170Y3950640D02*
G02*
X1330930Y3965880I0J15240D01*
G75*
G01*
X1330930Y4035120D02*
G02*
X1346170Y4050360I15240J0D01*
G75*
G01*
X1549430Y3950640D02*
G03*
X1564670Y3965880I0J15240D01*
G75*
G01*
X1564670Y4035120D02*
G03*
X1549430Y4050360I-15240J0D01*
G75*
G01*
X1991302Y4865040D02*
G02*
X1976062Y4880280I0J15240D01*
G75*
G01*
X1976062Y4949520D02*
G02*
X1991302Y4964760I15240J0D01*
G75*
G01*
X2194563Y4865040D02*
G03*
X2209803Y4880280I0J15240D01*
G75*
G01*
X2209803Y4949520D02*
G03*
X2194563Y4964760I-15240J0D01*
G75*
G01*
X1816070Y3950640D02*
G02*
X1800830Y3965880I0J15240D01*
G75*
G01*
X1800830Y4035120D02*
G02*
X1816070Y4050360I15240J0D01*
G75*
G01*
X2019330Y3950640D02*
G03*
X2034570Y3965880I0J15240D01*
G75*
G01*
X2034570Y4035120D02*
G03*
X2019330Y4050360I-15240J0D01*
G75*
G01*
X2194563Y5231460D02*
G02*
X2209803Y5216220I0J-15240D01*
G75*
G01*
X2209803Y5146980D02*
G02*
X2194563Y5131740I-15240J0D01*
G75*
G01*
X1991302Y5231460D02*
G03*
X1976062Y5216220I0J-15240D01*
G75*
G01*
X1976062Y5146980D02*
G03*
X1991302Y5131740I15240J0D01*
G75*
G01*
X2755930Y4964760D02*
G02*
X2771170Y4949520I0J-15240D01*
G75*
G01*
X2771170Y4880280D02*
G02*
X2755930Y4865040I-15240J0D01*
G75*
G01*
X2552670Y4964760D02*
G03*
X2537430Y4949520I0J-15240D01*
G75*
G01*
X2537430Y4880280D02*
G03*
X2552670Y4865040I15240J0D01*
G75*
G01*
X2692430Y3732860D02*
G02*
X2707670Y3717620I0J-15240D01*
G75*
G01*
X2707670Y3648380D02*
G02*
X2692430Y3633140I-15240J0D01*
G75*
G01*
X2489170Y3732860D02*
G03*
X2473930Y3717620I0J-15240D01*
G75*
G01*
X2473930Y3648380D02*
G03*
X2489170Y3633140I15240J0D01*
D12*
G75*
G01
X2381580Y4281068D02*
G03X2381580Y4281068I-7493J0D01*
M02*
